<svg xmlns="http://www.w3.org/2000/svg"  viewBox="0 0 341.285 279.53">
  <g id="cartBag" transform="translate(-139.125 -305)">
    <path id="Path_273" data-name="Path 273" d="M428.41,694.23c0,24-81.48,43.3-171,43.3s-153.26-19.32-153.26-43.3,72.6-43.43,162.14-43.43S428.41,670.25,428.41,694.23Z" transform="translate(52 -153)" fill="#d3cfc5"/>
    <g id="Group_21" data-name="Group 21" transform="translate(52 -153)">
      <g id="Group_20" data-name="Group 20">
        <path id="Path_274" data-name="Path 274" d="M393.6,637.34c-.25-12.87-3.12-25.76-5.1-38.44a65,65,0,0,0-29-44.48c-15.07-9.86-33.8-13.62-51.58-13.6a13.84,13.84,0,0,0-2.71-8.7.36.36,0,0,0-.16-.12,6.128,6.128,0,0,0-.06-1.11c-.7-4.18-3.39-8-5.18-11.77-2.29-4.82-4.32-9.77-6.41-14.68-5.71-13.38-13.85-31.65-30.6-33.25-1.09-5.16-5.08-10.77-8.61-11.91-6.39-2.06-13.31-1.19-19.84-.44a60.157,60.157,0,0,1-10,.29,8.29,8.29,0,0,0-6.19,1.81.38.38,0,0,0-.14.37c-.63,2.5.29,4.47,1.67,6.28-13.27.41-23.53,14.35-29.12,24.87a107.921,107.921,0,0,0-8,20.91c-1.81,6.28-4.11,13.48-4.48,20a13.61,13.61,0,0,0-3.53,7.15c-.39,2-.48,7.09,1.53,9.09-4.48.62-9,1.25-13.43,1.79-7.84.94-15.67,1.71-23.32,3.76A46,46,0,0,0,127,560.62c-9,2-17.94,3.86-26.9,5.82-5.75,1.26-11.56,3.81-12.79,10.12-.65,3.35.57,7.05,1.29,10.29,1,4.66,2.19,9.29,3.36,13.93,1.23,4.88,2.52,9.75,3.83,14.62,1,3.74,1.75,8,3.58,11.42a.23.23,0,0,0,.09.08v.1a6.51,6.51,0,0,0-.69,2.17c-.47,3.58.31,7.18,1.15,10.64.78,3.26,1.42,7.42,3.09,10.37-.35,2.59-1.1,7.21-.22,10.59-1.58,5.28-3.11,10.69-4.39,16-.92,3.87-2,9-.11,12.79,1.46,2.92,3.86,4.69,6.65,6.24a38.862,38.862,0,0,1,5.46,3.2l.12.26c3.29,7.22,10.06,14,18.39,11.46a13.269,13.269,0,0,0,4,2.93c5.07,2.44,10.74,3.65,16,5.68,3.8,1.48,7.32,3.37,11.48,3.49,4.45.13,8.94-1.7,13.22-2.7,5.57-1.31,11.16-2.48,16.77-3.61q2.7-.54,5.42-1a.81.81,0,0,0,.79-.14c9.08-1.6,18.22-2.8,27.24-4.62,7.15-1.43,14-4,21.1-5.62,7.88-1.81,15.86-3.21,23.83-4.6,25.19-4.4,50.12-10,75.46-13.36,14.66-1.95,33.59-4.44,42.53-17.83C392.68,660.42,393.81,647.76,393.6,637.34ZM185.73,547a13.78,13.78,0,0,1-1.07,1.48l-2.61.32c-2-2-3-3.52-2.51-6.58a14.55,14.55,0,0,1,.92-3.14,9.77,9.77,0,0,0,5.21-.74c.19,1.65.86,3.2.85,5A8.81,8.81,0,0,1,185.73,547Zm15.43.15a.849.849,0,0,0-.23,0c-4.1.14-8.18.48-12.26.91,2.38-3.69,2.78-9.43.08-12.8a5.791,5.791,0,0,0,.32-1.14c.28-1.64,0-3.29.26-5a26.56,26.56,0,0,1,1.73-4.48c.48-1.17.87-3.22-.1-4.31a1.68,1.68,0,0,0-.8-.52c3.22-5,5.13-11.17,7.69-16.55a89.7,89.7,0,0,1,9.21-14.5,69.878,69.878,0,0,0-4.79,17.32c-1.17,7.67-.77,15.29-.67,23,0,2.64-.68,9.11.69,13a15,15,0,0,0-1.13,5.1Zm3.45-.46c0-.62-.06-1.23-.05-1.83,2.85,1.46,7,.83,9.85-.22a3.38,3.38,0,0,0,2.09-2.23,13.55,13.55,0,0,1,1.91,3.41c-4.6.24-9.19.66-13.8.9Zm56.23-5.12c-12.88,1.16-25.77,3-38.56,3.57a12.28,12.28,0,0,0-5.67-6.91c-.29-1.79-.81-3.57-1.07-4.79-1.91-9.1-3-18.2-1.42-27.46,1.43-8.59,4.57-19.72,12-25a2.36,2.36,0,0,0,1.65.68c2.27,0,4.33-.86,6.47-1.53,4-1.24,8.94-1.09,13.08-1.27a46.561,46.561,0,0,1,9.36.74c.36.05.79.1,1.24.13,4.11,2.25,5.43,7.61,6.51,12,1.86,7.68,1.31,16,1.39,23.82a.481.481,0,0,0,0,.18c-1,.5-1.25,1.23-1.24,2.54a55.385,55.385,0,0,0-.62,7.38c0,.45-.12,1.2-.2,2-4.22,2.49-5.48,9.94-2.92,13.95Zm12.91-.85q-4.39.16-8.79.51c-1.81-3.1-1.63-6.25-.24-9.41,2.37,1.21,7.29,1.32,9.91-.42a20.14,20.14,0,0,1,.47,4.53,13.08,13.08,0,0,1-1.35,4.82Zm4.43-.11c2-3.16.78-8.91-1.86-11.39,1.35-3.44,1.39-9.91-1.27-12.42a.27.27,0,0,0,.08-.16c.84-3.75.36-7.59-.1-11.37s-.66-7.67-1.35-11.44A27.5,27.5,0,0,0,269,483c6.74,4.58,11.4,12,14.76,19.51,2,4.46,4.42,8.84,6.65,13.3-2.79,4.3.67,11.72,2.54,16.06a13.35,13.35,0,0,0-.54,6.48,16,16,0,0,0,1.09,3,125.061,125.061,0,0,0-15.32-.71Zm25.38.75a3.94,3.94,0,0,0-4.49.56c-.48-1.54-1.4-2.88-1.77-4.5a10.153,10.153,0,0,1-.19-1.17c2,0,4.62-.22,6.3-1.34a15.07,15.07,0,0,1,.15,6.48Z" fill="#707173"/>
        <path id="Path_275" data-name="Path 275" d="M270.75,522.79a1.19,1.19,0,0,0,1-1.58,1.61,1.61,0,0,0-1.89-1.13.27.27,0,0,1-.25-.13,1.38,1.38,0,0,0-.66,1.16,1.51,1.51,0,0,0,1.8,1.68Z" fill="#e8bb49"/>
        <path id="Path_276" data-name="Path 276" d="M269,531.33c1.63,0,3.7-.08,5.13-1,2.65-1.7,2.28-9.3.92-11.72-1.06-1.9-4.39-2.23-6.35-2.21-2.25,0-2.85.66-3.28,2.69a.32.32,0,0,1-.14.22c.08,3.28,0,6.56-.07,9.84C265.13,531.41,267.05,531.36,269,531.33Zm-1-10.61c.32-1.25,1.68-2.49,2.84-1.56a2.22,2.22,0,0,1,2.13,2,2.39,2.39,0,0,1-2.31,2.93,2.66,2.66,0,0,1-2.72-3.37Z" fill="#966839"/>
        <path id="Path_277" data-name="Path 277" d="M228.8,464.5a3,3,0,0,0-2.88-1.51c-.84.3-1.58.84-1.53,1.74a2.38,2.38,0,0,0,2.61,2C228.2,466.6,229.57,465.88,228.8,464.5Z" fill="#e8bb49"/>
        <path id="Path_278" data-name="Path 278" d="M276,529.93v.08a3,3,0,0,1-.49.67c1,2.94,1.63,7.45-.56,10h2.12A13.49,13.49,0,0,0,276,529.93Z" fill="#e8bb49"/>
        <path id="Path_279" data-name="Path 279" d="M295.82,529.25a66.089,66.089,0,0,0-4.71-12.09,2.849,2.849,0,0,0-.26,1.07,19.16,19.16,0,0,0,.82,5.14,65.459,65.459,0,0,1,2,7.17,3.22,3.22,0,0,1,2.15-1.29Z" fill="#966839"/>
        <path id="Path_280" data-name="Path 280" d="M264,531.18a3.8,3.8,0,0,1-.33-1.57,18.268,18.268,0,0,0-2.12,3.65c-1,3.09-.44,5.37.33,8.24l1.87-.15c-1.33-1.4-1.64-4.07-1.46-5.76C262.44,534.42,262.75,531.94,264,531.18Z" fill="#e8bb49"/>
        <path id="Path_281" data-name="Path 281" d="M260.74,479.25l-.14-.07-.08.06a2.426,2.426,0,0,1-.39.21c2.56,2.1,4.22,6.75,4.9,9.06,2.58,8.74,2.24,17.82,2.11,26.84a11.5,11.5,0,0,1,7.21,1c.3-12.33-.79-25.86-9.05-35.45a24.372,24.372,0,0,0-4.56-1.65Z" fill="#966839"/>
        <path id="Path_282" data-name="Path 282" d="M298.91,522.61a1.31,1.31,0,0,0-.68,1,2.72,2.72,0,0,0,1.26,2.78c.67.33,1-.78,1.1-1.22a3,3,0,0,0,.06-1.36,8.088,8.088,0,0,0-.31-.76l-.1-.2A2,2,0,0,0,298.91,522.61Z" fill="#e8bb49"/>
        <path id="Path_283" data-name="Path 283" d="M251.06,464.51a3.34,3.34,0,0,0,2.2-.35c.22-.17-.38-.69-.47-.78a5.93,5.93,0,0,0-1.92-1.1c-.59-.2-1.22-.25-1.82-.41-.42.1-.73.32-.61.8a2.82,2.82,0,0,0,2.62,1.84Z" fill="#e8bb49"/>
        <path id="Path_284" data-name="Path 284" d="M284.53,500.64c2.76,6.26,5.77,12.24,8.8,18.37,2.2,4.46,4.74,9.61,3.79,14.71,0,.38-.06.75-.07,1.12,1.66-.09,3.75-.18,5.14-1.14,2.67-1.84.61-5.48-.31-7.43l-.24-.5a1.29,1.29,0,0,1-.08.28c-.46,1.15-1.67,2.18-2.89,1.26a3.74,3.74,0,0,1-1.34-4.53,1.89,1.89,0,0,1,2.38-1.07c-.83-1.75-1.65-3.5-2.43-5.27-2.62-5.89-5-11.9-7.63-17.77s-5.51-11.94-9.92-16.64c-4.69-5-10.43-7.55-16.72-9.8.33,2.42-.06,4.66-1.52,6.2C272.72,480,280.29,491,284.53,500.64Z" fill="#b07f48"/>
        <path id="Path_285" data-name="Path 285" d="M297.8,544.54a5.37,5.37,0,0,1,.73-1.91h0c-2.44-1.78-3.32-7.12-1.93-10-.15-.87-.32-1.72-.52-2.57-1.06,1.17-2,2.09-2.27,3.85a13,13,0,0,0,.35,5.26,9.49,9.49,0,0,0,2.31,4.45,8.373,8.373,0,0,0,1.33.92Z" fill="#e8bb49"/>
        <path id="Path_286" data-name="Path 286" d="M180.92,538a30.528,30.528,0,0,1,3-.68c3.5-.85,3.75-3.3,4-6.45a7.31,7.31,0,0,1,.13-1.06,3.13,3.13,0,0,1-.79.41,1.68,1.68,0,0,1-2.34-1.56c-.05-1.63.89-3.64,2.65-3.92a1.65,1.65,0,0,1,1.78.87c.5-1.53,1.71-5.77-.22-4.37a13.519,13.519,0,0,0-4.57,6.52,81.813,81.813,0,0,1-2.73,8h0c-.21.55-.44,1.09-.67,1.62Z" fill="#966839"/>
        <path id="Path_287" data-name="Path 287" d="M219.33,548.6c-.22-.76-.45-1.5-.71-2.21a40.34,40.34,0,0,1-13.88,1.42,8.84,8.84,0,0,0,.4,1.78,8.35,8.35,0,0,0,1.47,2.44.36.36,0,0,1,0-.21h0a.541.541,0,0,1,.07-.13h0a.54.54,0,0,1,.3-.17C210.53,549.91,215.46,547.32,219.33,548.6Z" fill="#998945"/>
        <path id="Path_288" data-name="Path 288" d="M221.71,550.09a16.659,16.659,0,0,0-.8-5.2,11.3,11.3,0,0,0-4.14-5.16,10.436,10.436,0,0,1,0,1.37.669.669,0,0,1,.14.09c2.13,2,3.74,4.77,3.18,7.73A6,6,0,0,1,221.71,550.09Z" fill="#e8bb49"/>
        <path id="Path_289" data-name="Path 289" d="M305.88,543.25a18.061,18.061,0,0,0,.61-4.29,11.56,11.56,0,0,0-1.69-5.65,3.25,3.25,0,0,1-.51.84c1,2.55,1.27,5.15-.07,7.6a6,6,0,0,1,1.66,1.5Z" fill="#e8bb49"/>
        <path id="Path_290" data-name="Path 290" d="M240.31,548.4c6.21-.68,12.46-1.32,18.69-1.84,7.1-.6,14.18-1.33,21.28-1.81,3.58-.24,7.15-.45,10.73-.59a37.169,37.169,0,0,1,4-.18,15.808,15.808,0,0,1-1.21-2.05h-.07c-11.87.87-23.8.35-35.68,1.53s-23.57,3.17-35.44,2.93a16.891,16.891,0,0,1,.34,4.26C228.64,549.06,234.46,549,240.31,548.4Z" fill="#998945"/>
        <path id="Path_291" data-name="Path 291" d="M187.35,526a3.17,3.17,0,0,0-1.19,2.89c.17.59.9.21,1.24,0a5.16,5.16,0,0,0,1.18-1.15c.1-.32.22-.64.35-1C188.62,526.05,188.17,525.41,187.35,526Z" fill="#e8bb49"/>
        <path id="Path_292" data-name="Path 292" d="M217.85,489c1.48-3.35,3.93-7.54,7.7-8.67a7.563,7.563,0,0,1-.45-.76c-1.08-2.08-.57-4.29-1.26-6.45l-.12.07C209,478.49,204,497.6,203.05,511.5c-.49,6.81-.11,13.57-.07,20.39,0,3-.14,6.44.89,9.33,1.23,3.45,4.66,3.32,7.67,2.7,1.68-.34,3.65-.52,3.56-2.87a34.732,34.732,0,0,0-.69-5.66c-.63-3-1.36-5.95-1.87-9a65.339,65.339,0,0,1-.21-18.89,69.06,69.06,0,0,1,5.52-18.5Zm-8.14,45.49c-3.51,2.88-6.72-3.22-4.32-6a2.8,2.8,0,0,1,4.87-.55,4.59,4.59,0,0,1-.55,6.55Z" fill="#b07f48"/>
        <path id="Path_293" data-name="Path 293" d="M207.7,556.25c-.22-.66-.42-1.32-.6-2-3.27-1.38-3.76-6.55-3.29-9.52a.37.37,0,0,1,.13-.22,3.7,3.7,0,0,1-1-1.07,17.09,17.09,0,0,0-.24,7.38C203.34,554.11,204.74,555.62,207.7,556.25Z" fill="#e8bb49"/>
        <path id="Path_294" data-name="Path 294" d="M188,536.53a5.86,5.86,0,0,1-1.49,1.36c1.31,1.53,1.32,4.84,1,6.65a9.08,9.08,0,0,1-1.42,3.79l1.14-.13A13.62,13.62,0,0,0,188,536.53Z" fill="#e8bb49"/>
        <path id="Path_295" data-name="Path 295" d="M206.13,528.92a3.89,3.89,0,0,0-.34,3.15c.5,1.5,1.79,2.55,3.21,1.34a3.33,3.33,0,0,0,.43-4.57C208.35,527.41,207.16,528,206.13,528.92Z" fill="#e8bb49"/>
        <path id="Path_296" data-name="Path 296" d="M230.72,479.83c7.09-2.28,16-3.43,23.36-2.13,2.73.49,7.51,2,7.26-3.28a18.52,18.52,0,0,0-1.1-5.66c-2.32-6.19-6.31-8.93-13-9.1a133.356,133.356,0,0,0-14.54.9c-4.29.36-9.93-1-13.82,1-.11,4.23,3.59,6.11,5.6,9.37C226.17,473.64,226.27,481.26,230.72,479.83ZM248.4,461a2,2,0,0,1,1.48.14,7.268,7.268,0,0,1,1.91.63,5,5,0,0,1,2.17,1.57c1.35,2-1.88,2.59-3.24,2.35s-3.51-1.47-3.36-3.25A1.58,1.58,0,0,1,248.4,461Zm-25.25,3.58c.21-1.78,1.58-2.43,3.09-2.44h.28l.53.05h0a1,1,0,0,1,.47.08.15.15,0,0,1,.11.09,3.93,3.93,0,0,1,2.29,1.95c1,2.08-.92,3.73-2.94,3.68-1.81.01-4.08-1.24-3.83-3.39Z" fill="#c5b664"/>
        <path id="Path_297" data-name="Path 297" d="M111.94,687.43c-5.48.4-2.94,4.61-2,6.57,1.05,2.17,1.89,4.48,3.12,6.56,3.28,5.52,8.2,10.54,15,9.15-4.23-5.42-5.06-13.55-10.06-18.88C116.46,689.22,114.4,687.24,111.94,687.43Zm3.63,8c-1.28,1.07-2.65,0-3.27-1.27-.69-1.4-1.15-3.3,0-4.55h0c.76-1,2.58.28,3.19,1.13,1.01,1.33,1.51,3.51.08,4.72Z" fill="#c5b664"/>
        <path id="Path_298" data-name="Path 298" d="M112.62,690.37a5.2,5.2,0,0,0,.45,2.77c.16.32,1,2,1.59,1.41C116.06,693.17,114.49,690.21,112.62,690.37Z" fill="#e8bb49"/>
        <path id="Path_299" data-name="Path 299" d="M107.36,687.16c-3.53-6.59-3.29-16.17-3-23.46a5.141,5.141,0,0,1-.71-.89c-1.6,9.36-9.49,22.88-1.54,29.56,2,1.67,4.94,2.83,7.27,4.44C107.86,693.72,106.06,689.43,107.36,687.16Z" fill="#b07f48"/>
        <path id="Path_300" data-name="Path 300" d="M163.11,702.08c-2.66,3.28-1.53,9.18-1,12.92.13,1,.63,2.43.79,3.77C163.85,713.22,164.77,707.52,163.11,702.08Z" fill="#707173"/>
        <path id="Path_301" data-name="Path 301" d="M167.57,683.52c-16.13.46-26.09,16.26-27.5,31,4.6,1.51,9.1,3.13,13.6,4.93a19.789,19.789,0,0,0,8.27,1.3c-1.69-2.29-1.73-7.38-1.88-9.93-.22-3.65-.35-8.34,3-10.67a.72.72,0,0,1,1,.42c2,6.62.61,13.41-.5,20.07,6.06-.58,12.25-2.93,18-4.18q6.72-1.46,13.48-2.81C192.43,699.64,184.13,683,167.57,683.52Z" fill="#b07f48"/>
        <path id="Path_302" data-name="Path 302" d="M215.91,554.43c-.8.28-1.68,1-1.61,1.8s1.36,1.66,2.15,1.93a1.229,1.229,0,0,0,.71.12c-.06,0,.06,0,.14-.11s0,.05.07-.14v-.18a1.29,1.29,0,0,0,.08-.52,3.57,3.57,0,0,0-1-2.67.93.93,0,0,0-.54-.23Z" fill="#fff"/>
        <path id="Path_303" data-name="Path 303" d="M365.45,562.11c-15.93-13.63-37.06-18.86-57.65-19.12a.818.818,0,0,1-.27-.06,6.29,6.29,0,0,1-.87,1.64,6.31,6.31,0,0,1,.51,2.57.57.57,0,0,1,0,.15c3.43,5,9.52,7.65,13.7,12a70.1,70.1,0,0,1,11.45,15.43,146.107,146.107,0,0,1,13.3,36.89,177.431,177.431,0,0,1,3.84,40c-.1,11.36-1.1,22.81-5.38,33.4,5.07-.68,10.13-1.49,15.12-2.66,8.84-2.09,19.58-5.29,24.92-13.31,7.47-11.24,7.84-26.64,6.33-39.59C387.61,605.35,385,578.82,365.45,562.11Z" fill="#c5b664"/>
        <path id="Path_304" data-name="Path 304" d="M113.75,686a12.2,12.2,0,0,1,5.16,3.19c-2.37-12.67-2.7-25.82-3.06-38.79-.76,3.08-2.19,6.15-4.95,5.46a20.22,20.22,0,0,1-1.11,6.52c1.46,7.77,2,15.62,4,23.35a.49.49,0,0,1-.04.27Z" fill="#998945"/>
        <path id="Path_305" data-name="Path 305" d="M251.87,618.85c-1.54-15-3.89-31.5-13-44-4.45-6.07-10.14-11.2-14.25-17.52-1.68-2.58-3.42-7.66-7.11-7.6-3.5,0-6.49,1.53-9.76,2.52A35.18,35.18,0,0,0,221,571.42a33.749,33.749,0,0,1,10,12.77c5.81,12.7,8.65,27,9.49,40.89,1.65,27.13,1.32,58.84-13.69,82.63,4.09-1,8.15-2,12.22-3,8.58-10.54,12.89-26.33,13.86-39.61a263.477,263.477,0,0,0-1.01-46.25Zm-33-60.09c-.88,1.93-3.11,1-4.36,0s-2.29-2.49-1.23-3.94a2.429,2.429,0,0,1,.56-.55,1.819,1.819,0,0,1,.35-.42c2.91-2.53,5.91,2.21,4.68,4.91Z" fill="#b07f48"/>
        <path id="Path_306" data-name="Path 306" d="M238.56,623.34c-1.11-14-3.46-30.94-11.39-43-3.71-5.62-9.47-8.66-13.65-13.77a33,33,0,0,1-5.4-9.23c-2.38.54-4.34-.85-5.52-2.79-22.79,2.63-49.55,6.39-67.37,22.26a54.62,54.62,0,0,0-15.14,23.24,74.86,74.86,0,0,0-3.78,19.39c-.26,3.9-.24,7.77-1.15,11.56,8.48-8.8,15.69-18.64,24.17-27.44,5.08-5.28,13.15-14.44,21.47-12.05,7.61,2.19,3,10-1,12.9-8.15,5.95-18.73,8-25.95,15.13-.24.24-.69-.08-.48-.36,4.76-6.28,12.51-8.28,19.18-11.87a32.73,32.73,0,0,0,8-5.52c2-2.11,4.76-6.15.49-8.18-2.53-1.2-5.17-.64-7.52.64-8,4.41-14.43,12.14-20.33,19s-11.14,13.53-18,19.29a30.37,30.37,0,0,1,1.38,12.89c.85,6.52,1.16,13,1.54,19.65.5,8.74,1.43,17.38,2.42,26.06A40.17,40.17,0,0,1,126,701.6c.9,2.5,1.64,5.39,3.27,7.52.1.13.23.25.34.37a.521.521,0,0,1,.17.19c2.31,2.46,6.23,3.51,9.27,4.49h0c.54-15.11,11.76-32.94,28.51-32.53s27.41,16.09,29.06,31.69c5.17-1,10.36-1.94,15.56-2.72,4.5-.67,8.91-1.59,13.3-2.6C239.12,682.1,240.83,652.18,238.56,623.34ZM168,600.85c-.21.22-.66,0-.54-.31,1.31-3.16,1.47-6.74-1.26-9.25-3.41-3.16-7.39-2.26-11.58-2.57v-.08c2.5-.33,5.56-1.43,8.09-.72a10.509,10.509,0,0,1,5.37,3.41,7.19,7.19,0,0,1-.08,9.52Z" fill="#c5b664"/>
        <path id="Path_307" data-name="Path 307" d="M180.27,549.06c-3.75-2.06-2.11-9.36.47-12.49.34-1.48.78-2.92,1.24-4.36-3.5,1.48-5.48,5-6.08,8.71a10.55,10.55,0,0,0,1.93,8.47Z" fill="#e8bb49"/>
        <path id="Path_308" data-name="Path 308" d="M347.73,648.33c-.28-13.21-1.21-26.64-4.59-39.45-3.34-12.66-7.61-26.38-14.83-37.38a61.749,61.749,0,0,0-13-14.87c-3.21-2.53-7.4-5-8.61-9.14a.38.38,0,0,1-.25-.35c-.23-4.27-7.43-7.62-7.18-1.94.17,4.12,2.93,6.72,5.68,9.42a90.411,90.411,0,0,1,12.17,15.52,110.149,110.149,0,0,1,15.49,37.35c5.24,24.73,11,55-.14,78.91,3.39-.44,6.79-.85,10.19-1.3C347,673.43,348,660.7,347.73,648.33ZM304.42,549.4c-2.31,2.15-5-3.06-2.55-4.73h.06c.8-.94,2.17.25,2.57,1.07C305.05,546.84,305.46,548.43,304.42,549.4Z" fill="#b07f48"/>
        <path id="Path_309" data-name="Path 309" d="M183.32,527.86a14.72,14.72,0,0,1,2.32-4.57c.67-.91,2.25-3.16,3.76-3.48,1.65-6.29,4.92-12.94,7.93-18.65s6.41-11.7,11.39-15.75c3.31-6.05,8-11.05,14.74-13.17h0a6.232,6.232,0,0,0-.87-1.29c-.82-.94-1.7-1.86-2.48-2.81-6.24,2.73-12.1,4.93-17.08,9.87a62.3,62.3,0,0,0-12.14,17.51,124.3,124.3,0,0,0-7.68,20.53c-1.48,5.29-2.09,11.16-3.9,16.36a6.69,6.69,0,0,1,2.91-1C182.61,530.26,183,529.07,183.32,527.86Z" fill="#966839"/>
        <path id="Path_310" data-name="Path 310" d="M104.68,591.41c-3.18,11.18-3.56,22.86-4.35,34.39,2.49-2.56,7.23-2.39,10.32,0a13.49,13.49,0,0,1,3.56,4.37c.79-11.33,1-22.51,5.34-33.25,3.45-8.44,8.41-16.3,15.61-22.06,8.51-6.8,19-11.72,29.37-14.83A187.673,187.673,0,0,1,184,555.84c5.92-1.11,11.89-2.3,17.92-2.49a8.522,8.522,0,0,1-.48-1.59,19.441,19.441,0,0,1-.34-3,.72.72,0,0,1-.21.05c-11.83.7-23.59,2.72-35.33,4.22-15.41,2-30.13,3.15-42.86,12.95C114.12,572.65,107.68,580.84,104.68,591.41Z" fill="#998945"/>
        <path id="Path_311" data-name="Path 311" d="M335.44,634.49c-2.32-17.71-5-36-13.13-52.16a116.621,116.621,0,0,0-15.7-23.68c-3-3.51-9-7.44-8.93-12.72a2.52,2.52,0,0,1-1.72-.85c-2.08.53-4.62.26-6.71.4-3,.2-6,.42-9,.68-6.5.58-13,1.19-19.52,1.73-12.36,1.05-25.48,1.41-37.65,3.92,1.35,2,2.37,4.3,3.77,6.17,2.88,3.83,6.17,7.28,9.27,10.93,10.56,12.41,14.67,27.65,16.6,43.57,2.22,18.29,3.82,37.48,1.43,55.84-1.6,12.33-5.41,26.08-13.48,36,3.63-.9,7.28-1.78,11-2.54,14.08-2.92,28.28-5.19,42.42-7.82,12.12-2.26,24.08-5.62,36.3-7.26l.65-.09C337.16,669.56,337.78,652.39,335.44,634.49Zm-27.33-40c-1.91,11.75-14.87,20.52-26.22,14.34-10.14-5.52-14.64-19.34-13.46-30.3,1-9.23,6.34-16.32,14.69-16.34a16.22,16.22,0,0,1,8.15.89c11.84,4.57,18.83,19.13,16.84,31.41Z" fill="#c5b664"/>
        <path id="Path_312" data-name="Path 312" d="M303.1,545.18a1,1,0,0,0-.83,0h0c-.88.93.26,4.42,1.49,3.21a2.07,2.07,0,0,0,.09-2.29,2.119,2.119,0,0,0-.75-.92Z" fill="#fff"/>
        <path id="Path_313" data-name="Path 313" d="M108.16,686.28a5.619,5.619,0,0,1,3.78-.63l.66.11a67,67,0,0,1-3.46-22.16,2.57,2.57,0,0,1-3.07,1.12,3.778,3.778,0,0,1-.77-.32c.53,3.4.6,6.82.88,10.26C106.52,678.64,107.44,682.41,108.16,686.28Z" fill="#e8bb49"/>
        <path id="Path_314" data-name="Path 314" d="M279.38,564.35a10.73,10.73,0,0,0-5.5,4.06c-2.92,4.2-3.8,9.51-3.51,14.55.55,9.61,5.33,23.12,16.19,25.16,14.6,2.73,21.89-11.93,18.79-24.3S292.37,561.91,279.38,564.35Z" fill="#b07f48"/>
        <path id="Path_315" data-name="Path 315" d="M106.85,663.09c3.26-1.32,2.63-10,2.5-12.65-.14-3.23-.19-7.77-1.86-10.87-.86,1.79-1.72,3.56-2.42,5.43-.4,2.61-.6,5.19-.67,5.91C104.27,652.26,103.3,664.52,106.85,663.09Z" fill="#c5b664"/>
        <path id="Path_316" data-name="Path 316" d="M120.76,564.92c.55-.42,1.11-.83,1.66-1.23a169.985,169.985,0,0,1-18.18,4.08c-7.88,1.52-17.1,3.64-15.06,13.87,1.56,7.77,3.41,15.49,5.34,23.18,1.47,5.88,4,12.25,4.94,18.41C99.67,601.5,102.32,579.07,120.76,564.92Z" fill="#c5b664"/>
        <path id="Path_317" data-name="Path 317" d="M106.2,638.61l.39-.93c.2-.5.94-.91,1.36-.36,1.49,1.91,3.08,10.59,3,17.7,4.19-.36,4.14-10.31,4-13a36.11,36.11,0,0,0-1.29-8.61.47.47,0,0,1-.16-.48c-.86-2.57-2.25-4.85-4.51-6-2.74-1.46-7.52-2-8.37,1.92a19.33,19.33,0,0,0,.29,7.83c.57,2.8,2,6.09,2.71,9.23C104.05,643.07,104.84,639.84,106.2,638.61Z" fill="#e8bb49"/>
        <path id="Path_318" data-name="Path 318" d="M388.5,598.9a65,65,0,0,0-29-44.48c-15.07-9.86-33.8-13.62-51.58-13.6a13.84,13.84,0,0,0-2.71-8.7.36.36,0,0,0-.16-.12,6.128,6.128,0,0,0-.06-1.11c-.7-4.18-3.39-8-5.18-11.77-2.29-4.82-4.32-9.77-6.41-14.68-5.71-13.38-13.85-31.65-30.6-33.25-1.09-5.16-5.08-10.77-8.61-11.91-6.39-2.06-13.31-1.19-19.84-.44a60.157,60.157,0,0,1-10,.29,8.29,8.29,0,0,0-6.19,1.81.38.38,0,0,0-.14.37c-.63,2.5.29,4.47,1.67,6.28-13.27.41-23.53,14.35-29.12,24.87a107.921,107.921,0,0,0-8,20.91c-1.81,6.28-4.11,13.48-4.48,20a13.61,13.61,0,0,0-3.53,7.15c-.39,2-.48,7.09,1.53,9.09-4.48.62-9,1.25-13.43,1.79-7.84.94-15.67,1.71-23.32,3.76A46,46,0,0,0,127,560.62c-9,2-17.94,3.86-26.9,5.82-5.75,1.26-11.56,3.81-12.79,10.12-.65,3.35.57,7.05,1.29,10.29,1,4.66,2.19,9.29,3.36,13.93,1.23,4.88,2.52,9.75,3.83,14.62,1,3.74,1.75,8,3.58,11.42a.23.23,0,0,0,.09.08v.1a6.51,6.51,0,0,0-.69,2.17c-.47,3.58.31,7.18,1.15,10.64.78,3.26,1.42,7.42,3.09,10.37-.35,2.59-1.1,7.21-.22,10.59-1.58,5.28-3.11,10.69-4.39,16-.92,3.87-2,9-.11,12.79,1.46,2.92,3.86,4.69,6.65,6.24a38.862,38.862,0,0,1,5.46,3.2l.12.26c3.29,7.22,10.06,14,18.39,11.46a13.269,13.269,0,0,0,4,2.93c5.07,2.44,10.74,3.65,16,5.68,3.8,1.48,7.32,3.37,11.48,3.49,4.45.13,8.94-1.7,13.22-2.7,5.57-1.31,11.16-2.48,16.77-3.61q2.7-.54,5.42-1a.81.81,0,0,0,.79-.14c9.08-1.6,18.22-2.8,27.24-4.62,7.15-1.43,14-4,21.1-5.62,7.88-1.81,15.86-3.21,23.83-4.6,25.19-4.4,50.12-10,75.46-13.36,14.66-1.95,33.59-4.44,42.53-17.83,6-8.93,7.1-21.59,6.89-32C393.35,624.47,390.48,611.58,388.5,598.9Zm-84.21-64.75a3.248,3.248,0,0,0,.51-.84,11.56,11.56,0,0,1,1.69,5.65,18.059,18.059,0,0,1-.61,4.29,6,6,0,0,0-1.66-1.5C305.56,539.3,305.25,536.7,304.29,534.15Zm-81.66,12.28c11.87.24,23.65-1.75,35.44-2.93s23.81-.66,35.68-1.53h.07A15.8,15.8,0,0,0,295,544a37.186,37.186,0,0,0-4,.18c-3.58.14-7.15.35-10.73.59-7.1.48-14.18,1.21-21.28,1.81-6.23.52-12.48,1.16-18.69,1.84-5.85.63-11.67.66-17.34,2.29a16.888,16.888,0,0,0-.33-4.28Zm-5.72-5.24a.669.669,0,0,0-.14-.09,10.436,10.436,0,0,0,0-1.37,11.3,11.3,0,0,1,4.14,5.16,16.66,16.66,0,0,1,.8,5.2,6,6,0,0,0-1.62-1.17c.56-2.92-1.09-5.75-3.18-7.73ZM201.6,529.12c0,2.64-.68,9.11.69,13a15,15,0,0,0-1.13,5.1.849.849,0,0,0-.23,0c-4.1.14-8.18.48-12.26.91,2.38-3.69,2.78-9.43.08-12.8a5.791,5.791,0,0,0,.32-1.14c.28-1.64,0-3.29.26-5a26.56,26.56,0,0,1,1.73-4.48c.48-1.17.87-3.22-.1-4.31a1.68,1.68,0,0,0-.8-.52c3.22-5,5.13-11.17,7.69-16.55a89.7,89.7,0,0,1,9.21-14.5,69.877,69.877,0,0,0-4.79,17.32C201.1,513.78,201.5,521.4,201.6,529.12Zm-19.79,6.69c1-2.63,2-5.29,2.73-8a13.52,13.52,0,0,1,4.57-6.52c1.93-1.4.72,2.84.22,4.37a1.65,1.65,0,0,0-1.78-.87c-1.76.28-2.7,2.29-2.65,3.92a1.68,1.68,0,0,0,2.34,1.56,3.128,3.128,0,0,0,.79-.41c-.05.35-.1.69-.13,1.06-.2,3.15-.45,5.6-4,6.45a30.528,30.528,0,0,0-3,.68l.22-.55c.23-.53.46-1.07.67-1.62A.078.078,0,0,0,181.81,535.81Zm7.12-9.08a9.016,9.016,0,0,0-.35,1,5.16,5.16,0,0,1-1.18,1.15c-.34.23-1.07.61-1.24,0a3.17,3.17,0,0,1,1.19-2.89C188.17,525.41,188.62,526.05,188.93,526.73Zm-3.26,11.64c.19,1.65.86,3.2.85,5a8.81,8.81,0,0,1-.79,3.71,13.785,13.785,0,0,1-1.07,1.48l-2.61.32c-2-2-3-3.52-2.51-6.58a14.549,14.549,0,0,1,.92-3.14A9.77,9.77,0,0,0,185.67,538.37Zm1.9,6.17c.28-1.81.27-5.12-1-6.65a5.86,5.86,0,0,0,1.49-1.36,13.62,13.62,0,0,1-.73,11.67l-1.14.13A9.08,9.08,0,0,0,187.57,544.54Zm25-18.12c.51,3,1.24,6,1.87,9a34.73,34.73,0,0,1,.69,5.66c.09,2.35-1.88,2.53-3.56,2.87-3,.62-6.44.75-7.67-2.7-1-2.89-.87-6.3-.89-9.33,0-6.82-.42-13.58.07-20.39,1-13.9,6-33,20.67-38.31l.12-.07c.69,2.16.18,4.37,1.26,6.45a7.557,7.557,0,0,0,.45.76c-3.77,1.13-6.22,5.32-7.7,8.67a69.061,69.061,0,0,0-5.52,18.53,65.34,65.34,0,0,0,.18,18.86Zm4,16a13.549,13.549,0,0,1,1.91,3.41c-4.6.21-9.19.63-13.8.87,0-.62-.06-1.23-.05-1.83,2.85,1.46,7,.83,9.85-.22a3.38,3.38,0,0,0,2.02-2.21Zm-13.57,1a3.7,3.7,0,0,0,1,1.07.37.37,0,0,0-.13.22c-.47,3,0,8.14,3.29,9.52.18.68.38,1.34.6,2-3-.63-4.36-2.14-5-5.43a17.09,17.09,0,0,1,.17-7.36Zm4.1,8a.54.54,0,0,0-.3.17h0a.54.54,0,0,0-.07.13h0a.36.36,0,0,0,0,.21,8.35,8.35,0,0,1-1.47-2.44,8.838,8.838,0,0,1-.4-1.78,40.341,40.341,0,0,0,13.88-1.42c.26.71.49,1.45.71,2.21-3.99-1.18-8.92,1.41-12.45,2.99Zm9.58-13.23c-.29-1.79-.81-3.57-1.07-4.79-1.91-9.1-3-18.2-1.42-27.46,1.43-8.59,4.57-19.72,12-25a2.36,2.36,0,0,0,1.65.68c2.27,0,4.33-.86,6.47-1.53,4-1.24,8.94-1.09,13.08-1.27a46.556,46.556,0,0,1,9.36.74c.36.05.79.1,1.24.13,4.11,2.25,5.43,7.61,6.51,12,1.86,7.68,1.31,16,1.39,23.82a.48.48,0,0,0,0,.18c-1,.5-1.25,1.23-1.24,2.54a55.385,55.385,0,0,0-.62,7.38c0,.45-.12,1.2-.2,2-4.24,2.42-5.5,9.87-2.94,13.88-12.88,1.16-25.77,3-38.56,3.57a12.28,12.28,0,0,0-5.72-6.8ZM293,531.84a13.35,13.35,0,0,0-.54,6.48,16,16,0,0,0,1.09,3,125.072,125.072,0,0,0-15.35-.7c2-3.16.78-8.91-1.86-11.39,1.35-3.44,1.39-9.91-1.27-12.42a.27.27,0,0,0,.08-.16c.84-3.75.36-7.59-.1-11.37s-.66-7.67-1.35-11.44A27.5,27.5,0,0,0,269,483c6.74,4.58,11.4,12,14.76,19.51,2,4.46,4.42,8.84,6.65,13.3C287.65,520.08,291.11,527.5,293,531.84Zm-2.13-13.61a2.85,2.85,0,0,1,.26-1.07,66.089,66.089,0,0,1,4.71,12.09,3.22,3.22,0,0,0-2.12,1.29,65.451,65.451,0,0,0-2-7.17,19.161,19.161,0,0,1-.87-5.14ZM263.8,541.35l-1.87.15c-.77-2.87-1.37-5.15-.33-8.24a18.27,18.27,0,0,1,2.12-3.65,3.8,3.8,0,0,0,.33,1.57c-1.28.76-1.59,3.24-1.71,4.41-.2,1.69.11,4.41,1.44,5.76Zm.94-9.5c2.37,1.21,7.29,1.32,9.91-.42a20.14,20.14,0,0,1,.47,4.53,13.081,13.081,0,0,1-1.35,4.79q-4.39.16-8.79.51c-1.83-3.1-1.65-6.26-.26-9.41Zm.51-12.53a.32.32,0,0,0,.14-.22c.43-2,1-2.67,3.28-2.69,2,0,5.29.31,6.35,2.21,1.36,2.42,1.73,10-.92,11.72-1.43.91-3.5,1-5.13,1-1.9,0-3.82.08-3.79-2.17.02-3.29.13-6.57.05-9.85Zm10.26,11.36A3,3,0,0,0,276,530v-.08a13.49,13.49,0,0,1,1,10.73h-2.12c2.24-2.52,1.61-7.03.61-9.97Zm-1.14-14.37a11.5,11.5,0,0,0-7.21-1c.13-9,.47-18.1-2.11-26.84-.68-2.31-2.34-7-4.9-9.06a2.422,2.422,0,0,0,.39-.21l.08-.06.14.07a24.372,24.372,0,0,1,4.56,1.61c8.24,9.63,9.33,23.18,9.03,35.49Zm19.76,22.89a13,13,0,0,1-.35-5.26c.25-1.76,1.21-2.68,2.27-3.85.2.85.37,1.7.52,2.57-1.39,2.83-.51,8.17,1.93,10h0a5.37,5.37,0,0,0-.73,1.91,8.377,8.377,0,0,1-1.38-.89,9.49,9.49,0,0,1-2.28-4.48Zm3.19-1.75a10.15,10.15,0,0,1-.19-1.17c2,0,4.62-.22,6.3-1.34a15.07,15.07,0,0,1,.15,6.45,3.94,3.94,0,0,0-4.49.56c-.5-1.54-1.42-2.88-1.79-4.5Zm2.94-14.62.1.2a8.1,8.1,0,0,1,.31.76,3,3,0,0,1-.06,1.36c-.12.44-.43,1.55-1.1,1.22a2.72,2.72,0,0,1-1.26-2.78,1.31,1.31,0,0,1,.68-1,2,2,0,0,1,1.31.24ZM263,472.23c6.29,2.25,12,4.81,16.72,9.8,4.41,4.7,7.28,10.83,9.92,16.64s5,11.88,7.63,17.77c.78,1.77,1.6,3.52,2.43,5.27a1.89,1.89,0,0,0-2.38,1.07,3.74,3.74,0,0,0,1.34,4.53c1.22.92,2.43-.11,2.89-1.26a1.29,1.29,0,0,0,.08-.28l.24.5c.92,2,3,5.59.31,7.43-1.39,1-3.48,1-5.14,1.14a6.074,6.074,0,0,1,.07-1.12c.95-5.1-1.59-10.25-3.79-14.71-3-6.13-6-12.11-8.8-18.37-4.24-9.63-11.81-20.69-23-22.21C263,476.89,263.34,474.65,263,472.23Zm-44.1-10.67c3.89-2,9.53-.64,13.82-1a133.356,133.356,0,0,1,14.54-.9c6.67.17,10.66,2.91,13,9.1a18.52,18.52,0,0,1,1.1,5.66c.25,5.28-4.53,3.77-7.26,3.28-7.38-1.3-16.27-.15-23.36,2.13-4.45,1.43-4.55-6.19-6.22-8.9C222.49,467.67,218.79,465.79,218.9,461.56Zm-35.68,54.49a124.3,124.3,0,0,1,7.68-20.53A62.3,62.3,0,0,1,203,478c5-4.94,10.84-7.14,17.08-9.87.78.95,1.66,1.87,2.48,2.81a6.23,6.23,0,0,1,.87,1.29h0c-6.72,2.12-11.43,7.12-14.74,13.17-5,4-8.44,10.15-11.39,15.75s-6.28,12.36-7.93,18.65c-1.51.32-3.09,2.57-3.76,3.48a14.721,14.721,0,0,0-2.32,4.57c-.33,1.21-.71,2.4-1.09,3.59a6.69,6.69,0,0,0-2.91,1C181.13,527.21,181.74,521.34,183.22,516.05Zm-7.32,24.87c.6-3.71,2.58-7.23,6.08-8.71-.46,1.44-.9,2.88-1.24,4.36-2.58,3.13-4.22,10.43-.47,12.49l-2.44.33a10.55,10.55,0,0,1-1.93-8.47Zm-10.3,12.15c11.74-1.5,23.5-3.52,35.33-4.22a.722.722,0,0,0,.21-.05,19.439,19.439,0,0,0,.34,3,8.523,8.523,0,0,0,.48,1.59c-6,.19-12,1.38-17.92,2.49a187.655,187.655,0,0,0-19.51,4.22c-10.41,3.11-20.86,8-29.37,14.83C128,580.65,123,588.51,119.55,597c-4.38,10.74-4.55,21.92-5.34,33.25a13.49,13.49,0,0,0-3.56-4.37c-3.09-2.42-7.83-2.59-10.32,0,.79-11.53,1.17-23.21,4.35-34.39,3-10.57,9.44-18.76,18.06-25.39,12.73-9.88,27.45-11.1,42.86-13.03ZM99.46,623.23c-1-6.16-3.47-12.53-4.94-18.41-1.93-7.69-3.78-15.41-5.34-23.18-2-10.23,7.18-12.35,15.06-13.87a169.987,169.987,0,0,0,18.18-4.08c-.55.4-1.11.81-1.66,1.23C102.32,579.07,99.67,601.5,99.46,623.23Zm1.42,13.36a19.33,19.33,0,0,1-.29-7.83c.85-3.93,5.63-3.38,8.37-1.92a10.175,10.175,0,0,1,4.51,6,.47.47,0,0,0,.16.48,36.112,36.112,0,0,1,1.29,8.61c.14,2.73.19,12.68-4,13,.11-7.11-1.48-15.79-3-17.7-.42-.55-1.16-.14-1.36.36l-.39.93c-1.36,1.23-2.15,4.46-2.61,7.21-.69-3.05-2.11-6.34-2.68-9.14Zm5.19,28.13a2.57,2.57,0,0,0,3.07-1.12,67,67,0,0,0,3.46,22.16l-.66-.11a5.62,5.62,0,0,0-3.78.63c-.72-3.87-1.64-7.64-2-11.62-.28-3.44-.35-6.86-.88-10.26a3.787,3.787,0,0,0,.79.32Zm-1.67-13.81c.07-.72.27-3.3.67-5.91.7-1.87,1.56-3.64,2.42-5.43,1.67,3.1,1.72,7.64,1.86,10.87.13,2.69.76,11.33-2.5,12.65C103.3,664.52,104.27,652.26,104.4,650.91Zm5.39,11.49a20.22,20.22,0,0,0,1.11-6.52c2.76.69,4.19-2.38,4.95-5.46.36,13,.69,26.12,3.06,38.79a12.2,12.2,0,0,0-5.16-3.19.49.49,0,0,0,0-.27c-1.94-7.75-2.5-15.58-3.96-23.35Zm-7.73,30c-8-6.68-.06-20.2,1.54-29.56a5.142,5.142,0,0,0,.71.89c-.24,7.29-.48,16.87,3,23.46-1.3,2.27.5,6.56,2,9.65-2.31-1.64-5.26-2.84-7.25-4.47Zm11,8.19c-1.23-2.08-2.07-4.39-3.12-6.56-1-2-3.5-6.17,2-6.57,2.46-.19,4.52,1.79,6,3.4,5,5.33,5.83,13.46,10.06,18.88-6.72,1.36-11.64-3.66-14.92-9.18Zm49,14.44c-.54-3.74-1.67-9.64,1-12.92,1.66,5.44.74,11.14-.2,16.69-.11-1.37-.61-2.8-.74-3.8Zm19.52,1.45c-5.79,1.25-12,3.6-18,4.18,1.11-6.66,2.45-13.45.5-20.07a.72.72,0,0,0-1-.42c-3.34,2.33-3.21,7-3,10.67.15,2.55.19,7.64,1.88,9.93a19.789,19.789,0,0,1-8.27-1.3c-4.5-1.8-9-3.42-13.6-4.93,1.41-14.73,11.37-30.53,27.5-31,16.56-.48,24.86,16.12,27.55,30.12q-6.78,1.34-13.5,2.79Zm30.55-5.83c-5.2.78-10.39,1.71-15.56,2.72-1.65-15.6-12.26-31.28-29.06-31.69s-28,17.42-28.51,32.53h0c-3-1-7-2-9.27-4.49a.52.52,0,0,0-.17-.19c-.11-.12-.24-.24-.34-.37-1.63-2.13-2.37-5-3.27-7.52a40.171,40.171,0,0,0-5.39-10.45c-1-8.68-1.92-17.32-2.42-26.06-.38-6.6-.69-13.13-1.54-19.65a30.37,30.37,0,0,0-1.38-12.89c6.83-5.76,12.14-12.53,18-19.29s12.3-14.55,20.33-19c2.35-1.28,5-1.84,7.52-.64,4.27,2,1.56,6.07-.49,8.18a32.729,32.729,0,0,1-8,5.52c-6.67,3.59-14.42,5.59-19.18,11.87-.21.28.24.6.48.36,7.22-7.17,17.8-9.18,25.95-15.13,4-2.9,8.56-10.71,1-12.9-8.32-2.39-16.39,6.77-21.47,12.05-8.48,8.8-15.69,18.64-24.17,27.44.91-3.79.89-7.66,1.15-11.56a74.86,74.86,0,0,1,3.78-19.39,54.62,54.62,0,0,1,15.14-23.24c17.82-15.87,44.58-19.63,67.37-22.26,1.18,1.94,3.14,3.33,5.52,2.79a33,33,0,0,0,5.4,9.23c4.18,5.11,9.94,8.15,13.65,13.77,7.93,12,10.28,28.93,11.39,43,2.27,28.84.56,58.76-13.07,84.68-4.42.93-8.83,1.93-13.33,2.55Zm14.66-2.91c15-23.79,15.34-55.5,13.69-82.63-.84-13.9-3.68-28.19-9.49-40.89a33.75,33.75,0,0,0-10-12.77,35.18,35.18,0,0,1-13.3-19.14c3.27-1,6.26-2.47,9.76-2.52,3.69-.06,5.43,5,7.11,7.6,4.11,6.32,9.8,11.45,14.25,17.52,9.13,12.47,11.48,29,13,44a263.479,263.479,0,0,1,1.06,46.23c-1,13.28-5.28,29.07-13.86,39.61-4.01.96-8.07,2-12.16,2.96Zm103.54-21c-12.22,1.64-24.18,5-36.3,7.26-14.14,2.63-28.34,4.9-42.42,7.82-3.69.76-7.34,1.64-11,2.54,8.07-9.89,11.88-23.64,13.48-36,2.39-18.36.79-37.55-1.43-55.84-1.93-15.92-6-31.16-16.6-43.57-3.1-3.65-6.39-7.1-9.27-10.93-1.4-1.87-2.42-4.2-3.77-6.17,12.17-2.51,25.29-2.87,37.65-3.92,6.51-.54,13-1.15,19.52-1.73,3-.26,6-.48,9-.68,2.09-.14,4.63.13,6.71-.4a2.52,2.52,0,0,0,1.72.85c0,5.28,5.9,9.21,8.93,12.72a116.617,116.617,0,0,1,15.7,23.68c8.14,16.12,10.81,34.45,13.13,52.16,2.34,17.9,1.72,35.07-4.4,52.09Zm2-.27c11.14-24,5.38-54.18.14-78.91a110.151,110.151,0,0,0-15.49-37.35,90.409,90.409,0,0,0-12.17-15.52c-2.75-2.7-5.51-5.3-5.68-9.42-.25-5.68,6.95-2.33,7.18,1.94a.38.38,0,0,0,.25.35c1.21,4.1,5.4,6.61,8.61,9.14a61.751,61.751,0,0,1,13,14.87c7.22,11,11.49,24.72,14.83,37.38,3.38,12.81,4.31,26.24,4.59,39.45.25,12.37-.75,25.1-5.11,36.77-3.26.38-6.66.83-10.05,1.23Zm51.66-17.46c-5.34,8-16.08,11.22-24.92,13.31a152.817,152.817,0,0,1-15.12,2.66c4.28-10.59,5.28-22,5.38-33.4a177.428,177.428,0,0,0-3.84-40,146.11,146.11,0,0,0-13.3-36.89,70.1,70.1,0,0,0-11.45-15.43c-4.18-4.3-10.27-7-13.7-12a.57.57,0,0,0,0-.15,6.31,6.31,0,0,0-.51-2.57,6.292,6.292,0,0,0,.87-1.64.82.82,0,0,0,.27.06c20.59.26,41.72,5.49,57.65,19.12,19.54,16.71,22.16,43.24,25,67.24,1.61,12.98,1.24,28.38-6.23,39.62Z" fill="#707173"/>
        <path id="Path_319" data-name="Path 319" d="M162.73,587.92c-2.53-.71-5.59.39-8.09.72v.08c4.19.31,8.17-.59,11.58,2.57,2.73,2.51,2.57,6.09,1.26,9.25-.12.3.33.53.54.31a7.19,7.19,0,0,0,.08-9.52,10.51,10.51,0,0,0-5.37-3.41Z" fill="#707173"/>
        <path id="Path_320" data-name="Path 320" d="M214.19,553.9a1.821,1.821,0,0,0-.35.42,2.431,2.431,0,0,0-.56.55c-1.06,1.45,0,3.06,1.23,3.94s3.48,1.88,4.36,0C220.1,556.06,217.1,551.32,214.19,553.9Zm3.25,4v.18c-.08.19,0,.11-.07.14s-.2.12-.14.11a1.23,1.23,0,0,1-.71-.12c-.79-.27-2.07-1-2.15-1.93s.81-1.52,1.61-1.8a.93.93,0,0,1,.59.23,3.57,3.57,0,0,1,1,2.67,1.29,1.29,0,0,1-.13.47Z" fill="#707173"/>
        <path id="Path_321" data-name="Path 321" d="M301.93,544.65h-.06c-2.48,1.67.24,6.88,2.55,4.73,1-1,.63-2.56.08-3.68C304.1,544.9,302.73,543.71,301.93,544.65Zm1.83,3.74c-1.23,1.21-2.37-2.28-1.49-3.21h0a1,1,0,0,1,.83,0,2.12,2.12,0,0,1,.75.92,2.07,2.07,0,0,1-.09,2.29Z" fill="#707173"/>
        <path id="Path_322" data-name="Path 322" d="M205.39,528.48c-2.4,2.79.81,8.89,4.32,6a4.59,4.59,0,0,0,.55-6.56,2.8,2.8,0,0,0-4.87.56Zm3.61,4.93c-1.42,1.21-2.71.16-3.21-1.34a3.89,3.89,0,0,1,.34-3.15c1-1,2.22-1.51,3.3-.08A3.33,3.33,0,0,1,209,533.41Z" fill="#707173"/>
        <path id="Path_323" data-name="Path 323" d="M229.94,464.34a3.93,3.93,0,0,0-2.29-1.95.15.15,0,0,0-.11-.09,2.43,2.43,0,0,1-.47-.08h0l-.53-.05h-.28c-1.51,0-2.88.66-3.09,2.44-.25,2.15,2,3.38,3.85,3.42C229,468.07,230.94,466.42,229.94,464.34Zm-5.55.39c0-.9.69-1.44,1.53-1.74a3,3,0,0,1,2.88,1.51c.77,1.38-.6,2.1-1.8,2.19A2.38,2.38,0,0,1,224.39,464.73Z" fill="#707173"/>
        <path id="Path_324" data-name="Path 324" d="M250.72,465.71c1.36.24,4.59-.34,3.24-2.35a5,5,0,0,0-2.17-1.57,7.27,7.27,0,0,0-1.91-.63,2,2,0,0,0-1.48-.14,1.58,1.58,0,0,0-1,1.44C247.21,464.24,249.24,465.45,250.72,465.71Zm-1.67-3.84c.6.16,1.23.21,1.82.41a5.93,5.93,0,0,1,1.92,1.1c.09.09.69.61.47.78a3.34,3.34,0,0,1-2.2.35,2.82,2.82,0,0,1-2.62-1.84C248.32,462.19,248.63,462,249.05,461.87Z" fill="#707173"/>
        <path id="Path_325" data-name="Path 325" d="M270.6,524.05a2.39,2.39,0,0,0,2.31-2.93,2.22,2.22,0,0,0-2.13-2c-1.16-.93-2.52.31-2.84,1.56a2.66,2.66,0,0,0,2.66,3.37Zm-1-4.1a.27.27,0,0,0,.25.13,1.61,1.61,0,0,1,1.89,1.13,1.19,1.19,0,0,1-1,1.58,1.51,1.51,0,0,1-1.78-1.68,1.38,1.38,0,0,1,.67-1.11Z" fill="#707173"/>
        <path id="Path_326" data-name="Path 326" d="M112.37,689.63h0c-1.19,1.25-.73,3.15,0,4.55.62,1.25,2,2.34,3.27,1.27,1.43-1.21.93-3.39,0-4.7C115,689.91,113.13,688.63,112.37,689.63Zm2.29,4.92c-.55.54-1.43-1.09-1.59-1.41a5.2,5.2,0,0,1-.45-2.77C114.49,690.21,116.06,693.17,114.66,694.55Z" fill="#707173"/>
        <path id="Path_327" data-name="Path 327" d="M291.27,563.08a16.22,16.22,0,0,0-8.15-.89c-8.35,0-13.71,7.11-14.69,16.34-1.18,11,3.32,24.78,13.46,30.3,11.35,6.18,24.31-2.59,26.22-14.34C310.1,582.21,303.11,567.65,291.27,563.08Zm-4.71,45c-10.86-2-15.64-15.55-16.19-25.16-.29-5,.59-10.35,3.51-14.55a10.73,10.73,0,0,1,5.5-4.06c13-2.44,22.86,7.07,26,19.47s-4.22,27.07-18.82,24.34Z" fill="#707173"/>
      </g>
      <path id="Path_328" data-name="Path 328" d="M285.75,575.64a5.32,5.32,0,0,0-2.74,2,11.471,11.471,0,0,0-1.75,7.25c.27,4.79,2.65,11.53,8.07,12.54,7.27,1.36,10.91-5.94,9.36-12.11S292.22,574.42,285.75,575.64Z" fill="#966839"/>
    </g>
  </g>
</svg>
