<svg xmlns="http://www.w3.org/2000/svg"  viewBox="0 0 359.924 297.81">
  <g id="lostManWallet" transform="translate(-83.068 -153.3)">
    <g id="Group_7" data-name="Group 7" transform="translate(234.865 153.3)" opacity="0.75">
      <path id="Path_15" data-name="Path 15" d="M201.8,262.662c-2.344,2.079-6.382,2.164-9.923-.633h0c-3.533-2.8-4.825-7.057-2.883-9.513,0,0,18.82-34.569,27.152-41.336,2.429-1.968,6.382-2.164,9.915.633h0c3.533,2.8,14.2,14.072,12.07,16.356C228.306,230.317,211.111,254.339,201.8,262.662Z" transform="translate(-136.638 -114.027)" fill="#706656"/>
      <path id="Path_16" data-name="Path 16" d="M121.933,216.52,99.272,204.27l-4.252,7.4,21.07,13.739Z" transform="translate(-74.637 -85.028)" fill="#edc093"/>
      <path id="Path_17" data-name="Path 17" d="M158.19,251.067s17.605,12.986,25.886,12.627c2.472-.111,2.635-1.4,3.884-4.739s.376-6.758-1.942-7.622l-22.49-12.772Z" transform="translate(-132.315 -118.197)" fill="#fff"/>
      <path id="Path_18" data-name="Path 18" d="M144.115,244.491c-4.277-2.883-4.106-7.451-1.429-11.395s6.844-5.749,11.121-2.866,5.689,8.324,3.011,12.267S148.358,247.374,144.115,244.491Z" transform="translate(-129.798 -116.789)" fill="#f7c899"/>
      <path id="Path_19" data-name="Path 19" d="M159.19,253.467s23.1,13.311,32.884,14.722c3.088.445,3.328-1.771,4.9-5.988s.479-8.555-2.455-9.632L166.367,238Z" transform="translate(-132.46 -118.116)" fill="#706656"/>
      <path id="Path_20" data-name="Path 20" d="M131.9,225.772a1.651,1.651,0,0,1-.248-2.3h0a1.651,1.651,0,0,1,2.233-.616l12.259,7.887a1.651,1.651,0,0,1,.248,2.3h0a1.651,1.651,0,0,1-2.233.616Z" transform="translate(-128.428 -115.897)" fill="#f7c899"/>
      <path id="Path_21" data-name="Path 21" d="M135.7,222.472a1.642,1.642,0,0,1-.257-2.3h0a1.651,1.651,0,0,1,2.233-.616l12.259,7.887a1.651,1.651,0,0,1,.257,2.31h0a1.642,1.642,0,0,1-2.233.607Z" transform="translate(-128.976 -115.42)" fill="#f7c899"/>
      <path id="Path_22" data-name="Path 22" d="M154.087,224.224c-.145-.813.6-1.625,1.651-1.805h0a1.779,1.779,0,0,1,2.173,1.146l.855,10.394a1.711,1.711,0,0,1-1.642,1.8h0a1.771,1.771,0,0,1-2.173-1.146Z" transform="translate(-131.72 -115.854)" fill="#f7c899"/>
      <path id="Path_23" data-name="Path 23" d="M130.256,230.841a1.642,1.642,0,0,1-.257-2.3h0a1.642,1.642,0,0,1,2.233-.616l12.259,7.887a1.651,1.651,0,0,1,.257,2.3h0a1.651,1.651,0,0,1-2.233.616Z" transform="translate(-128.189 -116.629)" fill="#f7c899"/>
      <path id="Path_24" data-name="Path 24" d="M128.556,235.879a1.642,1.642,0,0,1-.257-2.3h0a1.642,1.642,0,0,1,2.258-.616l12.259,7.887a1.651,1.651,0,0,1,.257,2.3h0a1.651,1.651,0,0,1-2.233.616Z" transform="translate(-127.943 -117.356)" fill="#f7c899"/>
      <path id="Path_25" data-name="Path 25" d="M288.874,262.442c2.344,2.079,6.382,2.164,9.915-.633h0c3.542-2.8,4.833-7.058,2.891-9.513,0,0-18.82-34.578-27.152-41.336-2.429-1.968-6.382-2.173-9.915.633h0c-3.533,2.8-14.2,14.072-12.07,16.348C262.372,230.1,279.533,254.118,288.874,262.442Z" transform="translate(-145.913 -113.995)" fill="#706656"/>
      <path id="Path_26" data-name="Path 26" d="M259.19,216.3l22.67-12.25,4.243,7.4-21.061,13.739Z" transform="translate(-98.367 -84.996)" fill="#edc093"/>
      <path id="Path_27" data-name="Path 27" d="M335.874,250.887s-17.605,12.986-25.886,12.627c-2.472-.111-2.635-1.4-3.884-4.748s-.376-6.758,1.942-7.622l22.49-12.763Z" transform="translate(-153.613 -118.171)" fill="#fff"/>
      <path id="Path_28" data-name="Path 28" d="M352.123,244.271c4.277-2.883,4.106-7.451,1.429-11.395s-6.844-5.749-11.121-2.866-5.689,8.324-3.011,12.259S347.88,247.154,352.123,244.271Z" transform="translate(-158.314 -116.757)" fill="#f7c899"/>
      <path id="Path_29" data-name="Path 29" d="M333.494,253.239s-23.1,13.311-32.875,14.722c-3.1.445-3.336-1.771-4.91-5.988s-.479-8.555,2.455-9.632l28.153-14.611Z" transform="translate(-152.089 -118.077)" fill="#706656"/>
      <path id="Path_30" data-name="Path 30" d="M364.651,225.551a1.66,1.66,0,0,0,.248-2.31h0a1.642,1.642,0,0,0-2.233-.607l-12.259,7.887a1.651,1.651,0,0,0-.248,2.3h0a1.651,1.651,0,0,0,2.233.616Z" transform="translate(-160.012 -115.864)" fill="#f7c899"/>
      <path id="Path_31" data-name="Path 31" d="M360.871,222.261a1.642,1.642,0,0,0,.257-2.3h0a1.642,1.642,0,0,0-2.233-.616l-12.259,7.887a1.643,1.643,0,0,0-.257,2.3h0a1.642,1.642,0,0,0,2.233.616Z" transform="translate(-159.466 -115.389)" fill="#f7c899"/>
      <path id="Path_32" data-name="Path 32" d="M344.3,224c.145-.813-.6-1.625-1.651-1.805h0a1.771,1.771,0,0,0-2.173,1.146l-.855,10.394a1.711,1.711,0,0,0,1.642,1.805h0a1.771,1.771,0,0,0,2.173-1.146Z" transform="translate(-158.54 -115.822)" fill="#f7c899"/>
      <path id="Path_33" data-name="Path 33" d="M366.312,230.621a1.651,1.651,0,0,0,.257-2.31h0a1.651,1.651,0,0,0-2.241-.607l-12.25,7.922a1.651,1.651,0,0,0-.257,2.3h0a1.651,1.651,0,0,0,2.233.616Z" transform="translate(-160.253 -116.597)" fill="#f7c899"/>
      <path id="Path_34" data-name="Path 34" d="M368.012,235.661a1.651,1.651,0,0,0,.257-2.31h0a1.642,1.642,0,0,0-2.233-.607l-12.259,7.887a1.651,1.651,0,0,0-.257,2.3h0a1.651,1.651,0,0,0,2.233.616Z" transform="translate(-160.498 -117.326)" fill="#f7c899"/>
      <path id="Path_35" data-name="Path 35" d="M242.741,330.648s3.764-3.619,8.734,0,7.365-.8,7.365-.8l-3.473-34.483H230.14Z" transform="translate(-142.715 -126.408)" fill="#332e27"/>
      <path id="Path_36" data-name="Path 36" d="M223.522,400.647h15.133s-.855-90.807,11.514-106.213c-4.628-5.133-27.879-6.844-27.879-6.844Z" transform="translate(-141.581 -125.284)" fill="#332e27"/>
      <path id="Path_37" data-name="Path 37" d="M273.258,403.908H256.936S258.254,311.45,242,287.164c5.227-5.945,31.652,0,31.652,0Z" transform="translate(-144.43 -124.841)" fill="#4d463b"/>
      <path id="Path_38" data-name="Path 38" d="M217.81,303.452l3.661-89.446c-.111-2.489,1.343-4.525,3.242-4.525h40.634c1.9,0,3.353,2.036,3.251,4.525l7.3,90.8-36.536,1.54h-1.027V304.88Z" transform="translate(-140.933 -113.994)" fill="#706656"/>
      <path id="Path_39" data-name="Path 39" d="M243.218,246.36s.051,1,.1,2.746.128,4.277.154,7.246.051,6.493,0,10.265c0,1.873,0,3.807-.06,5.774s-.068,3.961-.1,5.988-.111,3.995-.163,5.988-.145,3.9-.205,5.766c-.154,3.747-.325,7.237-.5,10.265s-.376,5.483-.488,7.229-.231,2.737-.231,2.737-.051-1-.1-2.746-.128-4.277-.154-7.246-.06-6.493,0-10.265c0-1.873,0-3.807.06-5.774s.077-3.961.111-5.988.111-3.995.171-5.988.137-3.892.205-5.766c.145-3.747.317-7.237.5-10.265s.376-5.492.488-7.229S243.218,246.36,243.218,246.36Z" transform="translate(-144.348 -119.325)" fill="#4d463b"/>
      <path id="Path_40" data-name="Path 40" d="M233.466,419.69H223.4s-14.988,11.532-26.117,11.532a7.7,7.7,0,0,0,4.277,6.159s16.493-1.933,21.814-3.028a42.51,42.51,0,0,0,6.946-1.916v1.5l5.68-.684Z" transform="translate(-137.966 -144.379)" fill="#26231d"/>
      <path id="Path_41" data-name="Path 41" d="M262.123,424.08h10.668s14.62,11.976,26.408,11.976a6.048,6.048,0,0,1-3.234,6.767s-15.706-1.429-20.839-2.489a42.422,42.422,0,0,1-8.4-2.772l-.351,1.711-6.955-.855Z" transform="translate(-146.948 -145.013)" fill="#332e27"/>
      <path id="Path_42" data-name="Path 42" d="M185.679,208.049,197.937,176.5H179.22Z" transform="translate(-86.808 -81.014)" fill="#ebebeb"/>
      <path id="Path_43" data-name="Path 43" d="M243.011,242.8l3.781-9.718a74.845,74.845,0,0,0-2.652-11.369h-2.113A39.624,39.624,0,0,0,240,228.066Z" transform="translate(-144.141 -115.762)" fill="#b24343"/>
      <path id="Path_44" data-name="Path 44" d="M246.938,218.9a3.5,3.5,0,1,1-3.5-3.49,3.5,3.5,0,0,1,3.5,3.49Z" transform="translate(-144.132 -114.851)" fill="#e65e71"/>
      <path id="Path_45" data-name="Path 45" d="M255.782,209.48l6.895,10.659-6.895,1.762,4.277,5.8s-7,8.777-16.519,13.328Z" transform="translate(-144.652 -113.994)" fill="#4d463b"/>
      <path id="Path_46" data-name="Path 46" d="M234.936,209.48l-6.3,10.659,4.637,2-2.566,4.782s4.226,8.666,10.659,14.106Z" transform="translate(-142.499 -113.994)" fill="#4d463b"/>
      <path id="Path_47" data-name="Path 47" d="M252.982,203.032c-.154,3.944-5.347,7.819-9.307,7.819h0c-3.969,0-5.2-3.875-5.047-7.819l1.172-28.709a7.511,7.511,0,0,1,7.46-7.143h0a6.844,6.844,0,0,1,6.895,7.143Z" transform="translate(-143.94 -107.88)" fill="#f7c899"/>
      <path id="Path_48" data-name="Path 48" d="M253.259,196.526l.958-23.953a6.844,6.844,0,0,0-6.895-7.143,7.528,7.528,0,0,0-7.468,7.143l-1.1,27.76A38.889,38.889,0,0,0,253.259,196.526Z" transform="translate(-143.96 -107.627)" fill="#d9aa7c"/>
      <g id="Group_6" data-name="Group 6" transform="translate(66.632 0)">
        <g id="Group_2" data-name="Group 2" transform="translate(60.718 46.337)">
          <path id="Path_49" data-name="Path 49" d="M292.029,158.719c-.257,5.312-5.595,15.3-10.881,13.277-3.927-1.5-4.56-8.7-4.277-14.021s3.713-6.125,7.9-5.92S292.285,153.4,292.029,158.719Z" transform="translate(-276.812 -152.027)" fill="#f7c899"/>
          <path id="Path_50" data-name="Path 50" d="M290.889,159.427c-.214,4.363-4.791,9.513-8.229,9.342s-4.448-5.586-4.235-9.949,3.054-5.03,6.476-4.825S291.086,155.064,290.889,159.427Z" transform="translate(-277.041 -152.307)" fill="#edc093"/>
          <path id="Path_51" data-name="Path 51" d="M283.981,154.253c3.422.171,6.185,1.215,5.945,6.176a12.832,12.832,0,0,1-2.036,5.937,11.369,11.369,0,0,0,3.422-6.946c.205-4.363-2.566-5.3-5.988-5.466a9.624,9.624,0,0,0-3.7.385A11.531,11.531,0,0,1,283.981,154.253Z" transform="translate(-277.507 -152.3)" fill="#d9aa7c"/>
          <path id="Path_52" data-name="Path 52" d="M284.807,161.982c.3.907-.719,2.062-2.276,2.566s-3.071.214-3.37-.684.71-2.062,2.276-2.566S284.508,161.076,284.807,161.982Z" transform="translate(-277.144 -153.331)" fill="#f7c899"/>
        </g>
        <g id="Group_3" data-name="Group 3" transform="translate(3.185 43.523)">
          <path id="Path_53" data-name="Path 53" d="M209.568,154.685c-.257,5.321,4.081,15.783,9.538,14.278,4.055-1.112,5.389-8.212,5.646-13.533s-3.1-6.459-7.288-6.664S209.825,149.373,209.568,154.685Z" transform="translate(-209.557 -148.737)" fill="#f7c899"/>
          <path id="Path_54" data-name="Path 54" d="M211.129,155.525c-.214,4.371,3.832,9.932,7.28,10.1s4.97-5.133,5.184-9.5-2.566-5.3-5.988-5.466S211.342,151.162,211.129,155.525Z" transform="translate(-209.783 -149.012)" fill="#edc093"/>
          <path id="Path_55" data-name="Path 55" d="M218.957,151.1c-3.422-.171-6.27.607-6.519,5.569a12.968,12.968,0,0,0,1.446,6.108,11.369,11.369,0,0,1-2.755-7.254c.214-4.363,3.045-5.022,6.484-4.859a9.8,9.8,0,0,1,3.653.744,12.055,12.055,0,0,0-2.31-.308Z" transform="translate(-209.785 -149.013)" fill="#d9aa7c"/>
          <path id="Path_56" data-name="Path 56" d="M218.124,158.709c-.394.855.513,2.113,2.01,2.789s3.037.513,3.422-.351-.513-2.122-2.019-2.8S218.518,157.836,218.124,158.709Z" transform="translate(-210.782 -150.066)" fill="#f7c899"/>
        </g>
        <path id="Path_57" data-name="Path 57" d="M214.636,111.44c-7.887,21.617,2.378,40.326,2.378,40.326s-.334-24.295,8.7-30.685Z" transform="translate(-206.676 -99.823)" fill="#4a2b17"/>
        <path id="Path_58" data-name="Path 58" d="M271.327,155.385h0a176.908,176.908,0,0,1-1.531-22.541c0-7.434-3.858-18.623-25-19.675s-26.262,9.727-26.784,17.109c-.633,8.991-3.721,22.242-3.721,22.242h0a37.46,37.46,0,0,0-2.429,9.307c-1.317,13.585,11.762,25.724,29.257,26.579s31.652-9.949,31.712-23.6a37.475,37.475,0,0,0-1.506-9.419Z" transform="translate(-206.693 -100.062)" fill="#f7c899"/>
        <path id="Path_59" data-name="Path 59" d="M272.7,117.2c5.252,25.39-3.063,34.962-3.063,34.962s-4.183-25.972-8.674-31.275c0,0-29.5,17.811-50.1,2.635,0,0-16.9-12.387,11.266-25.664,5.415,6.407,15.988,7.956,24.56,7.511C265.713,104.4,272.111,108.639,272.7,117.2Z" transform="translate(-205.834 -97.86)" fill="#6b3e21"/>
        <path id="Path_60" data-name="Path 60" d="M241.5,161.34s-4.585,7.058-10.873,6.7c0,0,2.147,8.1,10.214,6.638,0,0-6.082-2.173-7.143-4.979a9.932,9.932,0,0,0,7.8-8.358Z" transform="translate(-209.419 -107.036)" fill="#d9aa7c"/>
        <path id="Path_61" data-name="Path 61" d="M269.953,145.1a10.385,10.385,0,0,1-2.712.376h-1.335a13.319,13.319,0,0,1-1.48-.171c-.513-.077-1.035-.205-1.574-.334a11.7,11.7,0,0,1-1.574-.522,12.827,12.827,0,0,1-1.506-.719,10.033,10.033,0,0,1-1.369-.855c-.214-.154-.428-.3-.624-.462s-.368-.342-.539-.5a6.24,6.24,0,0,1-.932-.984c-.257-.325-.488-.624-.684-.9a5.485,5.485,0,0,1-.419-.77c-.222-.428-.325-.676-.325-.676s.222.163.59.462c.18.154.4.325.642.539s.565.394.855.633.676.445,1.035.693.778.462,1.189.693a12.615,12.615,0,0,0,1.317.659c.436.231.924.4,1.386.607s.958.351,1.429.53a12.863,12.863,0,0,0,1.411.453c.47.12.915.265,1.352.376l1.232.308Z" transform="translate(-212.924 -103.746)" fill="#6b3e21"/>
        <path id="Path_62" data-name="Path 62" d="M223.08,144.34l2.25-.624,1.069-.3,1.163-.351c.4-.1.8-.274,1.223-.394a11.208,11.208,0,0,0,1.24-.453c.385-.163.855-.308,1.215-.5s.787-.334,1.146-.539.727-.359,1.044-.565.659-.359.924-.565.539-.359.778-.513l.573-.445c.325-.24.539-.376.539-.376l-.274.6c-.1.18-.214.419-.368.676a7.877,7.877,0,0,1-.59.8,6.938,6.938,0,0,1-.855.855,7.084,7.084,0,0,1-1.027.855,8.145,8.145,0,0,1-1.206.744,13.2,13.2,0,0,1-1.317.607,14.011,14.011,0,0,1-2.746.719,13.259,13.259,0,0,1-2.447.154,8.717,8.717,0,0,1-2.335-.385Z" transform="translate(-208.327 -103.766)" fill="#6b3e21"/>
        <g id="Group_4" data-name="Group 4" transform="translate(14.362 41.353)">
          <path id="Path_63" data-name="Path 63" d="M229.578,157.978a53.093,53.093,0,0,0,6.946-.445c.171-4.782-2.635-10.265-6.416-10.454s-7.117,5-7.408,9.778A52.935,52.935,0,0,0,229.578,157.978Z" transform="translate(-222.635 -146.326)" fill="#fff"/>
          <path id="Path_64" data-name="Path 64" d="M231.155,151.56a1.762,1.762,0,0,0-1.506,1.138l.855,1.429-1.155-.59a5.269,5.269,0,0,0-.171,1.069c-.086,1.711.676,3.174,1.711,3.225s1.916-1.317,2-3.045S232.173,151.611,231.155,151.56Z" transform="translate(-223.57 -146.975)" fill="#6b3e21"/>
          <path id="Path_65" data-name="Path 65" d="M236.513,157.406l-.043-.3a5.342,5.342,0,0,0-.145-.855c-.077-.368-.163-.778-.3-1.266a14.663,14.663,0,0,0-.522-1.574,13.918,13.918,0,0,0-.855-1.762,11.4,11.4,0,0,0-1.172-1.754,6.467,6.467,0,0,0-1.574-1.446,3.653,3.653,0,0,0-1.891-.659h-.556a2.934,2.934,0,0,0-.445.086,3.626,3.626,0,0,0-.95.368,6.7,6.7,0,0,0-1.711,1.283,11.34,11.34,0,0,0-1.343,1.634,16.447,16.447,0,0,0-.975,1.711c-.274.539-.5,1.061-.676,1.523a12.419,12.419,0,0,0-.419,1.232c-.1.376-.171.624-.222.855l-.077.291v-.3a6.482,6.482,0,0,1,0-.855,9.338,9.338,0,0,1,.12-1.343,9.957,9.957,0,0,1,.394-1.711,10.478,10.478,0,0,1,.8-1.959,9.41,9.41,0,0,1,1.326-2,7.16,7.16,0,0,1,2.027-1.711,5.817,5.817,0,0,1,1.352-.556,6.976,6.976,0,0,1,.77-.137h.7a5.406,5.406,0,0,1,2.729,1,7.254,7.254,0,0,1,1.856,1.908,9.966,9.966,0,0,1,1.121,2.122,12.464,12.464,0,0,1,.855,3.773,11.735,11.735,0,0,1,0,1.36,6.075,6.075,0,0,1-.111.855A.769.769,0,0,0,236.513,157.406Z" transform="translate(-222.623 -146.2)" fill="#402b28"/>
        </g>
        <g id="Group_5" data-name="Group 5" transform="translate(38.843 41.464)">
          <path id="Path_66" data-name="Path 66" d="M259.7,160.411a56.871,56.871,0,0,0,8.555-.676c.214-5.877-3.259-12.276-7.9-12.507s-8.717,5.809-9.076,11.677a57.172,57.172,0,0,0,8.426,1.506Z" transform="translate(-251.245 -146.459)" fill="#fff"/>
          <path id="Path_67" data-name="Path 67" d="M260.827,153a2.006,2.006,0,0,0-1.668,1.317l1.215,1.916-1.591-.744a4.511,4.511,0,0,0-.094.778c-.094,1.856.719,3.422,1.814,3.422s2.053-1.411,2.147-3.268S261.922,153.06,260.827,153Z" transform="translate(-252.316 -147.294)" fill="#6b3e21"/>
          <path id="Path_68" data-name="Path 68" d="M268.238,159.607l-.051-.359a5.955,5.955,0,0,0-.145-1.018c-.086-.428-.18-.95-.325-1.54-.068-.291-.171-.6-.265-.915s-.214-.659-.342-1a17.45,17.45,0,0,0-.984-2.147,12.94,12.94,0,0,0-1.446-2.122,7.7,7.7,0,0,0-1.976-1.711,2.633,2.633,0,0,0-.565-.317,3.047,3.047,0,0,0-.6-.248,4.09,4.09,0,0,1-.616-.163h-1.317a4.94,4.94,0,0,0-.59.1,2.8,2.8,0,0,0-.6.18,2.874,2.874,0,0,0-.6.257,7.948,7.948,0,0,0-2.139,1.548,13.008,13.008,0,0,0-1.643,1.968,15.912,15.912,0,0,0-1.181,2.036c-.171.334-.317.65-.445.967a9.089,9.089,0,0,0-.351.855c-.214.565-.359,1.078-.479,1.5s-.188.77-.248,1l-.077.351v-.359a8.316,8.316,0,0,1,0-1.044,11.646,11.646,0,0,1,.18-1.608,12.267,12.267,0,0,1,.513-2.062,13.336,13.336,0,0,1,1-2.327,11.3,11.3,0,0,1,1.651-2.352,8.486,8.486,0,0,1,2.472-1.976,4.415,4.415,0,0,1,.761-.351,5.552,5.552,0,0,1,.855-.265c.3-.051.633-.137.856-.154H260.8l.436.068a7.7,7.7,0,0,1,.855.24,4.85,4.85,0,0,1,.778.334,4.03,4.03,0,0,1,.727.419,8.453,8.453,0,0,1,2.267,2.207,11.361,11.361,0,0,1,1.411,2.506,14.637,14.637,0,0,1,1.086,4.508,11.921,11.921,0,0,1,0,1.634,9.284,9.284,0,0,1-.1,1.027C268.255,159.478,268.238,159.607,268.238,159.607Z" transform="translate(-251.241 -146.33)" fill="#402b28"/>
        </g>
        <path id="Path_69" data-name="Path 69" d="M230.14,185.881a47.305,47.305,0,0,1,4.773-2.07c1.454-.556,3.174-1.146,5.039-1.711s3.875-1.086,5.92-1.514a45.153,45.153,0,0,1,6.117-.855,18.946,18.946,0,0,1,2.96,0A7.89,7.89,0,0,1,256.4,180a5.543,5.543,0,0,1,.736.274,3.741,3.741,0,0,1,.411.231l.231.18a6.844,6.844,0,0,1,.941.855,4.544,4.544,0,0,1,.642,1.027,2.951,2.951,0,0,1,.163,1.933,2.567,2.567,0,0,1-.53,1.035,1.573,1.573,0,0,1-.274.274,2.327,2.327,0,0,0,.077-.368,2.994,2.994,0,0,0,0-.984,2.3,2.3,0,0,0-.6-1.172,3.424,3.424,0,0,0-.625-.5,6.247,6.247,0,0,0-.855-.453l-.265-.128h-.12a2.053,2.053,0,0,0-.436-.094,6.844,6.844,0,0,0-1.095-.094,23.957,23.957,0,0,0-2.609.154c-1.848.205-3.841.539-5.843.907l-5.894,1.1c-1.891.342-3.661.676-5.184.932C232.219,185.633,230.14,185.881,230.14,185.881Z" transform="translate(-209.348 -109.686)" fill="#d9aa7c"/>
      </g>
      <path id="Path_70" data-name="Path 70" d="M186.77,183.519l10.257-9.829,2.986,2.4-7.9,11.129Z" transform="translate(-87.899 -80.608)" fill="#fff"/>
      <path id="Path_71" data-name="Path 71" d="M185.439,183.519l-4.1-9.829-3.781,2.4,3.388,10.873Z" transform="translate(-86.568 -80.608)" fill="#fff"/>
      <path id="Path_72" data-name="Path 72" d="M268.194,288.3l12.96,2.241-.462-5.432-11.6-2.01a2.643,2.643,0,1,0-.9,5.2Z" transform="translate(-147.877 -124.625)" fill="#4d463b"/>
      <path id="Path_73" data-name="Path 73" d="M224.1,289.288a2.643,2.643,0,1,0-.676-5.235l-4.423.565-.24,5.355Z" transform="translate(-141.071 -124.767)" fill="#4d463b"/>
    </g>
    <g id="wallet" transform="translate(83.068 276.02)" opacity="0.75">
      <path id="Path_74" data-name="Path 74" d="M240.329,589.454c3.129-1.243,4.845-2.589,4.845-4,0-6.284-34.153-11.378-76.282-11.378S92.61,579.173,92.61,585.458s34.153,11.378,76.282,11.378c7.493,0,14.733-.162,21.574-.463a5.4,5.4,0,0,0-2.074,3.9c0,6.526,16.59,11.815,37.055,11.815S262.5,606.8,262.5,600.275C262.5,595.448,253.381,591.282,240.329,589.454Z" transform="translate(-92.61 -462.649)" fill="#231f20" opacity="0.1"/>
      <g id="Group_8" data-name="Group 8" transform="translate(21.443 18.114)">
        <path id="Path_75" data-name="Path 75" d="M207.264,246a23.8,23.8,0,1,1,18.712-27.973A23.8,23.8,0,0,1,207.264,246Z" transform="translate(-178.831 -198.851)" fill="#f7c400"/>
        <path id="Path_76" data-name="Path 76" d="M197.517,240.166a19.241,19.241,0,1,1,22.619,15.128A19.241,19.241,0,0,1,197.517,240.166Zm34.767-6.9a16.2,16.2,0,1,0-12.741,19.047A16.2,16.2,0,0,0,232.284,233.267Z" transform="translate(-192.591 -212.618)" fill="#d19e00"/>
        <path id="Path_77" data-name="Path 77" d="M228.715,261.487a16.2,16.2,0,1,1,12.741-19.047A16.2,16.2,0,0,1,228.715,261.487Z" transform="translate(-201.762 -221.791)" fill="#f7f7f7" opacity="0.2"/>
        <path id="Path_78" data-name="Path 78" d="M244.163,277.412l-.967-4.879.808-.159a5.264,5.264,0,0,0,1.659-.5.719.719,0,0,0,.249-.8.759.759,0,0,0-.477-.6,1.957,1.957,0,0,0-1.077-.02,2.275,2.275,0,0,0-1.515.778,18.974,18.974,0,0,0-1.266,2.984,20.065,20.065,0,0,1-1.216,2.877,4.762,4.762,0,0,1-1.465,1.477,7.13,7.13,0,0,1-2.631.995,6.27,6.27,0,0,1-4.342-.443,5.841,5.841,0,0,1-2.579-3.4l-1.835.363-.448-2.238,1.9-.375a5.969,5.969,0,0,1,.823-3.723q1.02-1.723,4.28-2.37l.955-.189.982,4.877-1.2.249a10.972,10.972,0,0,0-2.415.634.7.7,0,0,0-.333.826.87.87,0,0,0,.48.671,1.711,1.711,0,0,0,1.032.047,8.707,8.707,0,0,0,2.3-.7,3.524,3.524,0,0,0,1.229-1.875,34.789,34.789,0,0,1,1.457-3.447,5.55,5.55,0,0,1,1.577-1.756,6.171,6.171,0,0,1,2.581-1.119,4.731,4.731,0,0,1,3.676.557,6.2,6.2,0,0,1,2.271,3.41l1.557-.311.448,2.238-1.559.308a5.406,5.406,0,0,1-.846,3.681,4.982,4.982,0,0,1-3.168,1.806C244.889,277.318,244.58,277.362,244.163,277.412Z" transform="translate(-215.066 -248.9)" fill="#d19e00"/>
      </g>
      <g id="Group_9" data-name="Group 9" transform="translate(44.359 2.98)">
        <path id="Path_79" data-name="Path 79" d="M287.645,184.5A23.793,23.793,0,1,1,305.8,182.9,23.8,23.8,0,0,1,287.645,184.5Z" transform="translate(-270.977 -137.997)" fill="#fcc902"/>
        <path id="Path_80" data-name="Path 80" d="M290.193,169.8a19.241,19.241,0,1,1,12.6,24.123A19.241,19.241,0,0,1,290.193,169.8Zm33.822,10.609A16.2,16.2,0,1,0,303.7,191.015a16.2,16.2,0,0,0,20.311-10.609Z" transform="translate(-284.751 -151.758)" fill="#d6a300"/>
        <path id="Path_81" data-name="Path 81" d="M312.875,200.187a16.2,16.2,0,1,1,20.311-10.609A16.2,16.2,0,0,1,312.875,200.187Z" transform="translate(-293.924 -160.93)" fill="#fcfcfc" opacity="0.2"/>
        <path id="Path_82" data-name="Path 82" d="M334.084,217.815l1.492-4.745.788.249a5.525,5.525,0,0,0,1.7.351.716.716,0,0,0,.609-.582.764.764,0,0,0-.132-.759,1.954,1.954,0,0,0-.935-.532,2.271,2.271,0,0,0-1.7-.042,18.492,18.492,0,0,0-2.542,2.014,20.2,20.2,0,0,1-2.447,1.942,4.74,4.74,0,0,1-1.99.594,7.165,7.165,0,0,1-2.79-.378,6.278,6.278,0,0,1-3.6-2.472,5.876,5.876,0,0,1-.637-4.228l-1.786-.56.686-2.186,1.843.579a5.984,5.984,0,0,1,2.507-2.867q1.721-1.017,4.892-.025l.928.291-1.492,4.745-1.164-.366a11.35,11.35,0,0,0-2.425-.6.694.694,0,0,0-.686.567.865.865,0,0,0,.1.818,1.718,1.718,0,0,0,.885.535,8.945,8.945,0,0,0,2.355.5,3.458,3.458,0,0,0,1.975-1.057,34,34,0,0,1,2.932-2.325,5.523,5.523,0,0,1,2.226-.786,6.168,6.168,0,0,1,2.81.249,4.741,4.741,0,0,1,2.959,2.238,6.171,6.171,0,0,1,.358,4.079l1.514.475-.684,2.186-1.517-.475a5.449,5.449,0,0,1-2.5,2.828,4.9,4.9,0,0,1-3.638.057A6.063,6.063,0,0,1,334.084,217.815Z" transform="translate(-307.891 -187.345)" fill="#d6a300"/>
      </g>
      <g id="Group_10" data-name="Group 10" transform="translate(70.288 0)">
        <path id="Path_83" data-name="Path 83" d="M425.167,165.265A26.57,26.57,0,1,1,414.5,129.245,26.57,26.57,0,0,1,425.167,165.265Z" transform="translate(-375.238 -126.015)" fill="#ffcc05"/>
        <path id="Path_84" data-name="Path 84" d="M406.934,186.8a21.482,21.482,0,1,1,29.132-8.62A21.482,21.482,0,0,1,406.934,186.8Zm18.9-34.772a13.338,13.338,0,1,1-.007,0Z" transform="translate(-390.614 -141.356)" fill="#d9a600"/>
        <path id="Path_85" data-name="Path 85" d="M443.324,186.8a18.09,18.09,0,1,1-7.257-24.534A18.09,18.09,0,0,1,443.324,186.8Z" transform="translate(-400.856 -151.601)" fill="#fff" opacity="0.2"/>
        <path id="Path_86" data-name="Path 86" d="M462.065,194.755l-4.879-2.651.44-.808a5.978,5.978,0,0,0,.746-1.783.8.8,0,0,0-.5-.793.848.848,0,0,0-.858-.02,2.181,2.181,0,0,0-.783.913,2.54,2.54,0,0,0-.415,1.855,21.042,21.042,0,0,0,1.661,3.218,22.6,22.6,0,0,1,1.6,3.1,5.314,5.314,0,0,1,.221,2.313,7.986,7.986,0,0,1-1.015,2.984,6.981,6.981,0,0,1-3.482,3.412,6.569,6.569,0,0,1-4.765-.211l-.995,1.835L446.81,206.9l1.03-1.9a6.658,6.658,0,0,1-2.6-3.36q-.746-2.106,1.022-5.367l.517-.955,4.859,2.654-.657,1.184a12.991,12.991,0,0,0-1.179,2.529.771.771,0,0,0,.473.873.977.977,0,0,0,.918.07,1.91,1.91,0,0,0,.776-.853,9.462,9.462,0,0,0,1.047-2.487,3.959,3.959,0,0,0-.734-2.395,38.548,38.548,0,0,1-1.917-3.708,6.185,6.185,0,0,1-.378-2.6,6.9,6.9,0,0,1,.885-3.024,5.287,5.287,0,0,1,3.1-2.758,6.926,6.926,0,0,1,4.551.482l.846-1.559,2.238,1.221-.846,1.557a6.073,6.073,0,0,1,2.559,3.355,5.488,5.488,0,0,1-.719,4A10.294,10.294,0,0,1,462.065,194.755Z" transform="translate(-427.666 -169.377)" fill="#d9a600"/>
      </g>
      <rect id="Rectangle_1" data-name="Rectangle 1" width="115.222" height="88.726" rx="37.16" transform="translate(14.984 34.801)" fill="#423539"/>
      <g id="Group_11" data-name="Group 11" transform="translate(14.979 34.783)" opacity="0.05">
        <path id="Path_87" data-name="Path 87" d="M268.067,275.139a9.25,9.25,0,0,0-8.747-9.259l-97.239.03a9.269,9.269,0,0,0-9.241,9.241v.995H268.067Z" transform="translate(-152.84 -265.88)" fill="#fff"/>
        <path id="Path_88" data-name="Path 88" d="M152.86,580.09v1.358a9.269,9.269,0,0,0,9.237,9.244h96.742a9.271,9.271,0,0,0,9.244-9.244V580.09Z" transform="translate(-152.855 -501.948)" fill="#fff"/>
      </g>
      <g id="Group_12" data-name="Group 12" transform="translate(6.59 64.286)">
        <path id="Path_89" data-name="Path 89" d="M152.84,403.916h41.089v-10.97a8.438,8.438,0,0,0-8.438-8.436H152.84Z" transform="translate(-144.452 -384.51)" fill="#362b2f"/>
        <rect id="Rectangle_2" data-name="Rectangle 2" width="49.602" height="24.25" rx="12.125" transform="translate(0 2.41)" fill="#4d3e43"/>
        <circle id="Ellipse_1" data-name="Ellipse 1" cx="8.819" cy="8.819" r="8.819" transform="translate(25.794 5.514) rotate(-0.68)" fill="#ffcc05"/>
      </g>
      <g id="Group_13" data-name="Group 13" transform="translate(14.979 44.264)" opacity="0.5">
        <path id="Path_90" data-name="Path 90" d="M475.128,304.117a.38.38,0,0,0-.276-.117h-3.979a.373.373,0,0,0-.373.373.4.4,0,0,0,.385.383h3.979a.376.376,0,0,0,.376-.373A.366.366,0,0,0,475.128,304.117Z" transform="translate(-391.5 -304)" fill="#fff"/>
        <path id="Path_91" data-name="Path 91" d="M410.852,304.07h-3.979a.373.373,0,0,0,0,.746h3.979a.373.373,0,1,0,0-.746Z" transform="translate(-343.416 -304.053)" fill="#fff"/>
        <path id="Path_92" data-name="Path 92" d="M442.922,304.07h-3.979a.373.373,0,1,0,0,.746h3.979a.373.373,0,1,0,0-.746Z" transform="translate(-367.511 -304.053)" fill="#fff"/>
        <path id="Path_93" data-name="Path 93" d="M314.852,304.07h-3.979a.373.373,0,0,0,0,.746h3.979a.373.373,0,0,0,0-.746Z" transform="translate(-271.291 -304.053)" fill="#fff"/>
        <path id="Path_94" data-name="Path 94" d="M378.852,304.07h-3.979a.373.373,0,0,0,0,.746h3.979a.373.373,0,0,0,0-.746Z" transform="translate(-319.375 -304.053)" fill="#fff"/>
        <path id="Path_95" data-name="Path 95" d="M156.588,304.07H152.84v.746h3.748a.373.373,0,0,0,0-.746Z" transform="translate(-152.84 -304.053)" fill="#fff"/>
        <path id="Path_96" data-name="Path 96" d="M186.7,304.07h-3.979a.373.373,0,0,0,0,.746H186.7a.373.373,0,1,0,0-.746Z" transform="translate(-175.011 -304.053)" fill="#fff"/>
        <path id="Path_97" data-name="Path 97" d="M282.782,304.07H278.8a.373.373,0,1,0,0,.746h3.979a.373.373,0,1,0,0-.746Z" transform="translate(-247.197 -304.053)" fill="#fff"/>
        <path id="Path_98" data-name="Path 98" d="M218.732,304.07h-3.979a.373.373,0,0,0,0,.746h3.979a.373.373,0,0,0,0-.746Z" transform="translate(-199.075 -304.053)" fill="#fff"/>
        <path id="Path_99" data-name="Path 99" d="M250.752,304.07h-3.979a.373.373,0,1,0,0,.746h3.979a.373.373,0,1,0,0-.746Z" transform="translate(-223.132 -304.053)" fill="#fff"/>
        <path id="Path_100" data-name="Path 100" d="M346.852,304.07h-3.979a.373.373,0,0,0,0,.746h3.979a.373.373,0,1,0,0-.746Z" transform="translate(-295.333 -304.053)" fill="#fff"/>
        <path id="Path_101" data-name="Path 101" d="M538.952,304h-3.979a.373.373,0,1,0,0,.746h3.979a.373.373,0,0,0,0-.746Z" transform="translate(-439.659 -304)" fill="#fff"/>
        <path id="Path_102" data-name="Path 102" d="M506.922,304h-3.979a.373.373,0,0,0,0,.746h3.979a.373.373,0,1,0,0-.746Z" transform="translate(-415.594 -304)" fill="#fff"/>
        <path id="Path_103" data-name="Path 103" d="M570.982,304H567a.373.373,0,1,0,0,.746h3.979a.373.373,0,1,0,0-.746Z" transform="translate(-463.723 -304)" fill="#fff"/>
        <path id="Path_104" data-name="Path 104" d="M603,304h-3.979a.373.373,0,0,0,0,.746H603Z" transform="translate(-487.78 -304)" fill="#fff"/>
      </g>
      <g id="Group_14" data-name="Group 14" transform="translate(14.976 112.903)" opacity="0.5">
        <path id="Path_105" data-name="Path 105" d="M313.43,580H309.5a.373.373,0,1,0,0,.746h3.927a.373.373,0,1,0,0-.746Z" transform="translate(-270.259 -580)" fill="#fff"/>
        <path id="Path_106" data-name="Path 106" d="M376.557,580h-3.924a.373.373,0,1,0,0,.746h3.924a.373.373,0,1,0,0-.746Z" transform="translate(-317.689 -580)" fill="#fff"/>
        <path id="Path_107" data-name="Path 107" d="M156.754,580H152.83v.746h3.924a.373.373,0,1,0,0-.746Z" transform="translate(-152.83 -580)" fill="#fff"/>
        <path id="Path_108" data-name="Path 108" d="M187.187,580h-3.924a.373.373,0,1,0,0,.746h3.924a.373.373,0,1,0,0-.746Z" transform="translate(-175.414 -580)" fill="#fff"/>
        <path id="Path_109" data-name="Path 109" d="M281.867,580h-3.924a.373.373,0,1,0,0,.746h3.924a.373.373,0,1,0,0-.746Z" transform="translate(-246.548 -580)" fill="#fff"/>
        <path id="Path_110" data-name="Path 110" d="M218.785,580h-3.912a.373.373,0,1,0,0,.746H218.8a.373.373,0,1,0,0-.746Z" transform="translate(-199.163 -580)" fill="#fff"/>
        <path id="Path_111" data-name="Path 111" d="M250.307,580h-3.924a.373.373,0,1,0,0,.746h3.924a.373.373,0,1,0,0-.746Z" transform="translate(-222.837 -580)" fill="#fff"/>
        <path id="Path_112" data-name="Path 112" d="M345,580h-3.929a.373.373,0,1,0,0,.746H345a.373.373,0,1,0,0-.746Z" transform="translate(-293.978 -580)" fill="#fff"/>
      </g>
      <g id="Group_24" data-name="Group 24" transform="translate(106.078 65.52)">
        <path id="Path_113" data-name="Path 113" d="M477.04,363.53l.008-54.153-50.507-.127.02,55.3Z" transform="translate(-426.54 -297.872)" fill="#d9a600"/>
        <g id="Group_23" data-name="Group 23" transform="translate(0.025)">
          <g id="Group_22" data-name="Group 22">
            <g id="Group_15" data-name="Group 15" transform="translate(0 50.087)">
              <path id="Path_114" data-name="Path 114" d="M544.487,590.87c-13.947.022-25.237,5.168-25.237,11.512s11.291,11.495,25.237,11.512,25.237-5.165,25.237-11.512S558.432,590.9,544.487,590.87Z" transform="translate(-519.25 -590.87)" fill="#d9a600"/>
              <path id="Path_115" data-name="Path 115" d="M557.207,598.6c-11.619,0-21.027,3.842-21.027,8.565s9.408,8.55,21.027,8.565,21.027-3.85,21.027-8.575S568.826,598.612,557.207,598.6Z" transform="translate(-531.969 -596.678)" fill="#ffdb05"/>
              <path id="Path_116" data-name="Path 116" d="M556.7,615.423l-.02-.167v-.169H557.7v.338C557.368,615.421,557.037,615.421,556.7,615.423Zm-1.037,0-1.015-.032.015-.336q.5.022,1.007.03Zm3.044-.037v-.336c.338,0,.674-.03.995-.05l.02.333C559.39,615.354,559.054,615.369,558.711,615.386Zm-5.073-.052c-.341-.022-.677-.045-1.01-.072l.025-.333c.333.025.669.05.995.07Zm7.113-.072-.025-.336c.336-.025.671-.055.995-.089l.032.333C561.416,615.2,561.078,615.234,560.75,615.262Zm-9.122-.095c-.338-.035-.676-.075-1.01-.114l.042-.333q.5.062.995.112Zm11.144-.109-.042-.333c.338-.04.671-.085.995-.132l.05.331c-.338.047-.676.095-1.015.134Zm-13.158-.139c-.341-.052-.674-.1-.995-.159l.052-.331c.331.057.662.109.995.159Zm15.17-.152-.055-.331c.333-.057.664-.117.995-.182l.065.331c-.348.055-.681.124-1.02.182Zm-17.16-.192c-.336-.065-.667-.134-.995-.206l.075-.328c.321.072.652.142.995.206Zm19.164-.2-.07-.328c.333-.075.659-.152.98-.234l.082.328c-.351.082-.684.159-1.02.246Zm-21.139-.249c-.333-.085-.662-.174-.982-.264l.092-.323c.318.092.642.177.97.249Zm23.128-.249-.089-.326c.328-.092.649-.186.965-.288l.1.321c-.361.1-.686.2-1.02.306Zm-25.076-.308q-.5-.157-.963-.328l.112-.313c.311.109.629.219.953.323Zm27.016-.313-.112-.316c.321-.114.634-.234.938-.358l.127.311c-.356.127-.671.251-1,.366Zm-28.928-.38c-.318-.127-.634-.266-.935-.405l.139-.3c.3.139.609.271.92.4Zm30.813-.388-.139-.306c.311-.142.614-.293.9-.445l.159.3c-.336.157-.647.308-.962.455Zm-32.661-.475c-.311-.162-.609-.333-.89-.51l.179-.284c.274.172.567.338.865.5Zm34.464-.5-.177-.286c.293-.179.572-.366.828-.557l.2.269c-.308.214-.594.4-.9.589Zm-36.2-.6c-.288-.214-.555-.433-.8-.652l.226-.249c.231.211.5.423.768.632Zm37.849-.624-.226-.249a7.637,7.637,0,0,0,.689-.709l.249.216a7.694,7.694,0,0,1-.756.756Zm-39.4-.758a5.554,5.554,0,0,1-.592-.856l.291-.164a5.38,5.38,0,0,0,.557.806Zm40.676-.818-.293-.164a4.232,4.232,0,0,0,.378-.88l.321.094a4.5,4.5,0,0,1-.405.95Zm-41.674-.995a3.752,3.752,0,0,1-.144-1.03h.336a3.468,3.468,0,0,0,.129.937Zm42.241-.995h-.164l-.169-.03a3.423,3.423,0,0,0-.127-.92l.323-.087a3.754,3.754,0,0,1,.137.995Zm-41.915-.995-.321-.092a4.534,4.534,0,0,1,.41-.963l.291.167a4.279,4.279,0,0,0-.381.883Zm41.084-.853a5.185,5.185,0,0,0-.555-.806l.249-.211a5.529,5.529,0,0,1,.589.856Zm-40.142-.836-.249-.216a7.677,7.677,0,0,1,.716-.746l.226.249a7.584,7.584,0,0,0-.694.709Zm38.908-.684c-.234-.214-.5-.425-.766-.632l.2-.271c.286.216.552.435.793.657Zm-37.463-.662-.2-.271a9.854,9.854,0,0,1,.848-.574l.177.286C538.91,602.327,538.631,602.514,538.367,602.7Zm35.864-.537c-.271-.172-.565-.338-.866-.5l.157-.3c.308.167.607.338.888.512Zm-34.168-.522-.159-.293c.293-.157.6-.308.915-.455l.142.306c-.3.147-.6.3-.89.445Zm32.412-.433c-.3-.139-.607-.276-.92-.4l.127-.311c.321.129.632.268.935.41Zm-30.589-.42-.127-.308c.311-.127.627-.249.95-.363l.117.313c-.321.124-.634.246-.937.368Zm28.732-.326c-.308-.112-.627-.221-.953-.326l.1-.318q.5.159.962.328Zm-26.839-.336-.1-.323c.321-.1.644-.2.977-.293l.092.326c-.328.085-.657.182-.965.283Zm24.929-.288c-.316-.092-.642-.179-.972-.249l.082-.326c.336.084.661.172.995.264Zm-22.989-.273-.08-.323c.323-.082.654-.159.995-.234l.072.328c-.343.07-.669.149-.992.229Zm21.037-.219q-.485-.112-.995-.209l.065-.328c.336.065.667.134.995.206Zm-19.07-.219-.062-.328c.328-.062.661-.124.995-.182l.057.331c-.338.057-.666.117-.995.179Zm17.093-.172c-.328-.057-.659-.107-.995-.157l.047-.333c.338.05.674.1.995.159Zm-15.106-.164-.047-.331c.331-.05.667-.094.995-.137l.042.333c-.331.042-.667.087-.995.134Zm13.114-.129c-.331-.04-.667-.08-.995-.112l.032-.333c.341.032.676.07,1.01.112Zm-11.112-.117-.035-.333c.336-.032.672-.065,1.012-.092l.027.333c-.343.02-.679.06-1.01.092Zm9.1-.087q-.5-.04-1.007-.075l.02-.331c.343.02.679.042,1.012.072Zm-7.1-.075-.02-.333c.336-.02.674-.037,1.015-.05v.333c-.331.012-.667.03-1,.05Zm5.081-.047c-.333-.015-.669-.025-.995-.032v-.336c.341,0,.679.017,1.015.032Zm-3.064-.032v-.336h1.059v.336h-.042c-.353-.01-.694-.008-1.022,0Z" transform="translate(-531.466 -596.204)" fill="#d6b60b"/>
              <path id="Path_117" data-name="Path 117" d="M607.158,610.3c-.06-1.037-1.087-1.614-2.288-1.614-.5,0-1.181.249-1.176.729,0,1.46,6.981,1.114,7.351,4.648.269,2.544-2.452,3.5-4.75,3.5-.249,0-.465-.015-.679-.032l.035,1.119h-1.244l-.022-1.378a5.024,5.024,0,0,1-2.106-1.266l-.224,1.3H598.67l.234-4.1H602.3c0,1.318,1.549,1.544,2.335,1.574.652,0,1.579-.129,1.552-.8-.05-1.209-7.048-.7-6.849-4.444.107-2,2.487-2.875,4.116-2.875q.373,0,.746.037l-.015-.935h1.052l.037,1.129a3.181,3.181,0,0,1,1.741,1.1l.1-1.1h2.877l.341,3.4Z" transform="translate(-578.919 -602.065)" fill="#d6b60b"/>
              <path id="Path_118" data-name="Path 118" d="M565.149,644.009a25.423,25.423,0,0,1-4.6,2.171,38.516,38.516,0,0,1-4.6,1.328c-1.462.331-2.984.6-4.6.8-1.492.187-3.022.313-4.6.378-.746.027-1.492.045-2.238.045-.793,0-1.579-.017-2.353-.05-1.579-.067-3.116-.2-4.6-.388-1.6-.2-3.139-.478-4.6-.811a38.382,38.382,0,0,1-4.6-1.35,25.165,25.165,0,0,1-4.6-2.2,10.24,10.24,0,0,1-4.491-4.869v6.16a11.181,11.181,0,0,0,4.491,4.621,25.919,25.919,0,0,0,4.6,2.223,38.245,38.245,0,0,0,4.6,1.388c1.46.346,3,.632,4.6.848,1.492.2,3.022.338,4.6.408q1.164.052,2.353.055,1.119,0,2.238-.05c1.574-.07,3.114-.2,4.6-.4a46.5,46.5,0,0,0,4.6-.838,38.38,38.38,0,0,0,4.6-1.375,26.2,26.2,0,0,0,4.6-2.193,11.292,11.292,0,0,0,4.6-4.688v-6.158A10.37,10.37,0,0,1,565.149,644.009Z" transform="translate(-519.273 -627.083)" fill="#ecbd0c"/>
            </g>
            <path id="Path_119" data-name="Path 119" d="M544.487,558.2c-13.947.017-25.237,5.165-25.237,11.512s11.291,11.49,25.237,11.512c13.944-.022,25.237-3.86,25.237-11.512C569.725,563.373,558.432,558.217,544.487,558.2Z" transform="translate(-519.25 -516.238)" fill="#d9a600"/>
            <path id="Path_120" data-name="Path 120" d="M557.207,565c-11.619.015-21.027,3.842-21.027,8.565s9.408,8.548,21.027,8.563,21.027-3.842,21.027-8.563S568.826,565.017,557.207,565Z" transform="translate(-531.969 -521.347)" fill="#ffdb05"/>
            <path id="Path_121" data-name="Path 121" d="M556.7,581.833l-.02-.169V581.5H557.7v.333C557.368,581.828,557.037,581.833,556.7,581.833Zm-1.037,0c-.338,0-.679-.017-1.015-.03l.015-.336q.5.02,1.007.03Zm3.044-.03v-.333c.338-.015.674-.03.995-.05l.02.333c-.336.01-.672.025-1.015.037Zm-5.073-.052c-.341-.02-.677-.045-1.01-.07l.025-.336c.333.027.669.05.995.072Zm7.1-.067-.025-.333c.336-.027.672-.057.995-.092l.032.333c-.323.022-.661.052-.99.08Zm-9.122-.095c-.338-.035-.676-.072-1.01-.114l.042-.331q.5.06.995.112Zm11.144-.109-.042-.333c.338-.042.671-.085.995-.132l.05.331c-.326.037-.664.082-1,.122Zm-13.158-.142c-.341-.047-.674-.1-.995-.159l.052-.328c.331.055.661.109.995.157Zm15.17-.152-.055-.328c.333-.057.664-.117.995-.182l.065.331-1.007.167ZM547.611,581c-.336-.067-.667-.137-.995-.209l.075-.328c.321.072.652.139.995.206Zm19.164-.2-.07-.328c.333-.075.659-.152.98-.231l.082.323c-.338.07-.671.147-1.007.224Zm-21.139-.249c-.333-.085-.661-.174-.982-.264l.092-.323q.478.134.97.261Zm23.129-.249-.09-.323c.328-.092.649-.189.965-.288l.1.318c-.348.087-.674.192-1.007.281ZM543.689,580q-.5-.156-.962-.328l.112-.316c.311.112.629.221.953.323Zm27.016-.313-.112-.316c.321-.114.634-.249.938-.358l.127.311c-.343.112-.659.231-.985.351Zm-28.928-.38c-.318-.129-.634-.266-.935-.405l.139-.306c.3.139.609.274.92.4Zm30.813-.391-.139-.3c.311-.144.614-.291.9-.445l.159.3c-.323.142-.634.3-.95.44Zm-32.661-.47c-.311-.164-.609-.336-.89-.5l.179-.286c.274.172.567.338.865.5Zm34.464-.5-.177-.286c.293-.182.572-.368.828-.557l.2.271c-.3.191-.582.383-.883.57Zm-36.2-.6a9.32,9.32,0,0,1-.8-.652l.226-.249a9.2,9.2,0,0,0,.768.632Zm37.816-.627-.226-.249a7.641,7.641,0,0,0,.689-.706l.249.214A7.417,7.417,0,0,1,576.01,576.72Zm-39.358-.771a5.687,5.687,0,0,1-.592-.855l.291-.164a5.38,5.38,0,0,0,.557.806Zm40.676-.818-.293-.167a4.122,4.122,0,0,0,.385-.888l.321.094a4.471,4.471,0,0,1-.413.96Zm-41.674-.995a3.751,3.751,0,0,1-.144-1.03h.336a3.467,3.467,0,0,0,.129.937Zm42.241-.995h-.164l-.169-.03a3.421,3.421,0,0,0-.127-.92l.323-.089a3.783,3.783,0,0,1,.137,1.01Zm-41.915-.995-.321-.092a4.534,4.534,0,0,1,.41-.962l.291.167a4.279,4.279,0,0,0-.381.883Zm41.084-.853a5.308,5.308,0,0,0-.555-.806l.249-.214a5.657,5.657,0,0,1,.589.856Zm-40.142-.841-.249-.216a7.644,7.644,0,0,1,.716-.746l.226.249A7.012,7.012,0,0,0,536.922,570.453Zm38.908-.684c-.234-.214-.5-.425-.766-.632l.2-.271c.286.214.552.435.793.656Zm-37.463-.657-.2-.271c.249-.192.547-.385.848-.572l.177.286C538.91,568.737,538.631,568.926,538.367,569.113Zm35.864-.535c-.271-.172-.565-.341-.866-.5l.157-.294c.308.164.607.336.888.512Zm-34.168-.52-.159-.3c.293-.152.6-.306.915-.453l.142.306c-.3.154-.6.291-.89.445Zm32.4-.428c-.3-.139-.607-.276-.92-.4l.127-.311c.321.132.632.266.935.408Zm-30.589-.418-.127-.313c.311-.124.627-.249.95-.363l.117.316c-.313.114-.627.236-.93.361Zm28.729-.346c-.308-.112-.627-.221-.953-.326l.1-.318q.5.157.962.328Zm-26.829-.343-.1-.318c.321-.1.644-.2.977-.3l.092.323C544.416,566.332,544.087,566.429,543.779,566.524Zm24.929-.274c-.316-.092-.642-.179-.972-.264l.082-.323c.336.085.661.172.995.264Zm-22.989-.274-.08-.323c.323-.082.654-.162.995-.234l.072.326c-.343.075-.669.154-.992.231Zm21.037-.221q-.485-.107-.995-.209l.065-.328q.5.1.995.209Zm-19.07-.214-.062-.331c.328-.065.661-.124.995-.182l.057.331c-.338.057-.666.117-.995.182Zm17.093-.174c-.328-.055-.659-.107-.995-.157l.047-.333c.338.05.674.1.995.159Zm-15.106-.164-.047-.331c.331-.05.667-.094.995-.137l.042.333c-.331.042-.667.087-.995.134Zm13.114-.129c-.331-.04-.667-.08-.995-.115l.032-.331c.341.032.676.072,1.01.112Zm-11.112-.117-.035-.333c.336-.035.672-.065,1.012-.092l.027.333c-.343.027-.679.057-1.01.092Zm9.1-.087c-.333-.027-.669-.055-1.007-.072l.02-.336c.343.02.679.045,1.012.072Zm-7.1-.074-.02-.333q.5-.03,1.015-.052v.336c-.331.012-.667.037-1,.05Zm5.081-.047c-.333-.015-.669-.025-.995-.032v-.336q.512,0,1.015.03Zm-3.064-.035v-.333h1.059v.336h-.042c-.353-.012-.694-.007-1.022,0Z" transform="translate(-531.466 -520.881)" fill="#d6b60b"/>
            <path id="Path_122" data-name="Path 122" d="M607.158,572.174c-.06-1.039-1.087-1.617-2.288-1.617-.5,0-1.181.249-1.176.731,0,1.46,6.981,1.114,7.351,4.646.269,2.547-2.452,3.5-4.75,3.5-.249,0-.465-.017-.679-.032l.035,1.119h-1.244l-.022-1.38a4.974,4.974,0,0,1-2.106-1.263l-.224,1.3H598.67l.234-4.1H602.3c0,1.318,1.549,1.542,2.335,1.574.652,0,1.579-.129,1.552-.8-.05-1.206-7.048-.7-6.849-4.444.107-1.99,2.487-2.875,4.116-2.875a5,5,0,0,1,.746.037l-.015-.935h1.052l.037,1.129a3.158,3.158,0,0,1,1.741,1.1l.1-1.1h2.877l.343,3.4Z" transform="translate(-578.919 -523.33)" fill="#d6b60b"/>
            <path id="Path_123" data-name="Path 123" d="M565.149,613.839a25.424,25.424,0,0,1-4.6,2.169,38.5,38.5,0,0,1-4.6,1.335c-1.462.331-2.984.6-4.6.8-1.492.184-3.022.313-4.6.376-.746.03-1.492.047-2.238.047-.793,0-1.579-.017-2.353-.05-1.579-.07-3.116-.2-4.6-.388-1.6-.2-3.139-.48-4.6-.813a38.366,38.366,0,0,1-4.6-1.348,25.008,25.008,0,0,1-4.6-2.2,10.23,10.23,0,0,1-4.491-4.869v6.163a11.2,11.2,0,0,0,4.491,4.621,25.923,25.923,0,0,0,4.6,2.221,37.793,37.793,0,0,0,4.6,1.388,46.278,46.278,0,0,0,4.6.848q2.238.3,4.6.41c.776.032,1.559.052,2.353.055.746,0,1.492-.02,2.238-.052,1.574-.067,3.114-.2,4.6-.4,1.6-.211,3.136-.5,4.6-.836a38.831,38.831,0,0,0,4.6-1.375,26.185,26.185,0,0,0,4.6-2.2,11.3,11.3,0,0,0,4.6-4.685V608.82A10.542,10.542,0,0,1,565.149,613.839Z" transform="translate(-519.273 -554.269)" fill="#ecbd0c"/>
            <g id="Group_16" data-name="Group 16" transform="translate(0 35.648)">
              <path id="Path_124" data-name="Path 124" d="M544.487,532.81c-13.947.017-25.237,5.165-25.237,11.512s11.291,11.49,25.237,11.512c13.944-.022,25.237-5.165,25.237-11.512S558.432,532.827,544.487,532.81Z" transform="translate(-519.25 -532.81)" fill="#d9a600"/>
              <path id="Path_125" data-name="Path 125" d="M557.207,540.53c-11.621.015-21.027,3.847-21.027,8.572s9.408,8.553,21.027,8.565,21.027-3.84,21.027-8.565S568.826,540.545,557.207,540.53Z" transform="translate(-531.969 -538.61)" fill="#ffdb05"/>
              <path id="Path_126" data-name="Path 126" d="M556.7,557.353l-.02-.167v-.167H557.7v.336C557.368,557.351,557.037,557.353,556.7,557.353Zm-1.037,0-1.015-.03.015-.338c.333.015.669.025,1.007.032Zm3.044-.03v-.336c.338-.012.674-.03.995-.05l.02.336c-.336.007-.672.027-1.015.04Zm-5.073-.052c-.341-.02-.677-.045-1.01-.072l.025-.336c.333.027.669.052.995.072Zm7.1-.07-.025-.333c.336-.027.672-.057.995-.089l.032.333c-.323.022-.661.055-.99.08Zm-9.122-.095c-.338-.035-.676-.072-1.01-.112l.042-.333q.5.06.995.112ZM562.759,557l-.042-.331q.5-.062.995-.134l.05.331c-.326.04-.664.085-1,.124Zm-13.158-.139c-.341-.05-.674-.1-.995-.159l.052-.331c.331.057.661.109.995.157Zm15.17-.152-.055-.331c.333-.055.664-.117.995-.182l.065.331c-.336.062-.669.115-1.007.172Zm-17.16-.189c-.336-.067-.667-.137-.995-.209l.075-.326c.321.07.652.142.995.206Zm19.164-.2-.07-.328c.333-.075.659-.152.98-.231l.082.326c-.338.072-.671.149-1.007.224Zm-21.139-.249c-.333-.084-.661-.172-.982-.264l.092-.323c.318.089.642.179.97.261Zm23.129-.249-.09-.323c.328-.092.649-.189.965-.291l.1.318c-.348.094-.674.194-1.007.288Zm-25.076-.308c-.328-.1-.649-.214-.962-.326l.112-.316c.311.112.629.219.953.323Zm27.016-.313-.112-.313c.321-.117.634-.249.938-.361l.127.311c-.343.119-.659.239-.985.356Zm-28.928-.378c-.318-.129-.634-.266-.935-.408l.139-.306c.3.142.609.276.92.4Zm30.813-.39-.139-.3c.311-.144.614-.293.9-.445l.159.3c-.323.147-.634.3-.95.445Zm-32.661-.473c-.311-.164-.609-.336-.89-.5l.179-.286c.274.172.567.338.865.5Zm34.464-.5-.177-.286c.293-.179.572-.368.828-.557l.2.271c-.3.2-.582.39-.883.574Zm-36.232-.6c-.289-.214-.555-.433-.8-.652l.226-.249a9.735,9.735,0,0,0,.776.652Zm37.849-.624-.226-.249a7.615,7.615,0,0,0,.689-.709l.249.216a7.714,7.714,0,0,1-.711.751Zm-39.358-.763a5.679,5.679,0,0,1-.592-.853l.291-.167a5.387,5.387,0,0,0,.557.806Zm40.676-.816-.293-.167a4.24,4.24,0,0,0,.378-.888l.321.094a4.589,4.589,0,0,1-.405.96Zm-41.674-.995a3.727,3.727,0,0,1-.144-1.03h.336a3.483,3.483,0,0,0,.129.94Zm42.241-.995h-.164l-.169-.032a3.433,3.433,0,0,0-.127-.92l.323-.089a3.8,3.8,0,0,1,.137,1.01Zm-41.915-.995-.321-.092a4.474,4.474,0,0,1,.41-.962l.291.164a4.3,4.3,0,0,0-.381.885Zm41.084-.856a5.179,5.179,0,0,0-.555-.8l.249-.214a5.53,5.53,0,0,1,.589.856Zm-40.142-.833-.249-.219a7.99,7.99,0,0,1,.716-.746l.226.249a7.3,7.3,0,0,0-.694.711Zm38.908-.687c-.234-.211-.5-.425-.766-.632l.2-.269c.286.214.552.433.793.654Zm-37.463-.661-.2-.266a9.3,9.3,0,0,1,.848-.574l.177.283C538.91,544.257,538.631,544.446,538.367,544.633Zm35.864-.535c-.271-.169-.565-.338-.866-.5l.157-.3c.308.167.607.338.888.5Zm-34.168-.52-.159-.3c.293-.154.6-.308.915-.453l.142.3c-.3.144-.6.294-.89.445Zm32.412-.42c-.3-.139-.607-.274-.92-.4l.127-.311c.321.132.632.269.935.41Zm-30.589-.418-.127-.311c.311-.124.627-.249.95-.363l.117.313c-.321.109-.634.229-.937.353Zm28.729-.346c-.308-.112-.627-.219-.953-.323l.1-.321c.328.107.649.214.962.328Zm-26.839-.338-.1-.318c.321-.1.644-.2.977-.294l.092.323c-.326.084-.654.182-.963.281Zm24.932-.286c-.316-.089-.642-.177-.972-.249l.082-.326c.336.084.661.172.995.264Zm-22.989-.271-.08-.323c.323-.085.654-.162.995-.236l.072.328c-.343.072-.669.149-.992.231Zm21.037-.224c-.323-.072-.652-.139-.995-.206l.065-.328q.5.1.995.209Zm-19.07-.214-.062-.328c.328-.065.661-.124.995-.182l.057.331c-.338.055-.666.117-.995.179Zm17.093-.174c-.328-.057-.659-.107-.995-.157l.047-.333.995.159Zm-15.106-.164-.047-.331c.331-.05.667-.095.995-.134l.042.331c-.331.042-.667.082-.995.134Zm13.114-.127c-.331-.042-.667-.08-.995-.117l.032-.331c.341.035.676.072,1.01.114Zm-11.112-.119-.035-.333c.336-.035.672-.065,1.012-.092l.027.333Zm9.1-.087c-.333-.027-.669-.05-1.007-.072l.02-.333c.343.017.679.042,1.012.07Zm-7.1-.072-.02-.336q.5-.03,1.015-.052v.336c-.331.015-.667.03-1,.052Zm5.081-.05-.995-.032V539.9c.341,0,.679.02,1.015.032Zm-3.064-.032V539.9h1.059v.336h-.042c-.353-.01-.694-.007-1.022,0Z" transform="translate(-531.466 -538.137)" fill="#d6b60b"/>
              <path id="Path_127" data-name="Path 127" d="M607.158,552.3c-.06-1.039-1.087-1.616-2.288-1.616-.5,0-1.181.249-1.176.729,0,1.462,6.981,1.114,7.351,4.648.269,2.544-2.452,3.5-4.75,3.5-.249,0-.465-.017-.679-.035l.035,1.119h-1.244l-.022-1.378A5,5,0,0,1,602.279,558l-.224,1.3H598.67l.234-4.1H602.3c0,1.318,1.549,1.542,2.335,1.577.652,0,1.579-.132,1.552-.8-.05-1.206-7.048-.7-6.849-4.442.107-2,2.487-2.877,4.116-2.877a6.862,6.862,0,0,1,.746.04l-.015-.938h1.052l.037,1.132a3.141,3.141,0,0,1,1.741,1.1l.1-1.1h2.877l.341,3.4Z" transform="translate(-578.919 -544.042)" fill="#d6b60b"/>
              <path id="Path_128" data-name="Path 128" d="M565.149,585.939a25.25,25.25,0,0,1-4.6,2.169,37.606,37.606,0,0,1-4.6,1.333,46.541,46.541,0,0,1-4.6.8c-1.492.187-3.022.313-4.6.378q-1.112.045-2.238.047c-.793,0-1.579-.02-2.353-.052-1.579-.067-3.116-.2-4.6-.385-1.6-.207-3.139-.48-4.6-.816a37.933,37.933,0,0,1-4.6-1.348,24.844,24.844,0,0,1-4.6-2.2A10.237,10.237,0,0,1,519.28,581v6.16a11.185,11.185,0,0,0,4.491,4.623,26.085,26.085,0,0,0,4.6,2.221,38.256,38.256,0,0,0,4.6,1.388,45.6,45.6,0,0,0,4.6.846q2.238.3,4.6.413c.776.032,1.559.052,2.353.052q1.119,0,2.238-.05c1.574-.067,3.114-.2,4.6-.4,1.6-.209,3.136-.5,4.6-.836a38.846,38.846,0,0,0,4.6-1.375,26.559,26.559,0,0,0,4.6-2.193,11.283,11.283,0,0,0,4.6-4.69V581A10.364,10.364,0,0,1,565.149,585.939Z" transform="translate(-519.273 -569.015)" fill="#ecbd0c"/>
            </g>
            <g id="Group_17" data-name="Group 17" transform="translate(0 29.789)">
              <path id="Path_129" data-name="Path 129" d="M544.487,509.25c-13.947.02-25.237,5.165-25.237,11.512s11.291,11.492,25.237,11.51,25.237-5.165,25.237-11.51S558.432,509.27,544.487,509.25Z" transform="translate(-519.25 -509.25)" fill="#d9a600"/>
              <path id="Path_130" data-name="Path 130" d="M557.207,517c-11.619.015-21.027,3.842-21.027,8.565s9.408,8.55,21.027,8.565,21.027-3.845,21.027-8.565S568.826,517,557.207,517Z" transform="translate(-531.969 -515.073)" fill="#ffdb05"/>
              <path id="Path_131" data-name="Path 131" d="M556.7,533.748l-.02-.167v-.169H557.7v.333C557.368,533.743,557.037,533.748,556.7,533.748Zm-1.037,0c-.338,0-.679-.017-1.015-.03l.015-.336c.333.015.669.025,1.007.032Zm3.044-.027v-.336c.338,0,.674-.03.995-.05l.02.336Zm-5.073-.055c-.341-.02-.677-.045-1.01-.07l.025-.336c.333.027.669.05.995.072Zm7.1-.067-.025-.333c.336-.027.672-.057.995-.092l.032.333c-.323.022-.661.052-.99.08Zm-9.122-.1c-.338-.03-.676-.07-1.01-.112l.042-.331c.331.037.664.077.995.112Zm11.144-.1-.042-.333c.338-.042.671-.087.995-.137l.05.333Zm-13.158-.144c-.341-.047-.674-.1-.995-.157l.052-.331c.331.057.661.107.995.159Zm15.17-.149-.055-.331c.333-.06.664-.117.995-.179l.065.328c-.336.05-.669.112-1.007.169Zm-17.16-.191c-.336-.065-.667-.132-.995-.206l.075-.328c.321.072.652.142.995.206Zm19.164-.2-.07-.326c.333-.072.659-.152.98-.231l.082.326c-.338.07-.671.142-1.007.219Zm-21.139-.249c-.333-.082-.661-.172-.982-.261l.092-.323q.478.139.97.249Zm23.129-.249-.09-.323c.328-.092.649-.189.965-.289l.1.318c-.348.092-.674.2-1.007.284Zm-25.076-.306c-.328-.107-.649-.214-.962-.326l.112-.318c.311.112.629.221.953.326Zm27.016-.313-.112-.316c.321-.117.634-.234.938-.358l.127.308c-.343.117-.659.239-.985.356Zm-28.928-.378c-.318-.132-.634-.269-.935-.408l.139-.3c.3.137.609.271.92.4Zm30.813-.391-.139-.306c.311-.142.614-.293.9-.443l.159.3c-.323.142-.634.3-.95.443Zm-32.661-.475c-.311-.164-.609-.333-.89-.51l.179-.283c.274.169.567.338.865.5Zm34.464-.5-.177-.284c.293-.182.572-.368.828-.557l.2.271c-.3.194-.582.388-.883.569Zm-36.2-.594a9.893,9.893,0,0,1-.8-.654l.226-.249c.231.211.5.423.768.632Zm37.816-.617-.226-.249a7.637,7.637,0,0,0,.689-.709l.249.216A7.68,7.68,0,0,1,576.01,528.645Zm-39.358-.781a5.8,5.8,0,0,1-.592-.853l.291-.164a5.5,5.5,0,0,0,.557.8Zm40.676-.818-.293-.164a4.232,4.232,0,0,0,.385-.888l.321.092a4.474,4.474,0,0,1-.413.96Zm-41.674-.995a3.728,3.728,0,0,1-.144-1.03h.336a3.453,3.453,0,0,0,.129.938Zm42.241-.995h-.164l-.169-.03a3.421,3.421,0,0,0-.127-.92l.323-.09a3.766,3.766,0,0,1,.137,1.01Zm-41.915-.995-.321-.092a4.43,4.43,0,0,1,.41-.963l.291.164a4.238,4.238,0,0,0-.381.888Zm41.084-.855a5.182,5.182,0,0,0-.555-.806l.249-.211a5.413,5.413,0,0,1,.589.856Zm-40.142-.836-.249-.216a7.968,7.968,0,0,1,.716-.746l.226.249a7.291,7.291,0,0,0-.694.711Zm38.908-.689c-.234-.214-.5-.425-.766-.634l.2-.266c.286.214.552.433.793.651Zm-37.463-.654-.2-.269a9.337,9.337,0,0,1,.848-.574l.177.286C538.91,520.652,538.631,520.841,538.367,521.028Zm35.864-.535c-.271-.169-.565-.338-.866-.5l.157-.3c.308.164.607.338.888.51Zm-34.168-.52-.159-.3c.293-.157.6-.308.915-.455l.142.3c-.3.144-.6.3-.89.448Zm32.4-.428c-.3-.139-.607-.276-.92-.4l.127-.311c.321.132.632.266.935.41Zm-30.589-.418-.127-.311c.311-.127.627-.249.95-.365l.117.316c-.313.117-.627.236-.93.361Zm28.729-.346c-.308-.112-.627-.221-.953-.326l.1-.318c.328.1.649.216.962.328Zm-26.829-.333-.1-.318c.321-.1.644-.2.977-.3l.092.323C544.416,518.247,544.087,518.342,543.779,518.449Zm24.929-.284c-.316-.092-.642-.179-.972-.261l.082-.326c.336.085.661.172.995.266Zm-22.989-.271-.08-.326c.323-.085.654-.159.995-.249l.072.328c-.343.087-.669.164-.992.246Zm21.037-.224q-.485-.107-.995-.209l.065-.326c.336.065.667.134.995.206Zm-19.075-.216-.062-.331c.328-.065.662-.124.995-.179l.057.328C548.338,517.332,548.009,517.392,547.681,517.454Zm17.093-.174c-.328-.057-.659-.109-.995-.159l.047-.331c.338.05.674.1.995.159Zm-15.106-.164-.047-.331c.331-.05.667-.092.995-.134l.042.331c-.326.045-.662.09-.99.137Zm13.114-.129c-.331-.04-.667-.08-.995-.114l.032-.333c.341.035.676.075,1.01.117Zm-11.112-.117-.035-.333c.336-.035.672-.065,1.012-.092l.027.333c-.338.03-.674.06-1,.095Zm9.1-.089c-.333-.027-.669-.05-1.007-.07l.02-.336c.343.022.679.045,1.012.072Zm-7.1-.072-.02-.333c.336-.022.674-.037,1.015-.052v.336C554.349,516.673,554.013,516.69,553.679,516.708Zm5.081-.047c-.333-.015-.669-.025-.995-.032v-.336c.341,0,.679.017,1.015.032Zm-3.064-.032v-.336c.338,0,.677-.012,1.015-.012h.045v.338h-.042c-.348,0-.689,0-1.017.012Z" transform="translate(-531.466 -514.532)" fill="#d6b60b"/>
              <path id="Path_132" data-name="Path 132" d="M607.158,528.694c-.06-1.039-1.087-1.614-2.288-1.614-.5,0-1.181.249-1.176.729,0,1.46,6.981,1.117,7.351,4.646.269,2.547-2.452,3.5-4.75,3.5-.249,0-.465-.015-.679-.035l.035,1.122h-1.244l-.022-1.38a4.974,4.974,0,0,1-2.106-1.263l-.224,1.3H598.67l.234-4.1H602.3c0,1.318,1.549,1.542,2.335,1.574.652,0,1.579-.129,1.552-.8-.05-1.209-7.048-.7-6.849-4.444.107-2,2.487-2.875,4.116-2.875q.373,0,.746.037l-.015-.935h1.052l.037,1.129a3.17,3.17,0,0,1,1.741,1.1l.1-1.1h2.877l.343,3.4Z" transform="translate(-578.919 -520.452)" fill="#d6b60b"/>
              <path id="Path_133" data-name="Path 133" d="M565.149,557.826a25.591,25.591,0,0,1-4.6,2.171,38.521,38.521,0,0,1-4.6,1.331c-1.462.331-2.984.6-4.6.8-1.492.186-3.022.313-4.6.378-.746.027-1.492.045-2.238.047-.793,0-1.579-.02-2.353-.05-1.579-.07-3.116-.2-4.6-.391-1.6-.2-3.139-.477-4.6-.813a37.911,37.911,0,0,1-4.6-1.348,25.165,25.165,0,0,1-4.6-2.2,10.251,10.251,0,0,1-4.491-4.87v6.163a11.2,11.2,0,0,0,4.491,4.621,26.085,26.085,0,0,0,4.6,2.221,38.245,38.245,0,0,0,4.6,1.388c1.46.346,3,.632,4.6.846,1.492.2,3.022.341,4.6.41q1.164.052,2.353.055,1.119,0,2.238-.05c1.574-.067,3.114-.2,4.6-.4,1.6-.211,3.136-.5,4.6-.838a38.363,38.363,0,0,0,4.6-1.373,26.557,26.557,0,0,0,4.6-2.2,11.3,11.3,0,0,0,4.6-4.685V552.89A10.36,10.36,0,0,1,565.149,557.826Z" transform="translate(-519.273 -542.037)" fill="#ecbd0c"/>
            </g>
            <g id="Group_18" data-name="Group 18" transform="translate(0 21.432)">
              <path id="Path_134" data-name="Path 134" d="M544.487,475.65c-13.947.022-25.237,5.165-25.237,11.515s11.291,11.49,25.237,11.509c13.944-.02,25.237-5.165,25.237-11.51S558.432,475.672,544.487,475.65Z" transform="translate(-519.25 -475.65)" fill="#d9a600"/>
              <path id="Path_135" data-name="Path 135" d="M557.207,483.38c-11.619.015-21.027,3.842-21.027,8.563s9.406,8.553,21.027,8.565,21.027-3.842,21.027-8.565S568.826,483.395,557.207,483.38Z" transform="translate(-531.969 -481.458)" fill="#ffdb05"/>
              <path id="Path_136" data-name="Path 136" d="M556.7,500.166l-.02-.169v-.167h.02c.331,0,.659,0,.995-.012v.336C557.368,500.161,557.037,500.166,556.7,500.166Zm-1.037,0c-.338,0-.679-.017-1.015-.03l.015-.336q.5.02,1.007.03Zm3.044-.03V499.8c.338-.015.674-.03.995-.052l.02.336c-.336.007-.672.025-1.015.037Zm-5.073-.052c-.341-.02-.677-.045-1.01-.07l.025-.336c.333.027.669.05.995.072Zm7.1-.07-.025-.333c.336-.027.672-.057.995-.09l.032.333c-.323.01-.661.052-.99.077Zm-9.122-.094c-.338-.032-.676-.07-1.01-.112l.042-.333q.5.06.995.112Zm11.144-.107-.042-.333c.338-.04.671-.087.995-.134l.05.333c-.326.035-.664.082-1,.122Zm-13.158-.139c-.341-.05-.674-.1-.995-.159l.052-.333c.331.06.661.109.995.159Zm15.17-.154-.055-.331c.333-.057.664-.114.995-.179l.065.331c-.336.05-.669.112-1.007.167Zm-17.16-.189c-.336-.067-.667-.134-.995-.206l.075-.328c.321.072.652.142.995.206Zm19.164-.2-.07-.328c.333-.072.659-.149.98-.229l.082.323c-.338.07-.671.147-1.007.221Zm-21.139-.249c-.333-.087-.661-.174-.982-.266l.092-.323c.318.092.642.179.97.264Zm23.129-.249-.09-.323c.328-.092.649-.191.965-.288l.1.318c-.348.1-.674.189-1.007.284Zm-25.108-.316q-.5-.159-.962-.328l.112-.316c.311.112.629.219.952.323ZM570.673,498l-.112-.316c.321-.117.634-.249.938-.361l.127.311C571.314,497.766,571,497.885,570.673,498Zm-28.928-.38c-.318-.129-.634-.266-.935-.405l.139-.3c.3.134.609.271.92.4Zm30.813-.391-.139-.3c.311-.142.614-.294.9-.445l.159.3c-.291.169-.6.306-.918.453Zm-32.661-.473c-.311-.164-.609-.333-.89-.5l.179-.284c.274.169.567.338.865.5Zm34.464-.5-.177-.286c.294-.181.572-.368.828-.557l.2.271a9.473,9.473,0,0,1-.851.584Zm-36.2-.6a9.853,9.853,0,0,1-.8-.652l.226-.249a9.74,9.74,0,0,0,.776.644Zm37.849-.624-.226-.249a7.615,7.615,0,0,0,.689-.709l.249.216a7.663,7.663,0,0,1-.711.754Zm-39.358-.761a5.546,5.546,0,0,1-.592-.853l.291-.162a5.622,5.622,0,0,0,.557.8Zm40.676-.811-.293-.167a4.127,4.127,0,0,0,.385-.888l.321.095a4.474,4.474,0,0,1-.413.96Zm-41.674-.995a3.727,3.727,0,0,1-.144-1.03h.336a3.423,3.423,0,0,0,.129.938Zm42.241-.995h-.164l-.169-.032a3.448,3.448,0,0,0-.127-.92l.323-.087a3.761,3.761,0,0,1,.137.995Zm-41.915-.995-.321-.092a4.533,4.533,0,0,1,.41-.962l.291.164A4.3,4.3,0,0,0,535.98,490.484Zm41.084-.853a5.189,5.189,0,0,0-.555-.806l.249-.214a5.658,5.658,0,0,1,.589.855Zm-40.142-.836-.249-.216a7.959,7.959,0,0,1,.716-.746l.226.249a7.013,7.013,0,0,0-.694.7Zm38.908-.684c-.234-.214-.5-.425-.766-.632l.2-.269c.286.211.552.433.793.652Zm-37.463-.667-.2-.269a9.325,9.325,0,0,1,.848-.574l.177.286C538.91,487.067,538.631,487.251,538.367,487.445Zm35.864-.535c-.271-.172-.565-.338-.866-.5l.157-.3c.308.167.607.341.888.512Zm-34.168-.522-.159-.3c.293-.154.6-.306.915-.453l.142.3c-.3.144-.6.293-.89.445Zm32.4-.428c-.3-.137-.607-.274-.92-.4l.144-.3c.321.129.632.269.935.408Zm-30.589-.418-.127-.308c.311-.127.627-.249.95-.366l.117.316c-.313.114-.627.236-.93.358Zm28.729-.343c-.308-.114-.627-.221-.953-.326l.1-.318c.328.1.649.214.962.328Zm-26.839-.338-.1-.321c.321-.1.644-.2.977-.294l.092.323c-.318.092-.647.194-.955.291Zm24.939-.281c-.316-.09-.642-.177-.972-.261l.082-.323c.336.082.661.172.995.264Zm-22.989-.269-.08-.326c.323-.082.654-.162.995-.236l.072.328c-.343.075-.669.152-.992.234Zm21.037-.226c-.323-.07-.652-.139-.995-.2l.065-.331q.5.1.995.209Zm-19.07-.214-.062-.328c.328-.065.661-.124.995-.182l.057.331c-.338.057-.666.117-.995.179Zm17.093-.172c-.328-.057-.659-.109-.995-.159l.047-.331c.338.05.674.1.995.159Zm-15.106-.164-.047-.333c.331-.047.667-.095.995-.134l.042.333c-.331.042-.667.087-.995.134Zm13.114-.129c-.331-.04-.667-.08-.995-.112l.032-.336c.341.035.676.072,1.01.114Zm-11.112-.117-.035-.336c.336-.032.672-.062,1.012-.09l.027.333c-.343.027-.679.057-1.01.092Zm9.1-.09-1.007-.072.02-.333c.343.022.679.045,1.012.072Zm-7.1-.072-.02-.336c.336-.02.674-.035,1.015-.05v.336c-.331.012-.667.03-1,.05Zm5.081-.05q-.5-.02-.995-.03v-.336c.341,0,.679.017,1.015.032Zm-3.064-.03v-.336c.338,0,.677-.012,1.015-.012h.045v.336h-.042c-.353,0-.694,0-1.022.012Z" transform="translate(-531.466 -480.947)" fill="#d6b60b"/>
              <path id="Path_137" data-name="Path 137" d="M607.158,495.1c-.06-1.037-1.087-1.612-2.288-1.612-.5,0-1.181.249-1.176.729,0,1.46,6.981,1.112,7.351,4.648.269,2.542-2.452,3.5-4.75,3.5-.249,0-.465-.018-.679-.032l.035,1.117h-1.244l-.022-1.378a5,5,0,0,1-2.106-1.263l-.224,1.3H598.67l.234-4.1H602.3c0,1.316,1.549,1.542,2.335,1.574.652,0,1.579-.129,1.552-.8-.05-1.209-7.048-.7-6.849-4.444.107-2,2.487-2.875,4.116-2.875q.373,0,.746.037l-.015-.935h1.052l.037,1.129a3.153,3.153,0,0,1,1.741,1.1l.1-1.1h2.877l.343,3.4Z" transform="translate(-578.919 -486.859)" fill="#d6b60b"/>
              <path id="Path_138" data-name="Path 138" d="M565.149,528.786a25.419,25.419,0,0,1-4.6,2.171,38.042,38.042,0,0,1-4.6,1.333c-1.462.331-2.984.6-4.6.8-1.492.187-3.022.313-4.6.376q-1.112.047-2.238.047c-.793,0-1.579-.017-2.353-.05-1.579-.067-3.116-.2-4.6-.388-1.6-.2-3.139-.477-4.6-.813a37.921,37.921,0,0,1-4.6-1.348,25,25,0,0,1-4.6-2.2,10.251,10.251,0,0,1-4.491-4.869v6.163a11.2,11.2,0,0,0,4.491,4.621,25.918,25.918,0,0,0,4.6,2.221,38.261,38.261,0,0,0,4.6,1.39c1.46.346,3,.632,4.6.846q2.238.3,4.6.41,1.164.052,2.353.052,1.119,0,2.238-.05c1.574-.067,3.114-.2,4.6-.4a46.549,46.549,0,0,0,4.6-.836,37.932,37.932,0,0,0,4.6-1.375,26.37,26.37,0,0,0,4.6-2.193,11.306,11.306,0,0,0,4.6-4.688V523.85A10.306,10.306,0,0,1,565.149,528.786Z" transform="translate(-519.273 -511.863)" fill="#ecbd0c"/>
            </g>
            <g id="Group_19" data-name="Group 19" transform="translate(0 14.439)">
              <path id="Path_139" data-name="Path 139" d="M544.487,447.53c-13.947.02-25.237,5.165-25.237,11.512s11.291,11.492,25.237,11.512c13.944-.02,25.237-5.165,25.237-11.512S558.432,447.55,544.487,447.53Z" transform="translate(-519.25 -447.53)" fill="#d9a600"/>
              <path id="Path_140" data-name="Path 140" d="M557.207,455.25c-11.619.015-21.027,3.845-21.027,8.565s9.408,8.55,21.027,8.565,21.027-3.842,21.027-8.565S568.826,455.265,557.207,455.25Z" transform="translate(-531.969 -453.33)" fill="#ffdb05"/>
              <path id="Path_141" data-name="Path 141" d="M556.7,472.083l-.02-.169v-.167h.02c.331,0,.659,0,.995-.012v.336C557.368,472.078,557.037,472.081,556.7,472.083Zm-1.037,0c-.338,0-.679-.017-1.015-.032l.015-.333q.5.02,1.007.03Zm3.044-.03v-.336c.338,0,.674-.03.995-.05l.02.336c-.336.007-.672.022-1.015.037ZM553.637,472c-.341-.022-.677-.045-1.01-.072l.025-.333c.333.027.669.05.995.072Zm7.1-.067-.025-.336c.336-.027.672-.057.995-.09l.032.333c-.323.022-.661.04-.99.08Zm-9.122-.1c-.338-.035-.676-.072-1.01-.114l.042-.331c.331.042.664.077.995.112Zm11.144-.107-.042-.333q.5-.062.995-.134l.05.331-1,.124Zm-13.158-.142c-.341-.047-.674-.1-.995-.157l.052-.331c.331.057.661.107.995.157Zm15.17-.152-.055-.331c.333-.055.664-.114.995-.179l.065.328c-.336.052-.669.114-1.007.169Zm-17.16-.189c-.336-.065-.667-.137-.995-.209l.075-.326c.321.072.652.142.995.206Zm19.164-.2-.07-.328c.333-.072.659-.152.98-.231l.082.326c-.338.072-.671.147-1.007.221Zm-21.139-.249c-.333-.085-.661-.172-.982-.264l.092-.323c.318.09.642.179.97.249Zm23.129-.249-.09-.321c.328-.092.649-.189.965-.291l.1.321c-.348.09-.674.187-1.007.279Zm-25.076-.3c-.328-.1-.649-.216-.962-.328l.112-.316c.311.112.629.219.953.323Zm27.016-.313-.112-.316c.321-.117.634-.249.938-.361l.127.311c-.343.112-.659.234-.985.353Zm-28.928-.38c-.318-.129-.634-.266-.935-.408l.139-.3c.3.139.609.274.92.4Zm30.781-.408-.139-.3c.311-.144.614-.293.9-.445l.159.3C573.185,468.853,572.874,469.007,572.558,469.146Zm-32.661-.473c-.311-.164-.609-.336-.89-.51l.179-.286c.274.172.567.341.865.5Zm34.464-.485-.182-.286c.293-.182.572-.368.828-.557l.2.271a10.229,10.229,0,0,1-.846.577Zm-36.2-.6a9.894,9.894,0,0,1-.8-.654l.226-.249a9.241,9.241,0,0,0,.768.632Zm37.849-.624-.226-.249a7.626,7.626,0,0,0,.689-.709l.249.216a7.986,7.986,0,0,1-.711.746Zm-39.358-.768a5.677,5.677,0,0,1-.592-.853l.291-.164a5.247,5.247,0,0,0,.557.8Zm40.676-.816-.293-.167a4.179,4.179,0,0,0,.385-.888l.321.094a4.473,4.473,0,0,1-.413.96Zm-41.674-.995a3.728,3.728,0,0,1-.144-1.03h.336a3.483,3.483,0,0,0,.129.94Zm42.241-.995h-.164l-.169-.032a3.417,3.417,0,0,0-.127-.918l.323-.092a3.8,3.8,0,0,1,.137,1.01ZM535.98,462.4l-.321-.092a4.555,4.555,0,0,1,.41-.965l.291.169a4.228,4.228,0,0,0-.381.883Zm41.084-.855a5.293,5.293,0,0,0-.555-.8l.249-.214a5.539,5.539,0,0,1,.589.855Zm-40.142-.833-.249-.219a8.3,8.3,0,0,1,.716-.746l.226.249a7.306,7.306,0,0,0-.694.711Zm38.908-.684c-.234-.214-.5-.428-.766-.634l.2-.266c.286.211.552.433.793.652Zm-37.463-.662-.2-.269a8.832,8.832,0,0,1,.848-.574l.177.284C538.91,458.985,538.631,459.171,538.367,459.363Zm35.864-.537c-.271-.169-.565-.338-.866-.5l.157-.3c.308.167.607.338.888.512Zm-34.168-.52-.159-.3c.293-.154.6-.308.915-.453l.142.3c-.3.144-.6.293-.89.445Zm32.4-.428c-.3-.139-.607-.274-.92-.4l.127-.308c.321.129.632.266.935.408Zm-30.589-.418-.127-.311c.311-.124.627-.249.95-.366l.117.318c-.313.107-.627.236-.93.356Zm28.729-.346c-.308-.112-.627-.219-.953-.326l.1-.316q.5.157.962.328Zm-26.839-.338-.1-.318c.321-.1.644-.2.977-.3l.092.326c-.318.092-.647.189-.955.289Zm24.939-.279c-.316-.092-.642-.177-.972-.261l.082-.326c.336.085.661.174.995.264Zm-22.989-.271-.08-.326c.323-.08.654-.159.995-.234l.072.328c-.343.072-.669.149-.992.231Zm21.037-.221c-.323-.075-.652-.142-.995-.206l.065-.331c.336.067.667.134.995.209Zm-19.07-.216-.067-.321c.328-.065.662-.124.995-.182l.057.331c-.333.047-.661.1-.99.172Zm17.093-.174c-.328-.055-.659-.109-.995-.157l.047-.333c.338.05.674.1.995.159Zm-15.106-.162-.047-.333c.331-.047.667-.092.995-.134l.042.333c-.331.04-.667.085-.995.134Zm13.114-.132c-.331-.04-.667-.077-.995-.112l.032-.333c.341.035.676.072,1.01.114Zm-11.112-.117-.035-.333c.336-.032.672-.065,1.012-.09l.027.333c-.343.027-.679.057-1.01.09Zm9.1-.087c-.333-.025-.669-.05-1.007-.07l.02-.336c.343.02.679.045,1.012.072Zm-7.1-.072-.02-.336c.336-.02.674-.037,1.015-.05V455c-.331.012-.667.03-1,.05Zm5.081-.05c-.333-.012-.669-.025-.995-.03v-.336q.512,0,1.015.03Zm-3.069-.025v-.336h1.06v.336h-.042C556.365,454.953,556.025,454.956,555.7,454.971Z" transform="translate(-531.466 -452.864)" fill="#d6b60b"/>
              <path id="Path_142" data-name="Path 142" d="M607.158,466.974c-.06-1.037-1.087-1.614-2.288-1.614-.5,0-1.181.249-1.176.731,0,1.46,6.981,1.112,7.351,4.646.269,2.547-2.452,3.5-4.75,3.5-.249,0-.465-.017-.679-.035l.035,1.119h-1.244l-.022-1.378a5.021,5.021,0,0,1-2.106-1.263l-.224,1.3H598.67l.234-4.1H602.3c0,1.316,1.549,1.542,2.335,1.574.652,0,1.579-.129,1.552-.8-.05-1.209-7.048-.7-6.849-4.447.107-2,2.487-2.872,4.116-2.872a6.876,6.876,0,0,1,.746.037l-.015-.938h1.052l.037,1.132a3.154,3.154,0,0,1,1.741,1.1l.1-1.1h2.877l.343,3.4Z" transform="translate(-578.919 -458.732)" fill="#d6b60b"/>
              <path id="Path_143" data-name="Path 143" d="M565.149,500.666a25.417,25.417,0,0,1-4.6,2.171,38.965,38.965,0,0,1-4.6,1.333c-1.462.328-2.984.6-4.6.8-1.492.184-3.022.313-4.6.376-.746.03-1.492.047-2.238.047-.793,0-1.579-.017-2.353-.05-1.579-.067-3.116-.2-4.6-.388-1.6-.2-3.139-.48-4.6-.813a37.916,37.916,0,0,1-4.6-1.35,25.168,25.168,0,0,1-4.6-2.2,10.241,10.241,0,0,1-4.491-4.869v6.163a11.2,11.2,0,0,0,4.491,4.621,25.92,25.92,0,0,0,4.588,2.216,38.691,38.691,0,0,0,4.6,1.39,46.3,46.3,0,0,0,4.6.846q2.238.3,4.6.41c.776.032,1.559.052,2.353.055.746,0,1.492-.02,2.238-.052,1.574-.067,3.114-.2,4.6-.4,1.6-.211,3.136-.5,4.6-.836a38.817,38.817,0,0,0,4.6-1.375,26.188,26.188,0,0,0,4.6-2.2,11.3,11.3,0,0,0,4.6-4.685V495.73A10.3,10.3,0,0,1,565.149,500.666Z" transform="translate(-519.273 -483.743)" fill="#ecbd0c"/>
            </g>
            <g id="Group_20" data-name="Group 20" transform="translate(0 7.22)">
              <path id="Path_144" data-name="Path 144" d="M544.487,418.5c-13.947.017-25.237,5.165-25.237,11.51s11.291,11.495,25.237,11.515c13.944-.02,25.237-5.168,25.237-11.515S558.432,418.517,544.487,418.5Z" transform="translate(-519.25 -418.5)" fill="#d9a600"/>
              <path id="Path_145" data-name="Path 145" d="M557.207,426.22c-11.619,0-21.027,3.842-21.027,8.565s9.406,8.54,21.027,8.562,21.027-3.842,21.027-8.562S568.826,426.232,557.207,426.22Z" transform="translate(-531.969 -424.3)" fill="#ffdb05"/>
              <path id="Path_146" data-name="Path 146" d="M556.7,443.028l-.02-.169v-.167H557.7v.336C557.368,443.026,557.037,443.028,556.7,443.028Zm-1.037,0c-.338,0-.679-.017-1.015-.032l.015-.336c.333.015.669.025,1.007.032Zm3.044-.03v-.336c.338-.012.674-.03.995-.05l.02.336c-.336.01-.672.025-1.015.04Zm-5.073-.052c-.341-.022-.677-.045-1.01-.072l.025-.333.995.07Zm7.1-.067-.025-.336c.336-.027.672-.057.995-.09l.032.333Zm-9.122-.1c-.338-.035-.676-.072-1.01-.114l.042-.333c.331.042.664.08.995.114Zm11.144-.107-.042-.336c.338-.04.671-.085.995-.132l.05.331c-.326.05-.664.085-1,.127Zm-13.158-.142c-.341-.05-.674-.1-.995-.159l.052-.331c.331.055.661.109.995.159Zm15.17-.152-.055-.331c.333-.057.664-.117.995-.179l.065.328c-.336.052-.669.112-1.007.172Zm-17.16-.189c-.336-.067-.667-.134-.995-.209l.075-.328c.321.072.652.139.995.209Zm19.164-.2-.07-.328c.333-.075.659-.152.98-.231l.082.326c-.338.082-.671.147-1.007.224Zm-21.139-.249c-.333-.085-.661-.172-.982-.264l.092-.323q.478.134.97.249Zm23.129-.249-.09-.323c.328-.092.649-.189.965-.288l.1.321c-.348.09-.674.189-1.007.281Zm-25.076-.306q-.5-.157-.962-.328l.112-.316c.311.114.629.221.953.326Zm27.016-.313-.112-.316c.321-.114.634-.236.938-.358l.127.311c-.343.114-.659.236-.985.353Zm-28.928-.38c-.318-.129-.634-.264-.935-.405l.139-.3c.3.137.609.274.92.4Zm30.781-.4-.139-.306c.311-.144.614-.291.9-.445l.159.3C573.185,439.8,572.874,439.952,572.558,440.1Zm-32.661-.473c-.311-.164-.609-.336-.89-.5l.179-.286c.274.172.567.338.865.5Zm34.464-.5-.182-.274c.293-.179.572-.368.828-.557l.2.271c-.259.189-.545.383-.846.567Zm-36.2-.6a9.907,9.907,0,0,1-.8-.654l.226-.249a9.736,9.736,0,0,0,.768.629Zm37.849-.624-.226-.249a7.622,7.622,0,0,0,.689-.709l.249.216a7.7,7.7,0,0,1-.711.749Zm-39.358-.766a5.675,5.675,0,0,1-.592-.853l.291-.167a5.383,5.383,0,0,0,.557.806Zm40.676-.816-.293-.167a4.23,4.23,0,0,0,.385-.888l.321.095A4.584,4.584,0,0,1,577.328,436.328Zm-41.674-.995a3.751,3.751,0,0,1-.144-1.03h.336a3.484,3.484,0,0,0,.129.94Zm42.241-.995h-.164l-.169-.032a3.421,3.421,0,0,0-.127-.92l.323-.09a3.8,3.8,0,0,1,.137,1.01Zm-41.915-.995-.321-.092a4.532,4.532,0,0,1,.41-.962l.291.167a4.342,4.342,0,0,0-.381.88Zm41.084-.853a5.188,5.188,0,0,0-.555-.806l.249-.211a5.532,5.532,0,0,1,.589.856Zm-40.142-.846-.249-.216a7.658,7.658,0,0,1,.716-.746l.226.249A7.3,7.3,0,0,0,536.922,431.646Zm38.908-.684c-.234-.214-.5-.425-.766-.632l.2-.269c.286.214.552.435.793.654Zm-37.463-.652-.2-.271c.249-.194.547-.385.848-.575l.177.286C538.91,429.932,538.631,430.121,538.367,430.31Zm35.864-.537c-.271-.169-.565-.338-.866-.5l.157-.3c.308.167.607.338.888.51Zm-34.168-.522-.159-.293c.293-.154.6-.308.915-.453l.142.3c-.3.142-.6.293-.89.443Zm32.4-.425c-.3-.139-.607-.276-.92-.4l.127-.313c.321.132.632.269.935.41Zm-30.589-.418-.127-.311c.311-.124.627-.249.95-.363l.117.316c-.313.114-.627.236-.93.363Zm28.729-.346c-.308-.112-.627-.221-.953-.323l.1-.321c.328.1.649.216.962.328Zm-26.839-.336-.1-.321c.321-.1.644-.2.977-.3l.092.323c-.318.095-.647.189-.955.293Zm24.939-.281c-.316-.092-.642-.177-.972-.261l.082-.326c.336.085.661.174.995.264Zm-22.994-.276-.08-.326c.323-.082.654-.159.995-.234l.072.326Zm21.037-.224c-.323-.072-.652-.142-.995-.206l.065-.328c.336.065.667.134.995.206Zm-19.07-.214-.062-.328c.328-.065.662-.124.995-.184l.057.331c-.333.062-.661.122-.99.187Zm17.093-.174c-.328-.055-.659-.109-.995-.157l.047-.333c.338.05.674.1.995.159Zm-15.106-.164-.047-.331c.331-.05.667-.095.995-.137l.042.333c-.326.047-.662.092-.99.139Zm13.114-.129c-.331-.04-.667-.08-.995-.114l.032-.333c.341.035.676.075,1.01.114Zm-11.112-.117-.035-.333c.336-.035.672-.065,1.012-.09l.027.331Zm9.1-.087c-.333-.027-.669-.052-1.007-.072l.02-.333c.343.02.679.045,1.012.07Zm-7.1-.075-.02-.333q.5-.03,1.015-.052v.336c-.326.017-.661.035-.995.055Zm5.081-.047c-.333-.012-.669-.025-.995-.032v-.333c.341,0,.679.015,1.015.03Zm-3.064-.032v-.336h1.06v.336h-.042c-.348-.008-.689,0-1.017,0Z" transform="translate(-531.466 -423.812)" fill="#d6b60b"/>
              <path id="Path_147" data-name="Path 147" d="M607.158,437.944c-.06-1.039-1.087-1.614-2.288-1.614-.5,0-1.181.249-1.176.729,0,1.462,6.981,1.114,7.351,4.648.269,2.544-2.452,3.5-4.75,3.5-.249,0-.465-.017-.679-.032l.035,1.119h-1.244l-.022-1.378a5,5,0,0,1-2.106-1.266l-.224,1.3H598.67l.234-4.1H602.3c0,1.318,1.549,1.542,2.335,1.574.652,0,1.579-.129,1.552-.8-.05-1.206-7.048-.7-6.849-4.444.107-2,2.487-2.875,4.116-2.875a6.886,6.886,0,0,1,.746.04l-.015-.938h1.052l.037,1.129a3.158,3.158,0,0,1,1.741,1.1l.1-1.1h2.877l.343,3.4Z" transform="translate(-578.919 -429.702)" fill="#d6b60b"/>
              <path id="Path_148" data-name="Path 148" d="M565.149,471.637a25.425,25.425,0,0,1-4.6,2.169,38.507,38.507,0,0,1-4.6,1.335c-1.462.328-2.984.6-4.6.8-1.492.187-3.022.313-4.6.378-.746.03-1.492.047-2.238.047-.793,0-1.579-.02-2.353-.05-1.579-.07-3.116-.2-4.6-.388-1.6-.206-3.139-.483-4.6-.816a37.911,37.911,0,0,1-4.6-1.348,25.167,25.167,0,0,1-4.6-2.2,10.251,10.251,0,0,1-4.491-4.869v6.16a11.167,11.167,0,0,0,4.491,4.621,25.925,25.925,0,0,0,4.588,2.226,38.253,38.253,0,0,0,4.6,1.388c1.46.346,3,.632,4.6.848q2.238.3,4.6.408,1.164.052,2.353.055,1.119,0,2.238-.05c1.574-.067,3.114-.2,4.6-.4,1.6-.209,3.136-.5,4.6-.833a38.8,38.8,0,0,0,4.6-1.375,26.36,26.36,0,0,0,4.6-2.2,11.292,11.292,0,0,0,4.6-4.688V466.7A10.356,10.356,0,0,1,565.149,471.637Z" transform="translate(-519.273 -454.713)" fill="#ecbd0c"/>
            </g>
            <g id="Group_21" data-name="Group 21">
              <path id="Path_149" data-name="Path 149" d="M544.487,389.47c-13.947.017-25.237,5.163-25.237,11.51s11.291,11.5,25.237,11.5c13.944-.02,25.237-5.165,25.237-11.512S558.432,389.487,544.487,389.47Z" transform="translate(-519.25 -389.47)" fill="#ffcc05"/>
              <path id="Path_150" data-name="Path 150" d="M557.207,397.19c-11.619.012-21.027,3.842-21.027,8.563s9.406,8.55,21.027,8.565,21.027-3.842,21.027-8.565S568.826,397.2,557.207,397.19Z" transform="translate(-531.969 -395.27)" fill="#fff" opacity="0.2"/>
              <path id="Path_151" data-name="Path 151" d="M565.149,442.6a25.427,25.427,0,0,1-4.6,2.171,38.506,38.506,0,0,1-4.6,1.333q-2.193.5-4.6.8c-1.492.184-3.022.313-4.6.378q-1.112.045-2.238.047c-.793,0-1.579-.017-2.353-.052-1.579-.067-3.116-.2-4.6-.388-1.6-.2-3.139-.48-4.6-.813a37.922,37.922,0,0,1-4.6-1.35,24.842,24.842,0,0,1-4.6-2.2,10.236,10.236,0,0,1-4.491-4.867v6.16a11.2,11.2,0,0,0,4.491,4.621,25.923,25.923,0,0,0,4.588,2.233,38.25,38.25,0,0,0,4.6,1.39c1.46.346,3,.632,4.6.846q2.238.3,4.6.41,1.164.052,2.353.052,1.119,0,2.238-.05c1.574-.067,3.114-.2,4.6-.4,1.6-.209,3.136-.5,4.6-.836a38.367,38.367,0,0,0,4.6-1.375,26.184,26.184,0,0,0,4.6-2.2,11.3,11.3,0,0,0,4.6-4.685V437.67A10.309,10.309,0,0,1,565.149,442.6Z" transform="translate(-519.273 -425.683)" fill="#ecbd0c"/>
              <path id="Path_152" data-name="Path 152" d="M557.194,414.7h0c-10.216-.012-21.074-3.158-21.074-8.965s10.858-8.953,21.074-8.953,21.077,3.158,21.077,8.953S567.411,414.686,557.194,414.7Zm0-15.439c-10.943.012-18.582,3.422-18.582,6.466s7.632,6.466,18.585,6.466,18.582-3.422,18.582-6.466-7.635-6.454-18.587-6.466Z" transform="translate(-531.924 -394.962)" fill="#d9a600"/>
            </g>
          </g>
          <path id="Path_153" data-name="Path 153" d="M606.828,420.357l-3.345-1.465.5-.231a3.236,3.236,0,0,0,.9-.522c.084-.1,0-.209-.249-.313a1.318,1.318,0,0,0-.644-.094,2.375,2.375,0,0,0-.763.219c-.465.211-.689.405-.676.579a4.536,4.536,0,0,0,.647,1.3,5.279,5.279,0,0,1,.654,1.316,1.114,1.114,0,0,1-.286.91,4.175,4.175,0,0,1-1.472,1.057,8.984,8.984,0,0,1-3.731.957,9.661,9.661,0,0,1-3.89-.7l-1.345.632-1.477-.791,1.388-.634a1.932,1.932,0,0,1-1.1-1.6c.012-.589.771-1.181,2.238-1.815l.634-.274,3.086,1.472-.8.366a10.072,10.072,0,0,0-1.574.811c-.154.134-.107.266.147.393a1.365,1.365,0,0,0,.719.137,2.4,2.4,0,0,0,.841-.236,6.449,6.449,0,0,0,1.438-.816c.214-.194.206-.517-.015-.962a7.792,7.792,0,0,1-.612-1.492,1.129,1.129,0,0,1,.306-.908,3.358,3.358,0,0,1,1.306-.88,6.921,6.921,0,0,1,2.81-.557,10.516,10.516,0,0,1,3.255.592l.885-.405,1.477.6-.87.4c.9.472,1.383.933,1.427,1.38s-.358.9-1.221,1.326C607.3,420.155,607.1,420.242,606.828,420.357Z" transform="translate(-573.645 -409.558)" fill="#d9a600"/>
        </g>
      </g>
      <g id="Group_25" data-name="Group 25" transform="translate(68.977 98.473)">
        <path id="Path_154" data-name="Path 154" d="M380.008,565.193a23.8,23.8,0,1,1,33.176-5.658A23.8,23.8,0,0,1,380.008,565.193Z" transform="translate(-369.967 -521.977)" fill="#fcc902"/>
        <path id="Path_155" data-name="Path 155" d="M391.883,548.427a19.241,19.241,0,1,1,4.566,26.824A19.241,19.241,0,0,1,391.883,548.427Zm28.913,20.5a16.2,16.2,0,1,0-22.589,3.847A16.2,16.2,0,0,0,420.8,568.927Z" transform="translate(-383.775 -535.753)" fill="#d6a300"/>
        <path id="Path_156" data-name="Path 156" d="M407.361,581.951a16.2,16.2,0,1,1,22.589-3.845A16.2,16.2,0,0,1,407.361,581.951Z" transform="translate(-392.929 -544.932)" fill="#fcfcfc" opacity="0.2"/>
        <path id="Path_157" data-name="Path 157" d="M434.872,598.461l2.877-4.059.674.478a5.513,5.513,0,0,0,1.492.855.716.716,0,0,0,.759-.368.746.746,0,0,0,.109-.746,1.947,1.947,0,0,0-.726-.8,2.28,2.28,0,0,0-1.607-.565,19.512,19.512,0,0,0-3.039,1.134,20.28,20.28,0,0,1-2.92,1.084,4.741,4.741,0,0,1-2.079-.05,7.106,7.106,0,0,1-2.539-1.219,6.3,6.3,0,0,1-2.664-3.459,5.851,5.851,0,0,1,.7-4.215l-1.527-1.082,1.323-1.87,1.577,1.119a5.968,5.968,0,0,1,3.273-1.955q1.952-.445,4.663,1.492l.791.562-2.875,4.059-.995-.706a10.555,10.555,0,0,0-2.131-1.328.689.689,0,0,0-.826.326.861.861,0,0,0-.159.808,1.7,1.7,0,0,0,.676.781,8.5,8.5,0,0,0,2.089,1.194,3.553,3.553,0,0,0,2.206-.4,34.861,34.861,0,0,1,3.512-1.318,5.564,5.564,0,0,1,2.36-.062,6.189,6.189,0,0,1,2.594,1.109,4.73,4.73,0,0,1,2.124,3.052,6.153,6.153,0,0,1-.915,3.979l1.3.92-1.326,1.868-1.293-.918a5.463,5.463,0,0,1-3.255,1.917,4.91,4.91,0,0,1-3.482-1.064A8.192,8.192,0,0,1,434.872,598.461Z" transform="translate(-410.848 -567.573)" fill="#d6a300"/>
      </g>
    </g>
  </g>
</svg>
