<?xml version="1.0" standalone="no"?>
<!DOCTYPE svg PUBLIC "-//W3C//DTD SVG 20010904//EN"
 "http://www.w3.org/TR/2001/REC-SVG-20010904/DTD/svg10.dtd">
<svg version="1.0" xmlns="http://www.w3.org/2000/svg"
 width="1379.000000pt" height="1379.000000pt" viewBox="0 0 1379.000000 1379.000000"
 preserveAspectRatio="xMidYMid meet">
<metadata>
Created by potrace 1.14, written by Peter Selinger 2001-2017
</metadata>
<g transform="translate(0.000000,1379.000000) scale(0.100000,-0.100000)"
fill="#000000" stroke="none">
<path d="M510 9997 c-3 -3 -27 -8 -55 -11 -140 -18 -253 -62 -298 -116 -62
-73 -60 -202 5 -280 55 -67 149 -93 326 -90 432 7 778 2 977 -14 28 -2 97 -7
155 -11 58 -4 112 -9 120 -10 8 -2 53 -6 100 -9 47 -4 96 -9 110 -11 14 -2 50
-7 80 -10 30 -3 66 -7 80 -9 14 -3 42 -7 63 -10 21 -4 73 -13 115 -22 710
-142 1272 -496 1401 -881 26 -76 31 -116 31 -213 0 -376 -195 -634 -690 -912
-428 -241 -980 -456 -1780 -693 -200 -59 -306 -92 -500 -155 -250 -81 -452
-192 -540 -298 -17 -20 -45 -66 -63 -102 -29 -59 -32 -72 -32 -165 0 -93 3
-105 32 -163 92 -180 298 -304 662 -398 106 -28 271 -64 289 -64 1 0 1 75 0
166 l-3 166 -138 39 c-228 65 -327 128 -327 210 0 100 143 179 436 243 128 27
774 207 1005 279 l77 24 62 -141 c339 -768 618 -1384 781 -1724 198 -411 446
-674 729 -774 72 -26 238 -35 322 -18 137 27 248 113 311 243 36 74 67 181 67
232 0 26 -2 24 -25 -21 -30 -60 -95 -128 -150 -157 -31 -16 -59 -21 -120 -21
-71 -1 -86 3 -135 29 -193 105 -465 522 -725 1110 -117 265 -304 711 -518
1232 l-74 182 46 17 c258 95 550 224 696 307 388 221 638 438 810 705 90 141
146 276 181 442 21 102 24 334 5 425 -90 431 -399 785 -893 1024 -302 146
-675 261 -1073 331 -33 5 -69 12 -80 14 -23 4 -94 14 -145 21 -19 2 -51 6 -70
9 -19 2 -62 7 -95 11 -33 4 -76 8 -95 10 -19 3 -82 7 -140 10 -58 4 -123 9
-145 12 -51 6 -1159 16 -1165 10z"/>
<path d="M5391 9951 c-22 -22 -47 -54 -57 -72 -17 -34 -22 -121 -11 -199 3
-25 9 -90 12 -145 4 -55 8 -116 11 -135 2 -19 6 -139 10 -266 l7 -230 -39 -37
c-147 -139 -363 -151 -453 -26 -30 40 -51 113 -51 173 0 18 9 69 21 115 20 80
20 83 2 96 -30 23 -40 17 -62 -37 -49 -124 -71 -300 -52 -411 21 -120 72 -204
155 -252 190 -110 504 37 555 260 32 139 36 197 35 500 -1 312 -9 275 68 340
l28 24 -50 103 c-28 57 -56 131 -63 165 -7 34 -15 65 -19 68 -3 4 -24 -11 -47
-34z"/>
<path d="M5767 9921 c-47 -49 -65 -74 -62 -89 4 -21 15 -169 20 -262 8 -153
16 -360 20 -485 6 -205 37 -286 132 -342 45 -27 54 -28 168 -28 233 0 324 63
370 256 30 129 16 230 -57 398 l-41 94 -22 -27 c-12 -15 -41 -60 -64 -101
l-42 -74 39 -78 c57 -114 75 -160 69 -176 -11 -29 -225 -57 -321 -43 -58 9
-93 44 -100 99 -3 23 -8 211 -10 417 -4 396 -9 487 -23 501 -6 6 -36 -19 -76
-60z"/>
<path d="M9960 9967 c-14 -13 -44 -44 -68 -70 -35 -39 -42 -53 -38 -75 5 -25
12 -118 21 -267 2 -33 6 -143 10 -245 12 -376 15 -402 52 -475 43 -82 103
-116 219 -121 107 -5 161 14 228 78 l51 49 17 -23 c57 -75 113 -100 228 -104
48 -2 104 2 124 8 89 28 154 122 198 286 21 79 23 109 23 325 0 130 2 237 5
237 3 0 24 18 48 39 l42 38 -50 105 c-27 58 -55 131 -61 164 -7 32 -15 63 -19
67 -10 11 -85 -67 -105 -110 -10 -20 -18 -55 -18 -77 0 -46 12 -217 18 -247 5
-26 17 -301 17 -410 1 -105 -9 -131 -64 -158 -30 -14 -58 -18 -121 -17 -144 2
-203 54 -193 171 2 33 7 72 11 88 l5 27 -48 -32 c-44 -28 -52 -40 -73 -101
-28 -81 -63 -120 -127 -142 -57 -19 -159 -19 -204 0 -66 27 -67 33 -72 496 -3
228 -7 423 -10 434 -2 11 -5 35 -5 53 -1 38 -7 39 -41 9z"/>
<path d="M9086 9734 l-58 -76 81 -79 c45 -44 83 -79 85 -79 7 0 86 109 86 120
0 5 5 10 10 10 23 0 7 28 -48 85 -103 108 -89 106 -156 19z"/>
<path d="M8834 9747 c-16 -23 -41 -57 -54 -74 l-24 -33 84 -80 c45 -44 84 -79
85 -78 120 165 117 142 30 232 -41 42 -78 76 -82 76 -4 -1 -22 -20 -39 -43z"/>
<path d="M11676 9618 c-70 -111 -69 -106 -41 -205 43 -146 75 -321 65 -348
-20 -53 -162 -112 -248 -102 -72 8 -104 44 -127 143 -2 6 -18 8 -40 6 l-36 -4
2 -100 c3 -202 60 -289 190 -294 141 -5 271 67 301 167 6 23 14 36 16 28 45
-147 138 -208 292 -195 79 6 135 34 187 94 l32 37 17 -23 c25 -36 56 -62 99
-85 32 -16 59 -21 140 -21 119 -1 168 16 230 79 l40 40 30 -34 c16 -19 54 -46
85 -59 47 -22 70 -26 175 -27 377 -7 572 151 567 458 0 50 -7 82 -27 124 -47
103 -105 145 -205 149 -55 3 -75 -2 -130 -28 -90 -43 -206 -162 -295 -302
l-69 -108 -28 31 c-25 28 -30 47 -30 111 0 3 3 27 7 53 6 45 5 48 -12 38 -43
-24 -82 -71 -93 -112 -27 -107 -73 -153 -166 -165 -106 -13 -184 10 -223 65
-24 33 -30 121 -12 179 12 41 -1 42 -53 2 -31 -24 -44 -43 -58 -88 -25 -83
-67 -128 -135 -148 -71 -21 -170 -15 -207 12 -47 34 -79 117 -100 259 -4 23
-9 52 -11 65 -3 14 -12 61 -20 105 -8 44 -17 91 -20 105 -2 14 -7 34 -9 45
-12 58 -28 105 -37 105 -5 0 -24 -24 -43 -52z m1795 -421 c33 -29 55 -66 63
-104 7 -29 4 -33 -40 -59 -75 -44 -166 -65 -294 -69 -63 -2 -130 -1 -148 2
l-33 5 27 37 c142 191 328 274 425 188z"/>
<path d="M9513 9417 c-17 -29 -42 -72 -56 -97 l-26 -45 38 -80 c21 -44 46
-102 56 -129 24 -64 31 -59 -142 -100 -56 -13 -124 -27 -150 -31 -26 -4 -59
-9 -73 -11 -14 -2 -75 -4 -135 -4 -244 -2 -410 70 -476 207 -26 55 -34 160
-17 235 6 27 9 50 7 52 -2 2 -18 7 -36 10 -30 7 -32 6 -47 -41 -60 -185 -61
-360 0 -488 42 -90 177 -188 295 -214 95 -21 265 -29 354 -16 144 21 191 31
280 60 180 60 215 88 254 208 53 162 44 259 -43 450 -19 41 -39 77 -43 80 -5
3 -23 -17 -40 -46z"/>
<path d="M6971 9412 c-89 -49 -169 -166 -190 -277 -29 -154 21 -273 134 -321
44 -18 172 -26 217 -14 15 5 28 5 28 2 0 -16 -71 -112 -113 -151 -137 -130
-283 -183 -405 -145 -26 7 -48 14 -49 14 0 0 -6 -14 -12 -31 -14 -39 -8 -46
68 -92 83 -49 167 -79 235 -82 83 -5 148 27 221 108 64 70 92 116 129 213 98
259 51 624 -98 763 -35 33 -117 39 -165 13z m112 -231 c33 -30 73 -94 82 -133
l7 -28 -74 0 c-78 0 -148 19 -184 48 -29 25 -46 59 -39 81 9 31 53 64 92 71
44 7 77 -4 116 -39z"/>
<path d="M7777 9271 c-26 -54 -47 -104 -47 -109 0 -6 14 -35 31 -64 70 -117
112 -213 112 -251 -2 -86 -154 -266 -275 -326 -65 -32 -72 -33 -152 -29 l-85
6 -6 -29 c-4 -16 -4 -33 -1 -38 4 -5 36 -24 72 -41 130 -61 242 -75 316 -38
81 40 171 166 209 292 40 133 44 382 9 486 -32 93 -108 240 -124 240 -7 0 -34
-44 -59 -99z"/>
<path d="M124 9008 c-12 -19 -1 -510 13 -598 67 -438 276 -793 596 -1010 79
-54 246 -140 270 -140 9 0 18 -4 21 -9 3 -4 41 -18 86 -31 l80 -23 0 -213 0
-213 63 19 c62 18 258 79 455 142 l102 32 0 116 0 115 88 28 c48 15 101 34
117 41 268 120 454 272 603 491 36 53 89 154 135 255 30 65 77 222 93 308 2
12 6 34 9 50 16 80 20 160 20 392 l0 255 -1373 0 c-756 0 -1376 -3 -1378 -7z"/>
<path d="M6319 8448 c-24 -29 -47 -54 -51 -56 -15 -7 -8 -21 36 -69 24 -26 53
-59 65 -73 l21 -25 55 59 c30 33 55 63 55 67 0 7 -79 108 -107 137 -19 20 -27
15 -74 -40z"/>
<path d="M6091 8449 c-79 -93 -78 -77 -9 -155 34 -38 64 -70 68 -72 9 -3 76
63 97 95 14 22 13 26 -11 61 -33 48 -93 112 -103 112 -4 -1 -23 -19 -42 -41z"/>
<path d="M10483 8428 c-29 -34 -52 -67 -51 -73 0 -5 29 -41 63 -79 l62 -68 26
26 c50 50 79 95 73 113 -3 10 -32 47 -63 82 l-58 63 -52 -64z"/>
<path d="M12323 8431 c-29 -32 -54 -63 -55 -69 -2 -5 26 -42 61 -81 l64 -72
34 33 c19 18 43 48 55 66 l20 33 -28 37 c-15 20 -44 54 -64 75 l-35 38 -52
-60z"/>
<path d="M10243 8415 c-29 -34 -53 -66 -53 -71 1 -5 30 -40 66 -79 l65 -69 45
49 c70 77 70 74 10 146 -80 97 -73 96 -133 24z"/>
<path d="M12095 8433 c-82 -97 -81 -79 -5 -162 l67 -74 47 49 c25 27 49 57 52
67 6 19 -23 63 -86 130 l-35 38 -40 -48z"/>
<path d="M6781 7592 c-5 -2 44 -78 110 -170 66 -92 143 -201 172 -242 29 -41
209 -294 401 -563 l348 -487 0 -400 c-1 -301 2 -400 11 -401 7 -1 136 -2 288
-3 l276 -1 0 401 1 402 106 158 c59 88 177 260 261 384 85 124 197 288 249
365 52 77 158 233 236 348 77 114 140 207 138 208 -2 0 -164 1 -360 2 l-358 2
-62 -100 c-34 -55 -80 -129 -103 -165 -23 -36 -72 -114 -110 -175 -37 -60 -82
-132 -100 -160 -18 -27 -63 -99 -100 -160 -38 -60 -74 -118 -81 -129 -11 -16
-23 -2 -121 145 -59 90 -112 172 -118 182 -25 44 -332 512 -351 535 l-21 25
-351 1 c-194 1 -356 0 -361 -2z"/>
<path d="M9716 7317 c-66 -155 -127 -300 -137 -322 -10 -22 -36 -85 -59 -140
-23 -55 -50 -119 -61 -142 -10 -24 -35 -82 -55 -130 -20 -49 -44 -106 -54
-128 -10 -22 -48 -112 -85 -200 -36 -88 -72 -173 -80 -190 -21 -50 -96 -226
-127 -300 -16 -38 -38 -88 -48 -110 -10 -22 -38 -89 -63 -150 -25 -60 -53
-127 -61 -147 l-16 -37 318 2 317 2 77 190 76 190 602 0 602 0 39 -95 c22 -52
58 -138 80 -191 l40 -97 314 0 313 -1 -25 62 c-25 63 -38 94 -66 157 -9 19
-25 60 -37 90 -12 30 -28 71 -37 90 -22 49 -28 65 -143 340 -56 135 -127 304
-157 375 -30 72 -81 195 -114 275 -34 80 -65 154 -69 165 -14 30 -116 275
-215 513 l-89 212 -430 0 -431 0 -119 -283z m689 -467 c48 -118 127 -310 175
-427 l87 -211 -26 -4 c-14 -1 -195 -3 -401 -2 -358 0 -375 1 -372 19 2 10 35
95 73 189 39 94 104 254 145 356 41 102 80 199 88 215 7 17 18 42 24 57 11 26
15 28 65 26 l54 -2 88 -216z"/>
<path d="M11806 7577 c-3 -12 -4 -524 -3 -1137 l2 -1115 938 -2 937 -2 0 289
c0 269 -1 290 -17 291 -10 0 -300 1 -645 1 -346 1 -629 4 -629 7 -1 3 -2 384
-3 846 l-1 840 -287 2 -288 2 -4 -22z"/>
<path d="M4776 7574 c-242 -53 -444 -227 -531 -457 -26 -69 -31 -90 -42 -172
-8 -65 -8 -880 0 -965 21 -202 148 -407 325 -523 70 -45 172 -90 232 -101 19
-3 46 -9 60 -12 36 -7 1155 -7 1220 1 147 18 324 110 422 220 66 74 81 94 118
167 80 153 82 171 84 698 2 498 -2 560 -47 682 -37 102 -84 175 -167 259 -86
86 -180 146 -295 186 l-80 27 -615 3 c-516 1 -626 -1 -684 -13z m1249 -560
c24 -13 51 -39 69 -68 l29 -46 0 -433 c0 -394 -1 -435 -18 -467 -24 -49 -44
-69 -87 -91 -35 -18 -67 -19 -585 -19 -512 0 -551 2 -589 19 -49 22 -80 60
-95 113 -6 25 -10 191 -9 454 0 332 3 422 14 449 17 41 66 86 109 101 22 8
203 11 577 10 532 -1 546 -1 585 -22z"/>
<path d="M1600 6223 c-107 -30 -224 -63 -260 -73 -36 -11 -84 -24 -107 -30
l-43 -11 0 -609 c0 -336 2 -610 4 -610 2 0 116 39 253 86 136 47 255 87 263
89 8 2 33 10 55 18 l40 14 3 592 c1 325 -1 591 -5 590 -5 0 -96 -25 -203 -56z"/>
<path d="M1900 5346 l0 -152 54 -17 c91 -29 96 -58 18 -100 -26 -14 -63 -30
-82 -35 -19 -6 -120 -40 -225 -77 -104 -37 -208 -73 -230 -80 -47 -16 -462
-159 -725 -251 -102 -36 -205 -71 -230 -79 -25 -7 -97 -32 -160 -55 -63 -23
-122 -43 -130 -45 -34 -7 -84 -32 -75 -37 6 -3 134 28 285 68 151 41 345 92
430 115 85 22 180 47 210 55 30 8 62 17 70 19 8 1 152 39 320 83 168 44 377
99 465 122 264 69 392 121 458 185 97 95 54 226 -104 318 -49 29 -190 78 -287
101 l-62 14 0 -152z"/>
<path d="M1800 4766 c-3 -3 -100 -30 -215 -60 -116 -31 -246 -65 -290 -77 -44
-12 -87 -23 -96 -25 -9 -3 -20 -24 -27 -55 -28 -120 -122 -249 -222 -303 -28
-15 -153 -61 -277 -102 -341 -111 -491 -193 -544 -296 l-19 -38 1385 0 c1156
0 1385 2 1385 13 0 23 -58 95 -103 128 -23 17 -80 49 -127 71 -47 22 -92 43
-100 47 -8 4 -103 36 -210 70 -107 34 -227 78 -267 97 -162 80 -248 224 -262
437 -3 55 -8 96 -11 93z"/>
<path d="M11126 4734 c-83 -16 -175 -58 -239 -110 -55 -45 -127 -149 -148
-214 -17 -53 -19 -236 -3 -271 43 -96 66 -131 119 -184 34 -33 86 -72 118 -88
153 -74 374 -75 548 -2 35 15 66 29 68 31 3 3 5 49 6 104 l1 99 -35 -16 c-167
-73 -223 -87 -321 -81 -179 12 -306 148 -287 308 27 225 312 315 576 181 23
-12 45 -20 49 -17 4 2 7 46 7 98 l0 93 -50 26 c-27 15 -70 30 -95 34 -25 5
-52 10 -60 12 -42 10 -193 8 -254 -3z"/>
<path d="M13242 4734 c-63 -13 -116 -39 -160 -78 -61 -54 -88 -174 -58 -262
31 -93 97 -142 305 -224 104 -41 134 -66 134 -109 0 -51 -31 -74 -108 -79 -36
-2 -86 1 -113 8 -50 12 -156 62 -183 86 -8 8 -19 14 -22 14 -4 0 -7 -45 -7
-99 l0 -99 73 -30 c202 -84 414 -66 522 45 51 52 67 96 68 179 1 130 -63 209
-220 273 -159 65 -220 99 -227 127 -15 60 58 101 159 90 52 -6 153 -33 170
-46 6 -4 19 -10 30 -12 11 -3 27 -9 36 -12 13 -6 16 6 17 82 l1 89 -62 21
c-139 47 -246 58 -355 36z"/>
<path d="M4750 4278 l0 -459 112 3 111 3 0 181 0 181 112 0 c72 0 132 6 167
17 194 56 259 299 118 443 -77 79 -111 86 -387 88 l-233 1 0 -458z m412 273
c67 -25 72 -137 9 -174 -28 -17 -170 -30 -190 -18 -7 5 -9 169 -2 204 2 10
151 0 183 -12z"/>
<path d="M5607 4725 c-3 -9 -1 -879 2 -897 0 -5 51 -8 111 -8 l110 0 0 185 0
185 223 0 222 0 0 -182 0 -183 113 -3 112 -3 -2 458 -3 458 -110 0 -110 0 0
-177 c0 -97 -2 -179 -6 -182 -3 -3 -102 -6 -220 -7 l-214 -2 -5 184 -5 183
-107 1 c-67 1 -109 -3 -111 -10z"/>
<path d="M6970 4730 c-4 -3 -34 -70 -65 -150 -31 -80 -63 -158 -70 -175 -35
-81 -225 -566 -225 -575 0 -7 41 -10 116 -8 l116 3 32 85 32 85 203 0 204 0
35 -87 36 -88 118 0 c65 0 118 2 118 5 0 7 -40 102 -74 177 -13 29 -63 143
-111 253 -48 110 -98 224 -111 253 -13 29 -24 54 -24 57 0 4 -57 133 -69 155
-6 12 -33 15 -130 15 -67 0 -126 -2 -131 -5z m213 -422 c32 -76 57 -140 57
-143 0 -3 -61 -5 -135 -5 -74 0 -135 1 -135 3 0 6 121 331 127 340 3 5 11 -6
18 -24 6 -19 37 -96 68 -171z"/>
<path d="M7739 4729 c-8 -4 -11 -144 -11 -445 1 -242 1 -445 1 -451 1 -10 30
-13 111 -13 l110 0 0 188 0 188 55 -6 c31 -3 67 -15 82 -26 28 -20 89 -132
150 -271 l31 -73 121 0 c67 0 121 2 121 5 0 3 -21 51 -46 107 -100 226 -131
279 -179 305 -17 10 -16 12 11 26 142 76 168 268 53 385 -38 38 -92 68 -140
78 -45 9 -457 12 -470 3z m377 -168 c12 0 33 -12 48 -26 20 -18 26 -34 26 -65
0 -82 -41 -110 -165 -110 l-76 0 2 104 1 104 72 -2 c39 -2 80 -4 92 -5z"/>
<path d="M8620 4453 c-1 -156 -1 -339 -1 -408 0 -69 0 -147 1 -175 l0 -50 110
0 c81 0 110 3 111 13 0 6 1 132 2 280 0 147 3 267 6 266 3 0 49 -52 101 -115
132 -160 144 -171 169 -153 11 8 57 59 103 114 46 55 95 114 110 130 l28 30 0
-282 0 -283 110 0 c61 0 111 3 111 8 4 24 3 902 -1 903 -3 1 -45 2 -95 3 -105
2 -76 23 -258 -191 -67 -79 -123 -143 -126 -143 -4 1 -25 24 -49 53 -43 53
-56 69 -140 167 -111 128 -88 115 -196 115 l-96 0 0 -282z"/>
<path d="M9919 4405 c-72 -181 -137 -343 -144 -360 -22 -51 -85 -215 -85 -220
0 -3 53 -5 118 -5 l118 0 13 38 c8 20 22 61 33 90 l19 52 202 0 202 0 35 -90
35 -90 122 0 123 0 -26 58 c-14 31 -53 120 -86 197 -33 77 -70 160 -81 185
-11 25 -60 137 -109 250 -49 113 -94 209 -99 215 -5 5 -65 10 -134 10 l-125 1
-131 -331z m347 -93 c30 -74 54 -138 54 -143 0 -5 -59 -9 -134 -9 l-135 0 30
83 c16 45 33 91 38 102 9 20 43 112 56 150 7 23 3 33 91 -183z"/>
<path d="M11785 4731 c-3 -2 -5 -208 -5 -458 l0 -453 109 0 c78 0 110 4 113
13 2 6 4 212 4 457 l-1 445 -108 0 c-59 1 -110 -1 -112 -4z"/>
<path d="M12222 4725 c-4 -5 -7 -211 -8 -457 l0 -448 332 0 332 0 -2 83 -1 82
-217 3 -218 2 -1 25 c0 14 0 52 0 85 0 33 0 71 0 84 l1 23 203 0 202 1 0 83 0
84 -198 0 c-138 0 -200 3 -205 11 -4 7 -6 50 -4 96 l3 85 197 0 c108 1 204 2
213 2 14 1 17 14 18 84 l1 82 -321 0 c-207 0 -323 -3 -327 -10z"/>
</g>
</svg>
