<svg xmlns="http://www.w3.org/2000/svg" xmlns:xlink="http://www.w3.org/1999/xlink"  viewBox="0 0 218.99 223.293">
  <defs>
    <clipPath id="clip-path">
      <path id="Path_86" data-name="Path 86" d="M130.853,346.584s-10.308-12.012-12.193-16.165c0,0-7.1-.232-8.065,5.993a47.887,47.887,0,0,0,0,12.541s7,19.094,9.9,26.322Z" transform="translate(-110.182 -330.418)" fill="#757575" stroke="#263238" stroke-linecap="round" stroke-linejoin="round" stroke-width="1"/>
    </clipPath>
    <clipPath id="clip-path-2">
      <path id="Path_114" data-name="Path 114" d="M139.2,357.229s9.27-6.553,26.141.333L178,354.608s8.186,22.234,3.276,45.023c0,0-10.984,7.878-29.372,7.838-19.946-.05-24.886-7.838-24.886-7.838l2.853-7.274c-1.719-8.307-3.942-21.624-2.248-28.52C130.2,353.353,139.2,357.229,139.2,357.229Z" transform="translate(-127.02 -354.413)" fill="#757575" stroke="#263238" stroke-linecap="round" stroke-linejoin="round" stroke-width="1"/>
    </clipPath>
    <clipPath id="clip-path-3">
      <path id="Path_130" data-name="Path 130" d="M227.536,344.663a75.61,75.61,0,0,0,.307,21.675c1.885,12.1,4.839,11.982,4.839,11.982s16.861-20.838,21.367-29.261c0,0-1.069-12.1-5.812-14.668Z" transform="translate(-226.901 -334.39)" fill="#757575" stroke="#263238" stroke-linecap="round" stroke-linejoin="round" stroke-width="1"/>
    </clipPath>
    <clipPath id="clip-path-4">
      <path id="Path_136" data-name="Path 136" d="M177.262,354.391a37.809,37.809,0,0,0-16.236-6.2c-9.255-1.079-8.992,4.37-8.992,4.37a1.6,1.6,0,0,0-.887,2.016C151.53,356.125,164.061,357.6,177.262,354.391Z" transform="translate(-151.051 -348.05)" fill="#757575" stroke="#263238" stroke-linecap="round" stroke-linejoin="round" stroke-width="1"/>
    </clipPath>
  </defs>
  <g id="manWithMap" transform="translate(-8.506 -0.006)">
    <g id="Background_Simple" data-name="Background Simple" transform="translate(8.506 0.006)">
      <path id="Path_1" data-name="Path 1" d="M63.161,98.663s-14.053,36.292,5.7,72.837,60.427,55.85,92.984,72.358,66.365,8.468,82.429-18.57-5.968-46.338-6-84.894,5.772-48.763-15.122-81.335S151.039,19.274,112.307,43.433,63.161,98.663,63.161,98.663Z" transform="translate(-44.045 -29.116)" fill="#fff" opacity="0.7"/>
      <g id="Group_1" data-name="Group 1" transform="translate(0 19.312)">
        <path id="Path_2" data-name="Path 2" d="M78.9,257.289c11.9,12.556,41.1,7.959,53.748,0,41.061-25.838,113.036-68.84,116.292-131.142,1.386-26.483-21.962-40.385-31.721-44.468-23.394-9.794-49.1-12.738-74.5-13.872-26.5-1.185-54.943-.262-78.79,12.667-9.038,4.884-17.567,11.18-23.4,19.754A62.178,62.178,0,0,0,30.28,129.776c-1.462,16.886,3.08,33.817,9.95,49.312s16.034,29.845,24.442,44.559C70.157,233.25,68.887,246.7,78.9,257.289Z" transform="translate(-30.006 -67.428)" fill="#92e3a9"/>
        <path id="Path_3" data-name="Path 3" d="M78.9,257.289c11.9,12.556,41.1,7.959,53.748,0,41.061-25.838,113.036-68.84,116.292-131.142,1.386-26.483-21.962-40.385-31.721-44.468-23.394-9.794-49.1-12.738-74.5-13.872-26.5-1.185-54.943-.262-78.79,12.667-9.038,4.884-17.567,11.18-23.4,19.754A62.178,62.178,0,0,0,30.28,129.776c-1.462,16.886,3.08,33.817,9.95,49.312s16.034,29.845,24.442,44.559C70.157,233.25,68.887,246.7,78.9,257.289Z" transform="translate(-30.006 -67.428)" fill="#ffb7b7" opacity="0.7"/>
      </g>
    </g>
    <g id="Map" transform="translate(27.204 64.467)">
      <g id="Group_6" data-name="Group 6">
        <path id="Path_25" data-name="Path 25" d="M210.153,207.991l-4.627,18.066,8.065,46.963h-.06l-.2.04c-3.433.751-40.411,8.8-42.22,8.645-1.9-.156-31.6-4.728-31.6-4.728l-26.3,3.075-21.085-9.3-19.482,3.438L67.1,205.39s4.118-33.641,2.223-42.7c0,0,32.446,4.658,35.446,4.98S142.659,157,142.659,157l29.442,9.754,24.664-3.12,36.494,17.088S209.563,204.311,210.153,207.991Z" transform="translate(-67.1 -157)" fill="#fff" stroke="#263238" stroke-linecap="round" stroke-linejoin="round" stroke-width="1"/>
        <path id="Path_26" data-name="Path 26" d="M75.652,169.488l31.67,4.456,37.386-9.2,29.916,8.372,23.474-2.52,32.522,13.937s-18.509,22.935-19.22,24.4-6.644,20.964-6.644,20.964l7.833,44.71-37.951,8.352-31.922-5.106-25.3,2.228L95.911,270.85l-17.864,3.755-5.8-64.338S77.573,184.1,75.652,169.488Z" transform="translate(-69.654 -160.839)" fill="#81d4c8" stroke="#263238" stroke-linecap="round" stroke-linejoin="round" stroke-width="1"/>
        <path id="Path_27" data-name="Path 27" d="M186.264,196.765l5.126-1.24,24.9,10.641c1.22-1.558,2.6-3.3,4.007-5.071l-26.992-11.407-5.686,1.593,3.564-16.669-4.713.5-4.325,17.713-13.973,3.912-26.887,2.344-10.742,5.338.5-15.732,13.136-6.19,15.3,2.954,2.606-12.652-4.647-1.3-1.472,9.189-11.79-2.52-12.975,5.852.418-12.712-6.271,1.522v34.135l-15.933,7.914V176.759l-1.815.444-3.972-.56.68,13.045H93.542L76.288,176.194c.111,1.946.126,4.032.076,6.155l15.329,12.828h12.924l.5,9.728-.474,4.033L72.87,217.023l.166,1.84,31.373-7.909-.726,6.276-30.123,7.435.554,6.18,15.959-4.219,1.482,19.013-14.7,15.555.575,6.361,5.182-5.484,1.149,14.643,1.482-.312-1.008-16.044,10.731-11.351,5.192-1.326,20.551-6.628-.454,2.984L108.84,279.527l4.39,1.885,6-19.361,8.851-1.638,17.783,7.692,8.251.529-1.4,14.028,2.2.348.958-14.27,20.7,1.326,14.956-2.152,1.905,14.235,3.851-.847-1.86-13.962,15.228-2.193-.761-4.355-32.411,4.3-13.106-1.149,1.865-17.642,11.387-6.22h3.528l25.526,2.586-.9-5.167-23.908-2.263h-5.519l2.8-16.851Zm-84.682,44.912-8.67,2.571-1.149-18.081,13.358-3.528,19.921-10.283-3.281,21.806ZM129.7,255.453l-8.987,1.784,3.73-11.987,5.64-35.481,11.357-5.862,4.411,17.884-1.648,14.89-4.95,22.6Zm41.177-16.382-7.823,3.7-2.878,20.8-13.106-1.149-4.511-1.81,5.041-22.446,1.956-15.54h9.028l15.066-2.52Zm3.5-22.587-15.122,3.11H147.1l-3.659-16,23.726-2.193,13.4-3.256Z" transform="translate(-69.962 -164.097)" fill="#fff" stroke="#263238" stroke-linecap="round" stroke-linejoin="round" stroke-width="1"/>
        <g id="Group_4" data-name="Group 4" transform="translate(5.278 5.701)">
          <path id="Path_28" data-name="Path 28" d="M265.02,249.767l1.366-10.8,17.441,3.836L282.4,252.02Z" transform="translate(-159.696 -188.68)" fill="#fff" opacity="0.5"/>
          <path id="Path_29" data-name="Path 29" d="M286.46,228.235l3.549-9.9,13.136,4.955-3.014,10.243Z" transform="translate(-170.329 -178.444)" fill="#fff" opacity="0.5"/>
          <path id="Path_30" data-name="Path 30" d="M275.538,195.45h1.452l5.489,2.48-5.489,16.654-5.146-1.542-1.643-.363Z" transform="translate(-162.265 -167.097)" fill="#fff" opacity="0.5"/>
          <path id="Path_31" data-name="Path 31" d="M300.927,204.21l12.813,5.151-2.137,3.685-12.1-3.685Z" transform="translate(-176.796 -171.441)" fill="#fff" opacity="0.5"/>
          <path id="Path_32" data-name="Path 32" d="M286.46,163.017l2.48-11.422,4.093-.655,6.054,2.43L294.8,165.155l-5.777-2.137Z" transform="translate(-170.329 -145.022)" fill="#fff" opacity="0.5"/>
          <path id="Path_33" data-name="Path 33" d="M308.33,175.123,311,168.55l17.975,8.186-3.559,5.373Z" transform="translate(-181.175 -153.756)" fill="#fff" opacity="0.5"/>
          <path id="Path_34" data-name="Path 34" d="M229.23,150.94l9.542,2.767-2.9,15.187h-9.8Z" transform="translate(-140.38 -145.022)" fill="#fff" opacity="0.5"/>
          <path id="Path_35" data-name="Path 35" d="M253.695,156.065l7.117-1.2L258.2,168.334l-6.931,1.789Z" transform="translate(-152.877 -146.966)" fill="#fff" opacity="0.5"/>
          <path id="Path_36" data-name="Path 36" d="M196.887,172.47l-.857,6.588-15.525.711-9.325,4.8v-8.73l11.3-5.842Z" transform="translate(-113.157 -154.475)" fill="#fff" opacity="0.5"/>
          <path id="Path_37" data-name="Path 37" d="M171.875,142.144l11.21-2.944-.867,6.573-11,4.295Z" transform="translate(-113.177 -139.2)" fill="#fff" opacity="0.5"/>
          <path id="Path_38" data-name="Path 38" d="M197.59,146.671l8.125,1.774,1.29-6.013L198.6,141.01Z" transform="translate(-126.255 -140.098)" fill="#fff" opacity="0.5"/>
          <path id="Path_39" data-name="Path 39" d="M127.92,153.37v9.648l11.745-3.2V150.94Z" transform="translate(-91.703 -145.022)" fill="#fff" opacity="0.5"/>
          <path id="Path_40" data-name="Path 40" d="M129.52,178.479v19.064l6.487-2.717-1.028-11.74,5.479-1.6V174.9Z" transform="translate(-92.497 -156.905)" fill="#fff" opacity="0.5"/>
          <path id="Path_41" data-name="Path 41" d="M90.49,193.97l.892,12.279,8.539-1.966,1.371-3.831V193.97Z" transform="translate(-73.14 -166.363)" fill="#fff" opacity="0.5"/>
          <path id="Path_42" data-name="Path 42" d="M83.056,204l11.266,8.72v6.049l-12.692.978S83.233,209.172,83.056,204Z" transform="translate(-79.584 -186.01)" fill="#fff" opacity="0.5"/>
          <path id="Path_43" data-name="Path 43" d="M58.116,209.869,69.725,208.8v5.852l-13.655,3.73Z" transform="translate(-56.07 -173.717)" fill="#fff" opacity="0.5"/>
          <path id="Path_44" data-name="Path 44" d="M90.49,154.86v8.322l9.431.711-.393-8.579Z" transform="translate(-73.14 -146.966)" fill="#fff" opacity="0.5"/>
          <path id="Path_45" data-name="Path 45" d="M167.193,218.025l8.1-3.775,2.435,13.806-12.153,2.137Z" transform="translate(-110.375 -176.42)" fill="#fff" opacity="0.5"/>
          <path id="Path_46" data-name="Path 46" d="M171.875,247.982l-.655,9.461,8.428-.892V245.88Z" transform="translate(-113.177 -192.107)" fill="#fff" opacity="0.5"/>
          <path id="Path_47" data-name="Path 47" d="M219.4,204.619l-1.1,12.4h4.582l10.187-1.684,5.872-14.971-11.185,3.256Z" transform="translate(-136.526 -169.537)" fill="#fff" opacity="0.5"/>
          <path id="Path_48" data-name="Path 48" d="M197.59,209.511v3.367l8.483-.242V208.8Z" transform="translate(-126.255 -173.717)" fill="#fff" opacity="0.5"/>
          <path id="Path_49" data-name="Path 49" d="M221.337,249.444l-.857,9.955,11.18-1.956L233.1,245.88Z" transform="translate(-137.607 -192.107)" fill="#fff" opacity="0.5"/>
          <path id="Path_50" data-name="Path 50" d="M198.386,278.66l7.833.554L204.263,299.2l-7.516-.237-2.808-1.008Z" transform="translate(-124.445 -208.364)" fill="#fff" opacity="0.5"/>
          <path id="Path_51" data-name="Path 51" d="M206.927,250.05l5.272.766-1.023,6.7H206Z" transform="translate(-130.426 -194.175)" fill="#fff" opacity="0.5"/>
          <path id="Path_52" data-name="Path 52" d="M291.38,286.89l10.147.988L303.84,300.1l-12.46.252Z" transform="translate(-172.769 -212.445)" fill="#fff" opacity="0.5"/>
          <path id="Path_53" data-name="Path 53" d="M243.928,294.166l9.829-.786,1.366,14.315H242.31Z" transform="translate(-148.434 -215.664)" fill="#fff" opacity="0.5"/>
          <path id="Path_54" data-name="Path 54" d="M299.5,336.711l1.427,6.543,6.941-1.134-1.245-6.8Z" transform="translate(-176.796 -236.463)" fill="#fff" opacity="0.5"/>
          <path id="Path_55" data-name="Path 55" d="M246.088,341.539l13.791-1.679.65,7.616L245.514,351.2l-8.5-1,2.969-9.371Z" transform="translate(-145.805 -238.715)" fill="#fff" opacity="0.5"/>
          <path id="Path_56" data-name="Path 56" d="M112.686,297l11.21-2.062-.751,7.742-3.16,7.556-8.065,2.147Z" transform="translate(-83.768 -216.437)" fill="#fff" opacity="0.5"/>
          <path id="Path_57" data-name="Path 57" d="M94.02,250.6v6.129l8.64-1.285,4.617-1.779-.232-7.788-3.15,2.1Z" transform="translate(-74.891 -192.107)" fill="#fff" opacity="0.5"/>
          <path id="Path_58" data-name="Path 58" d="M58.36,262.1l11.392-2.808,1.109,11.775-10.9,2.137Z" transform="translate(-57.206 -198.757)" fill="#fff" opacity="0.5"/>
          <path id="Path_59" data-name="Path 59" d="M59.94,300.7l6.5-5.756,1.689,1.568-6.724,6.457Z" transform="translate(-57.989 -216.437)" fill="#fff" opacity="0.5"/>
          <path id="Path_60" data-name="Path 60" d="M63.3,337.336l3.186-.756L67.06,343l-3.155.454Z" transform="translate(-59.656 -237.088)" fill="#fff" opacity="0.5"/>
          <path id="Path_61" data-name="Path 61" d="M79.3,333.888l-.61-11.22,7.727-.887v11.079Z" transform="translate(-67.288 -229.748)" fill="#fff" opacity="0.5"/>
          <circle id="Ellipse_1" data-name="Ellipse 1" cx="4.35" cy="4.35" r="4.35" transform="translate(56.374 69.802)" fill="#fff" opacity="0.5"/>
        </g>
        <g id="Group_5" data-name="Group 5" transform="translate(0.454 0.101)">
          <path id="Path_62" data-name="Path 62" d="M312.495,214.5l-4.627,18.066,8.065,46.963h-.06l-.2.04-42.215,8.645,10.973-73.956,14.658-44.136,36.494,17.088S311.9,210.818,312.495,214.5Z" transform="translate(-169.896 -163.608)" fill="rgba(0,0,0,0.7)" opacity="0.1"/>
          <path id="Path_63" data-name="Path 63" d="M195.959,137.718l-11.17,39.6-9.733,17.2-11.674,53.446-26.292,3.08L156.451,206l4.607-33.671L166.9,128.09Z" transform="translate(-91.427 -128.09)" fill="rgba(0,0,0,0.7)" opacity="0.1"/>
          <path id="Path_64" data-name="Path 64" d="M104.978,177.957l-.8,36.8L93.138,281.319l-.56-.247L73.091,284.49,68,221.094l30.5-11.8,5.041-31.529Z" transform="translate(-68 -167.401)" fill="rgba(0,0,0,0.7)" opacity="0.1"/>
        </g>
      </g>
    </g>
    <g id="Directions" transform="translate(114.299 112.714)">
      <g id="Group_9" data-name="Group 9">
        <g id="Group_8" data-name="Group 8">
          <path id="Path_71" data-name="Path 71" d="M252.465,254.876h0a7.364,7.364,0,0,0-10.419,0h0a7.364,7.364,0,0,0,0,10.419l5.207,5.207,5.212-5.207A7.364,7.364,0,0,0,252.465,254.876ZM249.4,262.23h0a3.024,3.024,0,1,1,0-4.29h0a3.024,3.024,0,0,1,0,4.29Z" transform="translate(-239.887 -252.717)" fill="#ff5050"/>
          <path id="Path_72" data-name="Path 72" d="M244.14,273.74a9.2,9.2,0,0,0,2.425,3.065" transform="translate(-241.996 -263.143)" fill="#ff5050" stroke="#fff" stroke-linecap="round" stroke-linejoin="round" stroke-width="1"/>
          <path id="Path_73" data-name="Path 73" d="M245.046,256.85c-2.52,1.512-3.176,4.426-2.349,7.117" transform="translate(-241.113 -254.767)" fill="#ff5050" stroke="#fff" stroke-linecap="round" stroke-linejoin="round" stroke-width="1"/>
          <path id="Path_74" data-name="Path 74" d="M252.655,254.92a6.729,6.729,0,0,0-1.875.282" transform="translate(-245.289 -253.809)" fill="#ff5050" stroke="#fff" stroke-linecap="round" stroke-linejoin="round" stroke-width="1"/>
        </g>
      </g>
    </g>
    <g id="Character" transform="translate(25.399 109.108)">
      <g id="Group_47" data-name="Group 47" transform="translate(0)">
        <path id="Path_75" data-name="Path 75" d="M306.782,253.582c-.595.242-5.575.832-5.575.832.116-1.185,2.611-3.322,2.611-4.506a.852.852,0,0,0-1.069-.938c-.237,1.542-4.153,4.385-4.985,4.743s-3.085,7.949-4.3,9.139c-9.577,9.547-18.65,15.066-22.033,21.675a26.811,26.811,0,0,1-9.255,10.036s-1.956,25.173,5.514,13.988,10.147-10.53,13.882-15.51,11.034-16.347,16.73-25.924c2.908-2.47,5.162-1.326,6.941-3.105.378-.378.121-1.9.711-2.9s1.542-2.8,1.426-3.866.832-1.658.948-2.253S307.377,253.346,306.782,253.582Z" transform="translate(-161.925 -247.238)" fill="#bfbfbf" stroke="#263238" stroke-miterlimit="10" stroke-width="1"/>
        <path id="Path_76" data-name="Path 76" d="M93.5,286.9c-1.936-7.173-9.678-14.446-17.068-25.768-.943-1.416-1.583-9.3-2.314-9.809s-3.982-4.113-3.9-5.671a.852.852,0,0,0-1.24.706c-.247,1.159,1.749,3.765,1.623,4.95,0,0-4.753-1.608-5.288-1.966s-1.794.469-1.8,1.074.8,1.381.459,2.4.222,2.979.595,4.078-.192,2.52.1,2.979c1.376,2.112,3.816,1.457,6.15,4.476,3.6,10.5,8.383,23.152,11.009,28.8S87.2,298.7,92.2,311.21s8.292-12.546,8.292-12.546A26.826,26.826,0,0,1,93.5,286.9Z" transform="translate(-63.52 -245.563)" fill="#bfbfbf" stroke="#263238" stroke-miterlimit="10" stroke-width="1"/>
        <path id="Path_77" data-name="Path 77" d="M118.112,330.1s1.29-3.065-1.119-4.033-5.439.781-5.439.781a6.323,6.323,0,0,0-4.627,5.822s-1.008,15.8,2.7,15.858S118.112,330.1,118.112,330.1Z" transform="translate(-84.985 -285.341)" fill="#999" stroke="#263238" stroke-linecap="round" stroke-linejoin="round" stroke-width="1"/>
        <path id="Path_78" data-name="Path 78" d="M267,333.293s-.2-2.48,2.828-2.152,5.514,4.637,5.338,10.671c0,0,1.386,7.7-2.334,7.485S267,333.293,267,333.293Z" transform="translate(-164.431 -287.989)" fill="#999" stroke="#263238" stroke-linecap="round" stroke-linejoin="round" stroke-width="1"/>
        <g id="Group_17" data-name="Group 17" transform="translate(23.521 42.772)">
          <path id="Path_79" data-name="Path 79" d="M130.853,346.584s-10.308-12.012-12.193-16.165c0,0-7.1-.232-8.065,5.993a47.887,47.887,0,0,0,0,12.541s7,19.094,9.9,26.322Z" transform="translate(-110.182 -330.418)" fill="#757575"/>
          <g id="Group_16" data-name="Group 16" clip-path="url(#clip-path)">
            <g id="Group_15" data-name="Group 15" transform="translate(0.019 0.016)">
              <g id="Group_10" data-name="Group 10" transform="translate(3.398 9.426)" opacity="0.3">
                <path id="Path_80" data-name="Path 80" d="M130.59,351.524a13.107,13.107,0,0,0-4.758,1.6c-.388.212-.781.449-1.174.716a6.009,6.009,0,0,0-1.008.852,13.433,13.433,0,0,0-3.15,6.482,35.258,35.258,0,0,0-.726,4.214,57.9,57.9,0,0,0-.343,7.475c-.857-2.273-1.7-4.537-2.47-6.608h0a40.232,40.232,0,0,1,.675-4.607h0a25.378,25.378,0,0,1,1.008-3.594,13.61,13.61,0,0,1,3.478-5.615,8.312,8.312,0,0,1,1.048-.827c.393-.262.786-.5,1.169-.726a16.463,16.463,0,0,1,4.35-1.739Z" transform="translate(-116.96 -349.15)" fill="#92e3a9"/>
              </g>
              <g id="Group_11" data-name="Group 11" transform="translate(0.066 4.511)" opacity="0.3">
                <path id="Path_81" data-name="Path 81" d="M123.35,341.719a31.44,31.44,0,0,0-4.078,1.482c-.459.2-.927.423-1.416.66a7.062,7.062,0,0,0-1.008.595,11.179,11.179,0,0,0-3.654,5.378,25.284,25.284,0,0,0-.963,3.559c-.2,1.008-.343,2.016-.459,2.994l-1.089-2.964s-.171-1.149-.3-2.944a3.035,3.035,0,0,0-.035-.56,21.9,21.9,0,0,1,1.089-2.8,12.425,12.425,0,0,1,4.078-5.041,9.17,9.17,0,0,1,1.129-.655c.434-.217.862-.413,1.275-.6a35.586,35.586,0,0,1,3.685-1.426Q122.445,340.527,123.35,341.719Z" transform="translate(-110.35 -339.4)" fill="#92e3a9"/>
              </g>
              <g id="Group_12" data-name="Group 12" transform="translate(0.197)" opacity="0.3">
                <path id="Path_82" data-name="Path 82" d="M119.819,332.129a14.77,14.77,0,0,0-3.307,1.306,16.942,16.942,0,0,0-2.3,1.467,23.634,23.634,0,0,0-3.6,3.352c.055-.6.131-1.215.222-1.82a6.467,6.467,0,0,1,2.067-3.967h0l.066-.04a19.748,19.748,0,0,1,1.673-1.079c.212-.126.428-.242.645-.358l.04.081a9.721,9.721,0,0,1,1.21-.353,10.336,10.336,0,0,1,2.334-.267A15.464,15.464,0,0,0,119.819,332.129Z" transform="translate(-110.61 -330.45)" fill="#92e3a9"/>
              </g>
              <g id="Group_13" data-name="Group 13" transform="translate(2.556 0.529)" opacity="0.3">
                <path id="Path_83" data-name="Path 83" d="M128.33,348.588l-2.016,1.8a48.356,48.356,0,0,1-3.528-4.451c-.529-.741-1.038-1.512-1.537-2.263-.67-1.038-1.321-2.092-1.941-3.15q-.686-1.18-1.331-2.359c-.5-.922-1.008-1.845-1.452-2.747s-.847-1.684-1.235-2.49h0a7.379,7.379,0,0,1,1.679-1.074c.212-.126.428-.242.645-.358l.04.081c.373.771.761,1.568,1.174,2.379.5.968,1.008,1.961,1.558,2.959q.645,1.18,1.331,2.359.847,1.437,1.754,2.853.741,1.149,1.512,2.248A46.89,46.89,0,0,0,128.33,348.588Z" transform="translate(-115.29 -331.5)" fill="#92e3a9"/>
              </g>
              <g id="Group_14" data-name="Group 14" transform="translate(0 10.49)" opacity="0.3">
                <path id="Path_84" data-name="Path 84" d="M123.214,375.067l-2.6.761a51.731,51.731,0,0,0-4.214-9.391c-.67-1.235-1.391-2.49-2.137-3.745h0c-.675-1.149-1.376-2.293-2.082-3.423-.61-1.008-1.225-1.966-1.845-2.913a3.035,3.035,0,0,0-.035-.56c-.076-1.3-.116-2.853-.06-4.537L111.394,353c.575.877,1.164,1.789,1.754,2.712.706,1.109,1.416,2.243,2.117,3.387.635,1.038,1.26,2.087,1.865,3.13A65.267,65.267,0,0,1,123.214,375.067Z" transform="translate(-110.219 -351.26)" fill="#92e3a9"/>
              </g>
            </g>
            <path id="Path_85" data-name="Path 85" d="M123.009,368.709l-2.46,6.83c-2.908-7.228-9.9-26.317-9.9-26.317a47.887,47.887,0,0,1,0-12.541c.59-3.871,3.528-5.247,5.716-5.731a3.483,3.483,0,0,1,.383.086s-5.615,3.594-5,17.43l5.469,15.122s.575-5.267,2.762-4.506C120.917,359.419,122.258,363.79,123.009,368.709Z" transform="translate(-110.207 -330.682)" fill="rgba(0,0,0,0.7)" opacity="0.2"/>
          </g>
          <path id="Path_87" data-name="Path 87" d="M130.853,346.584s-10.308-12.012-12.193-16.165c0,0-7.1-.232-8.065,5.993a47.887,47.887,0,0,0,0,12.541s7,19.094,9.9,26.322Z" transform="translate(-110.182 -330.418)" fill="none" stroke="#263238" stroke-linecap="round" stroke-linejoin="round" stroke-width="1"/>
        </g>
        <g id="Group_18" data-name="Group 18" transform="translate(35.263 14.08)">
          <path id="Path_88" data-name="Path 88" d="M168.715,311.754c-.05.207-.257.378-.6.5a8.428,8.428,0,0,1-3.024.222c-6.427-.353-19.467-4.169-22.577-11.76-3.322-8.1,5.2-18.675,14.325-18.9,5.242-.126,9.663,6.049,10.726,13.327C168.1,298.654,171.079,301.567,168.715,311.754Z" transform="translate(-137.593 -277.622)" fill="#bfbfbf" stroke="#263238" stroke-miterlimit="10" stroke-width="1"/>
          <path id="Path_89" data-name="Path 89" d="M185.987,318a3.528,3.528,0,0,0-.358,2.173" transform="translate(-159.321 -295.567)" fill="none" stroke="#263238" stroke-linecap="round" stroke-linejoin="round" stroke-width="1"/>
          <path id="Path_90" data-name="Path 90" d="M186.48,326.34s.933,1.26,1.6.675" transform="translate(-159.764 -299.703)" fill="none" stroke="#263238" stroke-linecap="round" stroke-linejoin="round" stroke-width="1"/>
          <path id="Path_91" data-name="Path 91" d="M191.024,337.472a8.427,8.427,0,0,1-3.024.222c.131-.953.383-2.057.464-2.611.262-1.749-.615-2.293-.242-2.419s.338,1.432,1.079,2.223A11.483,11.483,0,0,1,191.024,337.472Z" transform="translate(-160.518 -302.835)" fill="#263238"/>
          <path id="Path_92" data-name="Path 92" d="M175.3,336.179a29.915,29.915,0,0,0-1.008,6.608,28.148,28.148,0,0,0,.922,5.041l-13.842.8s2.072-9.965.963-13.453,8.851-2.218,8.851-2.218" transform="translate(-147.311 -302.873)" fill="#bfbfbf" stroke="#263238" stroke-miterlimit="10" stroke-width="1"/>
          <path id="Path_93" data-name="Path 93" d="M159.882,286.23c.58-1.885,1.613-1.694,1.613-1.694s-.67-9.048-4.537-10.011c-2.611-.655-3.327,3.276-6.049.444a4.845,4.845,0,0,0-6.124-.675c-1.094.806-1.059,1.931-1.789,2.908s-2.238.938-3.347,1.164a4.774,4.774,0,0,0-3.811,3.428c-.292,1.472,1.512,2.636,1.159,3.846-.418,1.447-1.764,2.324-2.6,3.528a6.25,6.25,0,0,0-.711,4.99c.58,2.49,1.865,3.463,3.866,4.733a8.233,8.233,0,0,1,2.218,2.762c2.077,3.266,4.6,5.656,8.569,6.331,7.969,1.361,11.538-5.993,11.538-5.993s-.9-7.289-.247-8.12,2.016,2.016,2.016,2.016C163.309,291.452,159.882,286.23,159.882,286.23Z" transform="translate(-133.478 -273.495)" fill="#263238"/>
          <path id="Path_94" data-name="Path 94" d="M187.851,315.993c-.242-.887-.071-4.537-1.174-4.2-.968.3-.5,4.063.5,6.578s2.243,2.52,2.278,1.789-.8-1.19-1.008-2.243" transform="translate(-159.597 -292.476)" fill="#bfbfbf" stroke="#263238" stroke-miterlimit="10" stroke-width="1"/>
          <path id="Path_95" data-name="Path 95" stroke="#fff" d="M173.829,285.81s.439-4.159-2.369-4.033-2.661,4.033-2.661,4.033-2.359-.8-3.165.56.025,4.113.025,4.113-2.52.8-1.9,2.49a1.322,1.322,0,0,1-1.008,1.941" fill="none" transform="translate(-147.995 -277.601)" stroke-linecap="round" stroke-linejoin="round" stroke-width="1" opacity="0.3"/>
          <path id="Path_96" data-name="Path 96" stroke="#fff" d="M168.75,296.52s-.444,3.68-3.07,3.765c0,0-2.7,8.307-11.881,8.13" fill="none" transform="translate(-143.556 -284.914)" stroke-linecap="round" stroke-linejoin="round" stroke-width="1" opacity="0.3"/>
          <path id="Path_97" data-name="Path 97" stroke="#fff" d="M160.579,279.538a4.384,4.384,0,0,0-4.663-.766c-2.546,1.215-.852,4.663-.852,4.663s-2.47-.151-3.281,1.714,1.593,3.085,1.593,3.085-2.742,1.457-1.593,2.611,0,3.473,0,3.473" fill="none" transform="translate(-142.417 -275.917)" stroke-linecap="round" stroke-linejoin="round" stroke-width="1" opacity="0.3"/>
          <path id="Path_98" data-name="Path 98" stroke="#fff" d="M143.958,288.41s-3.841,1.21-3.024,4.088,1.462,2.868,1.462,2.868-2.878,1.008-3.055,3.08,2.314,1.986,2.314,1.986A2.177,2.177,0,0,0,142.9,303.3" fill="none" transform="translate(-136.381 -280.892)" stroke-linecap="round" stroke-linejoin="round" stroke-width="1" opacity="0.3"/>
        </g>
        <g id="Group_32" data-name="Group 32" transform="translate(32.008 54.867)">
          <path id="Path_99" data-name="Path 99" d="M139.2,357.229s9.27-6.553,26.141.333L178,354.608s8.186,22.234,3.276,45.023c0,0-10.984,7.878-29.372,7.838-19.946-.05-24.886-7.838-24.886-7.838l2.853-7.274c-1.719-8.307-3.942-21.624-2.248-28.52C130.2,353.353,139.2,357.229,139.2,357.229Z" transform="translate(-127.02 -354.413)" fill="#757575"/>
          <g id="Group_31" data-name="Group 31" clip-path="url(#clip-path-2)">
            <g id="Group_29" data-name="Group 29" transform="translate(0.009 -0.001)">
              <g id="Group_19" data-name="Group 19" transform="translate(45.703 0.741)" opacity="0.3">
                <path id="Path_100" data-name="Path 100" d="M222.058,402.712c-.766.373-1.643.766-2.611,1.169-.081-.963-.161-1.915-.232-2.858s-.146-1.915-.212-2.858c-.212-2.853-.388-5.585-.539-8.181q-.086-1.482-.156-2.908-.3-5.837-.439-10.736-.045-1.588-.081-3.07-.106-5.2-.076-9.194c0-1.048,0-2.016.03-2.964q.045-2.631.121-4.6l2.717-.635c-.04,1.139-.086,2.475-.116,4.007h0c0,.943-.035,1.951-.045,3.024,0,2.52,0,5.479.045,8.831q0,1.512.066,3.16.126,4.97.423,10.983c.05.958.1,1.941.151,2.939q.227,3.9.5,8.206.106,1.416.217,2.873C221.912,400.837,221.983,401.765,222.058,402.712Z" transform="translate(-217.707 -355.88)" fill="#92e3a9"/>
              </g>
              <g id="Group_20" data-name="Group 20" transform="translate(37.461 2.268)" opacity="0.3">
                <path id="Path_101" data-name="Path 101" d="M205.939,358.91c-.2,1.487-.413,3.266-.625,5.313-.1.927-.2,1.915-.292,2.954-.267,2.964-.5,6.351-.7,10.081-.045.978-.091,1.981-.121,3.024-.121,3.332-.181,6.9-.141,10.666,0,.948,0,1.905.04,2.873q.081,4.033.323,8.367c.055.927.111,1.865.181,2.813q.081,1.3.2,2.616c-.852.232-1.739.454-2.661.655-.066-.8-.131-1.6-.181-2.389-.071-.938-.131-1.87-.187-2.792-.176-2.9-.287-5.731-.348-8.473-.03-.953-.045-1.89-.055-2.823-.045-3.725,0-7.264.1-10.585q.045-1.512.111-2.929c.161-3.8.4-7.258.66-10.318.091-1.008.176-1.971.267-2.888.212-2.082.423-3.927.62-5.5Z" transform="translate(-201.355 -358.91)" fill="#92e3a9"/>
              </g>
              <g id="Group_21" data-name="Group 21" transform="translate(28.088 0.686)" opacity="0.3">
                <path id="Path_102" data-name="Path 102" d="M187.685,356.39c-.272,2.147-.595,5.041-.917,8.478q-.131,1.336-.247,2.782c-.262,3.2-.5,6.8-.706,10.691-.045.917-.091,1.845-.126,2.792-.136,3.357-.217,6.906-.232,10.585v2.752c0,2.924.081,5.928.207,8.977.035.912.076,1.825.126,2.747,0,.534.055,1.064.091,1.6-.877.086-1.774.161-2.692.207-.025-.418-.05-.837-.071-1.25-.05-.912-.1-1.82-.131-2.727-.136-3.14-.207-6.23-.227-9.245v-2.717c0-3.685.091-7.233.222-10.585.035-.932.071-1.845.116-2.747.186-3.9.428-7.516.7-10.747.076-.948.156-1.865.237-2.742.358-3.922.726-7.148,1.008-9.471C185.905,355.951,186.772,356.158,187.685,356.39Z" transform="translate(-182.76 -355.77)" fill="#92e3a9"/>
              </g>
              <g id="Group_22" data-name="Group 22" transform="translate(18.843)" opacity="0.3">
                <path id="Path_103" data-name="Path 103" d="M169.032,407.432c-.943,0-1.855-.055-2.732-.116,0-.151-.035-.307-.05-.469-.091-.877-.166-1.779-.227-2.712-.212-3.145-.277-6.553-.343-10.217v-.444c0-.751-.025-1.512-.04-2.3-.06-3.281-.151-6.78-.358-10.474-.05-.9-.106-1.815-.171-2.737-.091-1.306-.2-2.626-.323-3.972-.227-2.389-.343-4.537-.368-6.523,0-.958,0-1.86.03-2.712a38.571,38.571,0,0,1,1.512-10.167,28.486,28.486,0,0,1,2.908-.181,33.9,33.9,0,0,0-1.709,10.495c-.025.852-.035,1.749,0,2.7q.03,2.767.343,6.129.217,2.283.368,4.486c.06.917.116,1.82.161,2.712.2,3.735.282,7.264.343,10.585,0,.655,0,1.3.035,1.931v.781c.066,3.528.131,6.86.343,9.885.06.927.136,1.825.237,2.692A3.311,3.311,0,0,0,169.032,407.432Z" transform="translate(-164.42 -354.41)" fill="#92e3a9"/>
              </g>
              <g id="Group_23" data-name="Group 23" transform="translate(10.713 1.18)" opacity="0.3">
                <path id="Path_104" data-name="Path 104" d="M152.015,368.031a49.688,49.688,0,0,0-.035,5.262c.086,1.678.121,3.271.121,4.809,0,.953,0,1.875-.035,2.792-.081,3.125-.282,6.089-.5,9.144,0,.272-.035.549-.055.827-.066.917-.126,1.845-.181,2.787-.161,2.52-.287,5.146-.318,7.974v2.2q.03,1.553.116,2.939c0,.277.03.554.055.822q-1.472-.287-2.752-.645c-.025-.4-.045-.817-.066-1.245-.045-.978-.066-2.016-.071-3.08v-1.008c.03-3.16.181-6.049.358-8.826.066-.958.126-1.9.192-2.828v-.1c.227-3.261.444-6.407.5-9.759v-2.868c0-1.22-.045-2.48-.111-3.791a53.338,53.338,0,0,1,.055-6.013c.05-.922.126-1.84.207-2.752.222-2.354.539-4.642.877-6.694a16.754,16.754,0,0,1,2.52-1.089h.025q.2-.076.408-.136c-.449,2.52-.9,5.5-1.18,8.569C152.126,366.211,152.06,367.124,152.015,368.031Z" transform="translate(-148.29 -356.75)" fill="#92e3a9"/>
              </g>
              <g id="Group_24" data-name="Group 24" transform="translate(3.348 1.306)" opacity="0.3">
                <path id="Path_105" data-name="Path 105" d="M141.4,358.893c.383.1.691.2.877.267a8.776,8.776,0,0,0-3.73,5.041,11.134,11.134,0,0,0-.428,2.747,14.874,14.874,0,0,0,.045,1.936q.343,3.947.434,7.621.053,1.512.05,3.024a94.165,94.165,0,0,1-.469,9.809q-.136,1.437-.333,2.838c-.071.539-.146,1.079-.232,1.613-.318,2.016-.63,4.456-.887,6.941-.106,1.053-.207,2.112-.292,3.16q-.086,1.074-.151,2.117a20.829,20.829,0,0,1-2.606-1.426c.066-.872.146-1.744.227-2.586.111-1.169.232-2.288.353-3.312.353-3.05.686-5.252.7-5.313q.181-1.185.333-2.4.181-1.437.3-2.908a91.665,91.665,0,0,0,.348-9.925c0-1.059-.045-2.127-.091-3.221q-.116-2.818-.373-5.807a17.537,17.537,0,0,1,0-3.347,13.291,13.291,0,0,1,.57-2.747,11.089,11.089,0,0,1,2.727-4.481A10.463,10.463,0,0,1,141.4,358.893Z" transform="translate(-133.68 -357.759)" fill="#92e3a9"/>
                <path id="Path_106" data-name="Path 106" d="M157.59,357Z" transform="translate(-145.538 -357)" fill="#92e3a9"/>
              </g>
              <g id="Group_25" data-name="Group 25" transform="translate(1.362 2.939)" opacity="0.3">
                <path id="Path_107" data-name="Path 107" d="M181,362.947c-1.154.655-2.561,1.4-4.209,2.142q-1.255.575-2.7,1.149c-1.4.554-2.934,1.094-4.582,1.6q-1.336.408-2.777.771a62.42,62.42,0,0,1-6.5,1.28c-.887.126-1.8.232-2.732.323-1.976.2-4.032.3-6.19.3h-1.381c-.927,0-1.835-.066-2.712-.136a42.054,42.054,0,0,1-4.4-.6q-1.391-.272-2.677-.615a34.269,34.269,0,0,1-3.992-1.331q-1.381-.549-2.626-1.18a33.267,33.267,0,0,1-3.78-2.228,9.955,9.955,0,0,1,1.366-2.329,30.743,30.743,0,0,0,2.984,1.81c.776.413,1.608.812,2.485,1.18a31.727,31.727,0,0,0,3.77,1.326c.847.247,1.734.459,2.661.645a36.392,36.392,0,0,0,4.234.61c.872.081,1.769.126,2.7.146h1.336a60.037,60.037,0,0,0,6.462-.348c.932-.1,1.846-.221,2.737-.362A58.467,58.467,0,0,0,167,365.714c.973-.262,1.905-.544,2.8-.837,1.563-.5,3.024-1.059,4.32-1.608,1.008-.408,1.885-.822,2.717-1.225h0c1.336-.645,2.475-1.26,3.4-1.8C180.469,361.006,180.726,361.914,181,362.947Z" transform="translate(-129.74 -360.24)" fill="#92e3a9"/>
              </g>
              <g id="Group_26" data-name="Group 26" transform="translate(0 12.647)" opacity="0.3">
                <path id="Path_108" data-name="Path 108" d="M181.744,382.585a59.127,59.127,0,0,1-6.185,4.033c-.842.5-1.724.958-2.656,1.421a53.482,53.482,0,0,1-5.545,2.425c-.887.333-1.794.645-2.732.927a46.751,46.751,0,0,1-6.553,1.512c-.887.136-1.794.252-2.712.333q-1.865.171-3.811.176c-.686,0-1.381,0-2.077-.055-.9-.045-1.8-.121-2.722-.232a4.731,4.731,0,0,1-.529-.06,39.233,39.233,0,0,1-4.678-.907q-1.391-.363-2.682-.806a36.879,36.879,0,0,1-3.528-1.411c-.948-.439-1.85-.907-2.712-1.4a37.536,37.536,0,0,1-5.545-3.861c-.05-1.285-.061-2.52,0-3.69a35.286,35.286,0,0,0,5.479,4.33q1.306.842,2.752,1.583a33.337,33.337,0,0,0,3.569,1.578c.867.328,1.774.62,2.707.882a34.655,34.655,0,0,0,4.99,1.008h0c.917.121,1.825.207,2.732.257a39.017,39.017,0,0,0,6.165-.156c.922-.1,1.835-.222,2.722-.378a44.424,44.424,0,0,0,6.553-1.653c.938-.312,1.855-.65,2.742-1.008a53.428,53.428,0,0,0,5.353-2.49q1.416-.756,2.672-1.512a58.465,58.465,0,0,0,5.736-3.932C181.412,380.508,181.583,381.526,181.744,382.585Z" transform="translate(-127.037 -379.5)" fill="#92e3a9"/>
              </g>
              <g id="Group_27" data-name="Group 27" transform="translate(1.267 27.31)" opacity="0.3">
                <path id="Path_109" data-name="Path 109" d="M184.1,411.03v.61c-1.936,1.053-4.209,2.208-6.719,3.342-.852.388-1.734.771-2.636,1.144-1.981.827-4.083,1.618-6.25,2.319-.877.282-1.774.549-2.677.8a54.359,54.359,0,0,1-6.749,1.452c-.9.131-1.794.232-2.7.307-1.069.091-2.142.141-3.206.141-.7,0-1.386,0-2.077-.06-.822-.05-1.638-.136-2.455-.252l-.247-.04a45.589,45.589,0,0,1-6.346-1.406c-.9-.272-1.784-.565-2.656-.877q-1.85-.675-3.6-1.452-1.316-.58-2.561-1.21-1.6-.791-3.065-1.643c-.207-1.144-.408-2.334-.6-3.528q1.875,1.164,3.972,2.278c.837.439,1.7.867,2.591,1.28q1.679.781,3.463,1.462c.862.328,1.744.64,2.646.917a42.258,42.258,0,0,0,6.114,1.472c.227.04.454.076.686.106.665.1,1.341.166,2.016.217a34.234,34.234,0,0,0,5.323-.086c.9-.086,1.8-.2,2.7-.343a53.281,53.281,0,0,0,6.694-1.512q1.361-.393,2.692-.847c2.132-.716,4.189-1.512,6.134-2.354.907-.383,1.789-.781,2.641-1.174,2.611-1.215,4.94-2.44,6.835-3.5C184.089,409.366,184.1,410.193,184.1,411.03Z" transform="translate(-129.55 -408.59)" fill="#92e3a9"/>
              </g>
              <g id="Group_28" data-name="Group 28" transform="translate(0.848 39.307)" opacity="0.3">
                <path id="Path_110" data-name="Path 110" d="M183.113,432.39c-.06.5-.131,1.008-.207,1.512s-.176,1.139-.272,1.714c-1.361.645-3.024,1.411-4.925,2.233-.832.363-1.714.731-2.626,1.1-2.016.822-4.2,1.663-6.5,2.46-.872.3-1.754.6-2.646.882-2.278.726-4.617,1.381-6.951,1.91-.892.212-1.784.393-2.672.554a50.038,50.038,0,0,1-4.965.675h-.1c-.665.055-1.331.076-1.976.076h-.736a25.052,25.052,0,0,1-7.082-1.22,26.143,26.143,0,0,1-2.762-1.069,32.391,32.391,0,0,1-7.243-4.552,36.692,36.692,0,0,1-2.737-2.485l1.1-2.787c.56.595,1.225,1.26,1.991,1.961s1.563,1.356,2.47,2.047a29.675,29.675,0,0,0,4.36,2.737,23.722,23.722,0,0,0,2.717,1.21,22.641,22.641,0,0,0,6.991,1.472,22.111,22.111,0,0,0,2.692-.045h.116a46.23,46.23,0,0,0,5.041-.711q1.331-.257,2.677-.575c2.309-.544,4.632-1.22,6.891-1.956.9-.292,1.784-.595,2.651-.9,2.288-.817,4.476-1.673,6.467-2.52.922-.378,1.794-.756,2.621-1.119C179.837,433.973,181.788,433.05,183.113,432.39Z" transform="translate(-128.72 -432.39)" fill="#92e3a9"/>
              </g>
            </g>
            <g id="Group_30" data-name="Group 30" transform="translate(0 -0.015)">
              <path id="Path_111" data-name="Path 111" d="M176.325,357.507c-3.715,2.117-12.647,6.7-19.29,6.195-5.333-.408-7.561-3.947-8.065-6.865a8.062,8.062,0,0,1,1.124.363s9.27-6.553,26.141.333Z" transform="translate(-137.906 -354.383)" fill="rgba(0,0,0,0.7)" opacity="0.2"/>
              <path id="Path_112" data-name="Path 112" d="M153.453,427.835h-1.547c-19.941-.05-24.886-7.843-24.886-7.843l2.858-7.274a145.252,145.252,0,0,1-2.631-17.168c1.558,3.221,11.251,21.9,25.6,21.816C163.02,417.326,158.151,423.5,153.453,427.835Z" transform="translate(-127.02 -374.799)" fill="rgba(0,0,0,0.7)" opacity="0.2"/>
              <path id="Path_113" data-name="Path 113" d="M233.207,406.775a75.893,75.893,0,0,1-.781,11.089c-5.267-6.346-3.609-17.854-3.609-17.854C229.512,404.491,231.841,406.165,233.207,406.775Z" transform="translate(-177.382 -377.011)" fill="rgba(0,0,0,0.7)" opacity="0.2"/>
            </g>
          </g>
          <path id="Path_115" data-name="Path 115" d="M139.2,357.229s9.27-6.553,26.141.333L178,354.608s8.186,22.234,3.276,45.023c0,0-10.984,7.878-29.372,7.838-19.946-.05-24.886-7.838-24.886-7.838l2.853-7.274c-1.719-8.307-3.942-21.624-2.248-28.52C130.2,353.353,139.2,357.229,139.2,357.229Z" transform="translate(-127.02 -354.413)" fill="none" stroke="#263238" stroke-linecap="round" stroke-linejoin="round" stroke-width="1"/>
        </g>
        <path id="Path_116" data-name="Path 116" d="M163.66,364.085c5.827.227,12.9.187,17.985-3.055" transform="translate(-113.183 -302.827)" fill="none" stroke="#263238" stroke-linecap="round" stroke-linejoin="round" stroke-width="1"/>
        <path id="Path_117" data-name="Path 117" d="M157.19,366.66c.5.055,1.043.1,1.568.131" transform="translate(-109.975 -305.62)" fill="none" stroke="#263238" stroke-linecap="round" stroke-linejoin="round" stroke-width="1"/>
        <path id="Path_118" data-name="Path 118" d="M166.11,438.57a12.953,12.953,0,0,0,.4,2.782" transform="translate(-114.398 -341.282)" fill="none" stroke="#263238" stroke-linecap="round" stroke-linejoin="round" stroke-width="1"/>
        <path id="Path_119" data-name="Path 119" d="M161.992,369.72a12.793,12.793,0,0,0-.927,7.248c2.248,8.569,3.6,16.634,2.44,25.324" transform="translate(-111.813 -307.137)" fill="none" stroke="#263238" stroke-linecap="round" stroke-linejoin="round" stroke-width="1"/>
        <path id="Path_120" data-name="Path 120" d="M169.37,427a19.356,19.356,0,0,0,8.927.086" transform="translate(-116.015 -335.544)" fill="none" stroke="#263238" stroke-linecap="round" stroke-linejoin="round" stroke-width="1"/>
        <path id="Path_121" data-name="Path 121" d="M133.08,391.07a34.282,34.282,0,0,0,16.2,17.43" transform="translate(-98.017 -317.725)" fill="none" stroke="#263238" stroke-linecap="round" stroke-linejoin="round" stroke-width="1"/>
        <path id="Path_122" data-name="Path 122" d="M130.12,382.67c.171.6.358,1.21.565,1.81" transform="translate(-96.549 -313.56)" fill="none" stroke="#263238" stroke-linecap="round" stroke-linejoin="round" stroke-width="1"/>
        <g id="Group_40" data-name="Group 40" transform="translate(82.354 44.774)">
          <path id="Path_123" data-name="Path 123" d="M227.536,344.663a75.61,75.61,0,0,0,.307,21.675c1.885,12.1,4.839,11.982,4.839,11.982s16.861-20.838,21.367-29.261c0,0-1.069-12.1-5.812-14.668Z" transform="translate(-226.901 -334.39)" fill="#757575"/>
          <g id="Group_39" data-name="Group 39" clip-path="url(#clip-path-3)">
            <g id="Group_38" data-name="Group 38" transform="translate(0.035 0.958)">
              <g id="Group_33" data-name="Group 33" transform="translate(15.812 0.529)" opacity="0.3">
                <path id="Path_124" data-name="Path 124" d="M266.617,355.406c-.68,1.008-1.411,2.082-2.188,3.181-.4-2.394-.862-4.607-1.366-6.654q-.363-1.512-.766-2.878c-.57-2.016-1.18-3.821-1.794-5.459q-.5-1.386-1.048-2.6-.565-1.316-1.114-2.435l2.45-1.22c.313.63.625,1.3.943,2.016.358.812.716,1.673,1.074,2.6q.907,2.329,1.774,5.157c.272.912.544,1.865.8,2.863Q266.052,352.507,266.617,355.406Z" transform="translate(-258.34 -337.34)" fill="#92e3a9"/>
              </g>
              <g id="Group_34" data-name="Group 34" transform="translate(9.512 3.665)" opacity="0.3">
                <path id="Path_125" data-name="Path 125" d="M254.238,367.17c-.8,1.064-1.588,2.122-2.379,3.155a96.992,96.992,0,0,0-1.512-10.081h0q-.3-1.512-.635-2.919c-.544-2.364-1.149-4.537-1.759-6.523q-.439-1.391-.877-2.656c-.418-1.225-.837-2.349-1.235-3.372l2.45-1.215c.373.943.766,1.971,1.159,3.09q.449,1.255.9,2.656c.59,1.87,1.18,3.922,1.724,6.145q.348,1.416.675,2.919C253.335,361.086,253.845,364.02,254.238,367.17Z" transform="translate(-245.84 -343.56)" fill="#92e3a9"/>
              </g>
              <g id="Group_35" data-name="Group 35" transform="translate(3.009 6.87)" opacity="0.3">
                <path id="Path_126" data-name="Path 126" d="M241.454,378.692c-.827,1.069-1.6,2.052-2.3,2.939-.615-4.491-1.391-8.927-2.218-13.106q-.287-1.467-.585-2.883c-.58-2.777-1.174-5.4-1.744-7.793-.222-.943-.444-1.845-.655-2.707-.358-1.452-.7-2.787-1.008-3.992l2.47-1.23q.461,1.754,1.008,3.881c.222.867.444,1.774.675,2.722h0c.539,2.268,1.109,4.753,1.673,7.395.2.943.4,1.91.6,2.893h0C240.108,370.627,240.839,374.609,241.454,378.692Z" transform="translate(-232.94 -349.92)" fill="#92e3a9"/>
              </g>
              <g id="Group_36" data-name="Group 36" opacity="0.3">
                <path id="Path_127" data-name="Path 127" d="M251.079,338.5c-1.159.922-2.435,1.91-3.831,2.929q-1.1.812-2.3,1.643-1.83,1.29-3.947,2.646c-.771.5-1.573,1.008-2.394,1.512q-2.142,1.3-4.5,2.591h0c-.807.444-1.623.882-2.465,1.321-1.512.781-3.06,1.558-4.673,2.314,0-1.119.066-2.137.126-3.05h0q2.016-.968,3.891-1.966c.832-.449,1.648-.892,2.445-1.341,1.512-.837,2.929-1.684,4.295-2.52q1.225-.751,2.374-1.512c1.341-.867,2.606-1.729,3.8-2.571.791-.56,1.553-1.1,2.278-1.643,1.2-.892,2.314-1.754,3.332-2.566a7.969,7.969,0,0,1,.9,1.109A9.97,9.97,0,0,1,251.079,338.5Z" transform="translate(-226.97 -336.29)" fill="#92e3a9"/>
              </g>
              <g id="Group_37" data-name="Group 37" transform="translate(0.358 6.906)" opacity="0.3">
                <path id="Path_128" data-name="Path 128" d="M253.886,353.019c-1.169,1.038-2.409,2.122-3.715,3.236q-1.129.968-2.314,1.961c-1.326,1.1-2.7,2.228-4.108,3.352-.786.625-1.588,1.255-2.4,1.875h0c-1.512,1.159-3.05,2.314-4.612,3.438h0c-.8.58-1.6,1.149-2.414,1.709-2.082,1.437-4.194,2.813-6.3,4.078-.141-1.008-.252-1.986-.348-2.944,2.016-1.255,4.032-2.611,6.049-4.033.8-.565,1.6-1.134,2.394-1.719,1.558-1.134,3.09-2.3,4.582-3.468.8-.625,1.588-1.25,2.359-1.875,1.386-1.109,2.727-2.223,4.033-3.312.776-.66,1.542-1.306,2.283-1.946,1.351-1.174,2.631-2.309,3.826-3.382C253.483,351.049,253.71,352.082,253.886,353.019Z" transform="translate(-227.68 -349.99)" fill="#92e3a9"/>
              </g>
            </g>
            <path id="Path_129" data-name="Path 129" d="M255.423,351.061c-4.511,8.423-21.372,29.261-21.372,29.261s-2.52.106-4.38-9.386c1.376,5.116,5.106,5.64,5.106,5.64l17.178-22.718c-1.83-3.891-.257-15.092-.212-15.389C254.692,342.77,255.423,351.061,255.423,351.061Z" transform="translate(-228.274 -336.413)" fill="rgba(0,0,0,0.7)" opacity="0.2"/>
          </g>
          <path id="Path_131" data-name="Path 131" d="M227.536,344.663a75.61,75.61,0,0,0,.307,21.675c1.885,12.1,4.839,11.982,4.839,11.982s16.861-20.838,21.367-29.261c0,0-1.069-12.1-5.812-14.668Z" transform="translate(-226.901 -334.39)" fill="none" stroke="#263238" stroke-linecap="round" stroke-linejoin="round" stroke-width="1"/>
        </g>
        <g id="Group_46" data-name="Group 46" transform="translate(44.121 51.66)">
          <path id="Path_132" data-name="Path 132" d="M177.262,354.391a37.809,37.809,0,0,0-16.236-6.2c-9.255-1.079-8.992,4.37-8.992,4.37a1.6,1.6,0,0,0-.887,2.016C151.53,356.125,164.061,357.6,177.262,354.391Z" transform="translate(-151.051 -348.05)" fill="#757575"/>
          <g id="Group_45" data-name="Group 45" clip-path="url(#clip-path-4)">
            <g id="Group_44" data-name="Group 44" transform="translate(0.443 -0.011)">
              <g id="Group_41" data-name="Group 41" transform="translate(4.461)" opacity="0.3">
                <path id="Path_133" data-name="Path 133" d="M165.3,348.12a17.569,17.569,0,0,0-.65,1.865c-.227.756-.454,1.653-.66,2.7s-.378,2.208-.5,3.528c-1.008-.045-1.885-.121-2.7-.207.126-1.255.292-2.379.469-3.387s.388-1.926.6-2.722c.181-.691.373-1.3.56-1.835a17.137,17.137,0,0,1,2.883.055Z" transform="translate(-160.78 -348.028)" fill="#92e3a9"/>
              </g>
              <g id="Group_42" data-name="Group 42" transform="translate(13.116 0.928)" opacity="0.3">
                <path id="Path_134" data-name="Path 134" d="M181.216,350.656v1.109c-.035.8-.091,1.7-.2,2.722-.076.756-.176,1.573-.3,2.445-.953.086-1.875.146-2.767.192.176-1.1.3-2.117.393-3.024.1-1.033.156-1.941.181-2.717V349.87C179.452,350.092,180.359,350.364,181.216,350.656Z" transform="translate(-177.95 -349.87)" fill="#92e3a9"/>
              </g>
              <g id="Group_43" data-name="Group 43" transform="translate(0 1.861)" opacity="0.3">
                <path id="Path_135" data-name="Path 135" d="M177.7,356.211c-1.008.237-1.956.454-2.929.645-2.344-.63-4.582-1.1-6.674-1.452-.922-.156-1.81-.287-2.677-.4-2.132-.277-4.083-.418-5.822-.5-1.008-.04-1.91-.05-2.752-.045a47.841,47.841,0,0,0-4.915.262,1.689,1.689,0,0,1,.5-.348,3.972,3.972,0,0,1,.963-2.52c1.094-.081,2.455-.136,4.033-.131.867,0,1.8,0,2.808.066,1.618.081,3.407.227,5.343.474q1.3.156,2.692.393c1.648.272,3.392.615,5.2,1.053h0a32.2,32.2,0,0,1,4.224,2.505Z" transform="translate(-151.93 -351.719)" fill="#92e3a9"/>
              </g>
            </g>
          </g>
          <path id="Path_137" data-name="Path 137" d="M177.262,354.391a37.809,37.809,0,0,0-16.236-6.2c-9.255-1.079-8.992,4.37-8.992,4.37a1.6,1.6,0,0,0-.887,2.016C151.53,356.125,164.061,357.6,177.262,354.391Z" transform="translate(-151.051 -348.05)" fill="none" stroke="#263238" stroke-linecap="round" stroke-linejoin="round" stroke-width="1"/>
        </g>
        <path id="Path_138" data-name="Path 138" d="M173,355.84a17.745,17.745,0,0,1,2.646.59" transform="translate(-117.815 -300.253)" fill="none" stroke="#263238" stroke-linecap="round" stroke-linejoin="round" stroke-width="1"/>
        <path id="Path_139" data-name="Path 139" d="M153,356.191a27.541,27.541,0,0,1,8.272-.776" transform="translate(-107.897 -300.02)" fill="none" stroke="#263238" stroke-linecap="round" stroke-linejoin="round" stroke-width="1"/>
        <path id="Path_140" data-name="Path 140" d="M121.2,355.76a24.648,24.648,0,0,0,.171,2.656" transform="translate(-92.126 -300.214)" fill="none" stroke="#263238" stroke-linecap="round" stroke-linejoin="round" stroke-width="1"/>
        <path id="Path_141" data-name="Path 141" d="M125.272,334.35c-2.8,1.835-3.8,5.812-4.032,8.917" transform="translate(-92.146 -289.596)" fill="none" stroke="#263238" stroke-linecap="round" stroke-linejoin="round" stroke-width="1"/>
        <path id="Path_142" data-name="Path 142" d="M258.7,380.85a7.939,7.939,0,0,1-2.52,1.82" transform="translate(-159.068 -312.657)" fill="none" stroke="#263238" stroke-linecap="round" stroke-linejoin="round" stroke-width="1"/>
        <path id="Path_143" data-name="Path 143" d="M270.4,345.83c-1.689,5.343-3.488,11.2-6.709,16.13" transform="translate(-162.792 -295.289)" fill="none" stroke="#263238" stroke-linecap="round" stroke-linejoin="round" stroke-width="1"/>
        <path id="Path_144" data-name="Path 144" d="M232.419,415.727s-2.6,1.265-6.049-5.867" transform="translate(-144.284 -327.044)" fill="none" stroke="#263238" stroke-linecap="round" stroke-linejoin="round" stroke-width="1"/>
        <path id="Path_145" data-name="Path 145" d="M219.088,435.06c-2.52,4.38-6.089,8.453-10.888,10.308" transform="translate(-135.272 -339.542)" fill="none" stroke="#263238" stroke-linecap="round" stroke-linejoin="round" stroke-width="1"/>
        <path id="Path_146" data-name="Path 146" d="M232.767,427c-.262.711-.57,1.4-.9,2.082" transform="translate(-147.011 -335.544)" fill="none" stroke="#263238" stroke-linecap="round" stroke-linejoin="round" stroke-width="1"/>
      </g>
    </g>
  </g>
</svg>
