<svg xmlns="http://www.w3.org/2000/svg"  viewBox="0 0 383.709 297.81">
  <g id="shoppingLost" transform="translate(-980.283 -69.3)">
    <g id="Group_7" data-name="Group 7" transform="translate(1155.865 69.3)" opacity="0.75">
      <path id="Path_15" data-name="Path 15" d="M201.8,262.662c-2.344,2.079-6.382,2.164-9.923-.633h0c-3.533-2.8-4.825-7.057-2.883-9.513,0,0,18.82-34.569,27.152-41.336,2.429-1.968,6.382-2.164,9.915.633h0c3.533,2.8,14.2,14.072,12.07,16.356C228.306,230.317,211.111,254.339,201.8,262.662Z" transform="translate(-136.638 -114.027)" fill="#706656"/>
      <path id="Path_16" data-name="Path 16" d="M121.933,216.52,99.272,204.27l-4.252,7.4,21.07,13.739Z" transform="translate(-74.637 -85.028)" fill="#edc093"/>
      <path id="Path_17" data-name="Path 17" d="M158.19,251.067s17.605,12.986,25.886,12.627c2.472-.111,2.635-1.4,3.884-4.739s.376-6.758-1.942-7.622l-22.49-12.772Z" transform="translate(-132.315 -118.197)" fill="#fff"/>
      <path id="Path_18" data-name="Path 18" d="M144.115,244.491c-4.277-2.883-4.106-7.451-1.429-11.395s6.844-5.749,11.121-2.866,5.689,8.324,3.011,12.267S148.358,247.374,144.115,244.491Z" transform="translate(-129.798 -116.789)" fill="#f7c899"/>
      <path id="Path_19" data-name="Path 19" d="M159.19,253.467s23.1,13.311,32.884,14.722c3.088.445,3.328-1.771,4.9-5.988s.479-8.555-2.455-9.632L166.367,238Z" transform="translate(-132.46 -118.116)" fill="#706656"/>
      <path id="Path_20" data-name="Path 20" d="M131.9,225.772a1.651,1.651,0,0,1-.248-2.3h0a1.651,1.651,0,0,1,2.233-.616l12.259,7.887a1.651,1.651,0,0,1,.248,2.3h0a1.651,1.651,0,0,1-2.233.616Z" transform="translate(-128.428 -115.897)" fill="#f7c899"/>
      <path id="Path_21" data-name="Path 21" d="M135.7,222.472a1.642,1.642,0,0,1-.257-2.3h0a1.651,1.651,0,0,1,2.233-.616l12.259,7.887a1.651,1.651,0,0,1,.257,2.31h0a1.642,1.642,0,0,1-2.233.607Z" transform="translate(-128.976 -115.42)" fill="#f7c899"/>
      <path id="Path_22" data-name="Path 22" d="M154.087,224.224c-.145-.813.6-1.625,1.651-1.805h0a1.779,1.779,0,0,1,2.173,1.146l.855,10.394a1.711,1.711,0,0,1-1.642,1.8h0a1.771,1.771,0,0,1-2.173-1.146Z" transform="translate(-131.72 -115.854)" fill="#f7c899"/>
      <path id="Path_23" data-name="Path 23" d="M130.256,230.841a1.642,1.642,0,0,1-.257-2.3h0a1.642,1.642,0,0,1,2.233-.616l12.259,7.887a1.651,1.651,0,0,1,.257,2.3h0a1.651,1.651,0,0,1-2.233.616Z" transform="translate(-128.189 -116.629)" fill="#f7c899"/>
      <path id="Path_24" data-name="Path 24" d="M128.556,235.879a1.642,1.642,0,0,1-.257-2.3h0a1.642,1.642,0,0,1,2.258-.616l12.259,7.887a1.651,1.651,0,0,1,.257,2.3h0a1.651,1.651,0,0,1-2.233.616Z" transform="translate(-127.943 -117.356)" fill="#f7c899"/>
      <path id="Path_25" data-name="Path 25" d="M288.874,262.442c2.344,2.079,6.382,2.164,9.915-.633h0c3.542-2.8,4.833-7.058,2.891-9.513,0,0-18.82-34.578-27.152-41.336-2.429-1.968-6.382-2.173-9.915.633h0c-3.533,2.8-14.2,14.072-12.07,16.348C262.372,230.1,279.533,254.118,288.874,262.442Z" transform="translate(-145.913 -113.995)" fill="#706656"/>
      <path id="Path_26" data-name="Path 26" d="M259.19,216.3l22.67-12.25,4.243,7.4-21.061,13.739Z" transform="translate(-98.367 -84.996)" fill="#edc093"/>
      <path id="Path_27" data-name="Path 27" d="M335.874,250.887s-17.605,12.986-25.886,12.627c-2.472-.111-2.635-1.4-3.884-4.748s-.376-6.758,1.942-7.622l22.49-12.763Z" transform="translate(-153.613 -118.171)" fill="#fff"/>
      <path id="Path_28" data-name="Path 28" d="M352.123,244.271c4.277-2.883,4.106-7.451,1.429-11.395s-6.844-5.749-11.121-2.866-5.689,8.324-3.011,12.259S347.88,247.154,352.123,244.271Z" transform="translate(-158.314 -116.757)" fill="#f7c899"/>
      <path id="Path_29" data-name="Path 29" d="M333.494,253.239s-23.1,13.311-32.875,14.722c-3.1.445-3.336-1.771-4.91-5.988s-.479-8.555,2.455-9.632l28.153-14.611Z" transform="translate(-152.089 -118.077)" fill="#706656"/>
      <path id="Path_30" data-name="Path 30" d="M364.651,225.551a1.66,1.66,0,0,0,.248-2.31h0a1.642,1.642,0,0,0-2.233-.607l-12.259,7.887a1.651,1.651,0,0,0-.248,2.3h0a1.651,1.651,0,0,0,2.233.616Z" transform="translate(-160.012 -115.864)" fill="#f7c899"/>
      <path id="Path_31" data-name="Path 31" d="M360.871,222.261a1.642,1.642,0,0,0,.257-2.3h0a1.642,1.642,0,0,0-2.233-.616l-12.259,7.887a1.643,1.643,0,0,0-.257,2.3h0a1.642,1.642,0,0,0,2.233.616Z" transform="translate(-159.466 -115.389)" fill="#f7c899"/>
      <path id="Path_32" data-name="Path 32" d="M344.3,224c.145-.813-.6-1.625-1.651-1.805h0a1.771,1.771,0,0,0-2.173,1.146l-.855,10.394a1.711,1.711,0,0,0,1.642,1.805h0a1.771,1.771,0,0,0,2.173-1.146Z" transform="translate(-158.54 -115.822)" fill="#f7c899"/>
      <path id="Path_33" data-name="Path 33" d="M366.312,230.621a1.651,1.651,0,0,0,.257-2.31h0a1.651,1.651,0,0,0-2.241-.607l-12.25,7.922a1.651,1.651,0,0,0-.257,2.3h0a1.651,1.651,0,0,0,2.233.616Z" transform="translate(-160.253 -116.597)" fill="#f7c899"/>
      <path id="Path_34" data-name="Path 34" d="M368.012,235.661a1.651,1.651,0,0,0,.257-2.31h0a1.642,1.642,0,0,0-2.233-.607l-12.259,7.887a1.651,1.651,0,0,0-.257,2.3h0a1.651,1.651,0,0,0,2.233.616Z" transform="translate(-160.498 -117.326)" fill="#f7c899"/>
      <path id="Path_35" data-name="Path 35" d="M242.741,330.648s3.764-3.619,8.734,0,7.365-.8,7.365-.8l-3.473-34.483H230.14Z" transform="translate(-142.715 -126.408)" fill="#332e27"/>
      <path id="Path_36" data-name="Path 36" d="M223.522,400.647h15.133s-.855-90.807,11.514-106.213c-4.628-5.133-27.879-6.844-27.879-6.844Z" transform="translate(-141.581 -125.284)" fill="#332e27"/>
      <path id="Path_37" data-name="Path 37" d="M273.258,403.908H256.936S258.254,311.45,242,287.164c5.227-5.945,31.652,0,31.652,0Z" transform="translate(-144.43 -124.841)" fill="#4d463b"/>
      <path id="Path_38" data-name="Path 38" d="M217.81,303.452l3.661-89.446c-.111-2.489,1.343-4.525,3.242-4.525h40.634c1.9,0,3.353,2.036,3.251,4.525l7.3,90.8-36.536,1.54h-1.027V304.88Z" transform="translate(-140.933 -113.994)" fill="#706656"/>
      <path id="Path_39" data-name="Path 39" d="M243.218,246.36s.051,1,.1,2.746.128,4.277.154,7.246.051,6.493,0,10.265c0,1.873,0,3.807-.06,5.774s-.068,3.961-.1,5.988-.111,3.995-.163,5.988-.145,3.9-.205,5.766c-.154,3.747-.325,7.237-.5,10.265s-.376,5.483-.488,7.229-.231,2.737-.231,2.737-.051-1-.1-2.746-.128-4.277-.154-7.246-.06-6.493,0-10.265c0-1.873,0-3.807.06-5.774s.077-3.961.111-5.988.111-3.995.171-5.988.137-3.892.205-5.766c.145-3.747.317-7.237.5-10.265s.376-5.492.488-7.229S243.218,246.36,243.218,246.36Z" transform="translate(-144.348 -119.325)" fill="#4d463b"/>
      <path id="Path_40" data-name="Path 40" d="M233.466,419.69H223.4s-14.988,11.532-26.117,11.532a7.7,7.7,0,0,0,4.277,6.159s16.493-1.933,21.814-3.028a42.51,42.51,0,0,0,6.946-1.916v1.5l5.68-.684Z" transform="translate(-137.966 -144.379)" fill="#26231d"/>
      <path id="Path_41" data-name="Path 41" d="M262.123,424.08h10.668s14.62,11.976,26.408,11.976a6.048,6.048,0,0,1-3.234,6.767s-15.706-1.429-20.839-2.489a42.422,42.422,0,0,1-8.4-2.772l-.351,1.711-6.955-.855Z" transform="translate(-146.948 -145.013)" fill="#332e27"/>
      <path id="Path_42" data-name="Path 42" d="M185.679,208.049,197.937,176.5H179.22Z" transform="translate(-86.808 -81.014)" fill="#ebebeb"/>
      <path id="Path_43" data-name="Path 43" d="M243.011,242.8l3.781-9.718a74.845,74.845,0,0,0-2.652-11.369h-2.113A39.624,39.624,0,0,0,240,228.066Z" transform="translate(-144.141 -115.762)" fill="#b24343"/>
      <path id="Path_44" data-name="Path 44" d="M246.938,218.9a3.5,3.5,0,1,1-3.5-3.49,3.5,3.5,0,0,1,3.5,3.49Z" transform="translate(-144.132 -114.851)" fill="#e65e71"/>
      <path id="Path_45" data-name="Path 45" d="M255.782,209.48l6.895,10.659-6.895,1.762,4.277,5.8s-7,8.777-16.519,13.328Z" transform="translate(-144.652 -113.994)" fill="#4d463b"/>
      <path id="Path_46" data-name="Path 46" d="M234.936,209.48l-6.3,10.659,4.637,2-2.566,4.782s4.226,8.666,10.659,14.106Z" transform="translate(-142.499 -113.994)" fill="#4d463b"/>
      <path id="Path_47" data-name="Path 47" d="M252.982,203.032c-.154,3.944-5.347,7.819-9.307,7.819h0c-3.969,0-5.2-3.875-5.047-7.819l1.172-28.709a7.511,7.511,0,0,1,7.46-7.143h0a6.844,6.844,0,0,1,6.895,7.143Z" transform="translate(-143.94 -107.88)" fill="#f7c899"/>
      <path id="Path_48" data-name="Path 48" d="M253.259,196.526l.958-23.953a6.844,6.844,0,0,0-6.895-7.143,7.528,7.528,0,0,0-7.468,7.143l-1.1,27.76A38.889,38.889,0,0,0,253.259,196.526Z" transform="translate(-143.96 -107.627)" fill="#d9aa7c"/>
      <g id="Group_6" data-name="Group 6" transform="translate(66.632 0)">
        <g id="Group_2" data-name="Group 2" transform="translate(60.718 46.337)">
          <path id="Path_49" data-name="Path 49" d="M292.029,158.719c-.257,5.312-5.595,15.3-10.881,13.277-3.927-1.5-4.56-8.7-4.277-14.021s3.713-6.125,7.9-5.92S292.285,153.4,292.029,158.719Z" transform="translate(-276.812 -152.027)" fill="#f7c899"/>
          <path id="Path_50" data-name="Path 50" d="M290.889,159.427c-.214,4.363-4.791,9.513-8.229,9.342s-4.448-5.586-4.235-9.949,3.054-5.03,6.476-4.825S291.086,155.064,290.889,159.427Z" transform="translate(-277.041 -152.307)" fill="#edc093"/>
          <path id="Path_51" data-name="Path 51" d="M283.981,154.253c3.422.171,6.185,1.215,5.945,6.176a12.832,12.832,0,0,1-2.036,5.937,11.369,11.369,0,0,0,3.422-6.946c.205-4.363-2.566-5.3-5.988-5.466a9.624,9.624,0,0,0-3.7.385A11.531,11.531,0,0,1,283.981,154.253Z" transform="translate(-277.507 -152.3)" fill="#d9aa7c"/>
          <path id="Path_52" data-name="Path 52" d="M284.807,161.982c.3.907-.719,2.062-2.276,2.566s-3.071.214-3.37-.684.71-2.062,2.276-2.566S284.508,161.076,284.807,161.982Z" transform="translate(-277.144 -153.331)" fill="#f7c899"/>
        </g>
        <g id="Group_3" data-name="Group 3" transform="translate(3.185 43.523)">
          <path id="Path_53" data-name="Path 53" d="M209.568,154.685c-.257,5.321,4.081,15.783,9.538,14.278,4.055-1.112,5.389-8.212,5.646-13.533s-3.1-6.459-7.288-6.664S209.825,149.373,209.568,154.685Z" transform="translate(-209.557 -148.737)" fill="#f7c899"/>
          <path id="Path_54" data-name="Path 54" d="M211.129,155.525c-.214,4.371,3.832,9.932,7.28,10.1s4.97-5.133,5.184-9.5-2.566-5.3-5.988-5.466S211.342,151.162,211.129,155.525Z" transform="translate(-209.783 -149.012)" fill="#edc093"/>
          <path id="Path_55" data-name="Path 55" d="M218.957,151.1c-3.422-.171-6.27.607-6.519,5.569a12.968,12.968,0,0,0,1.446,6.108,11.369,11.369,0,0,1-2.755-7.254c.214-4.363,3.045-5.022,6.484-4.859a9.8,9.8,0,0,1,3.653.744,12.055,12.055,0,0,0-2.31-.308Z" transform="translate(-209.785 -149.013)" fill="#d9aa7c"/>
          <path id="Path_56" data-name="Path 56" d="M218.124,158.709c-.394.855.513,2.113,2.01,2.789s3.037.513,3.422-.351-.513-2.122-2.019-2.8S218.518,157.836,218.124,158.709Z" transform="translate(-210.782 -150.066)" fill="#f7c899"/>
        </g>
        <path id="Path_57" data-name="Path 57" d="M214.636,111.44c-7.887,21.617,2.378,40.326,2.378,40.326s-.334-24.295,8.7-30.685Z" transform="translate(-206.676 -99.823)" fill="#4a2b17"/>
        <path id="Path_58" data-name="Path 58" d="M271.327,155.385h0a176.908,176.908,0,0,1-1.531-22.541c0-7.434-3.858-18.623-25-19.675s-26.262,9.727-26.784,17.109c-.633,8.991-3.721,22.242-3.721,22.242h0a37.46,37.46,0,0,0-2.429,9.307c-1.317,13.585,11.762,25.724,29.257,26.579s31.652-9.949,31.712-23.6a37.475,37.475,0,0,0-1.506-9.419Z" transform="translate(-206.693 -100.062)" fill="#f7c899"/>
        <path id="Path_59" data-name="Path 59" d="M272.7,117.2c5.252,25.39-3.063,34.962-3.063,34.962s-4.183-25.972-8.674-31.275c0,0-29.5,17.811-50.1,2.635,0,0-16.9-12.387,11.266-25.664,5.415,6.407,15.988,7.956,24.56,7.511C265.713,104.4,272.111,108.639,272.7,117.2Z" transform="translate(-205.834 -97.86)" fill="#6b3e21"/>
        <path id="Path_60" data-name="Path 60" d="M241.5,161.34s-4.585,7.058-10.873,6.7c0,0,2.147,8.1,10.214,6.638,0,0-6.082-2.173-7.143-4.979a9.932,9.932,0,0,0,7.8-8.358Z" transform="translate(-209.419 -107.036)" fill="#d9aa7c"/>
        <path id="Path_61" data-name="Path 61" d="M269.953,145.1a10.385,10.385,0,0,1-2.712.376h-1.335a13.319,13.319,0,0,1-1.48-.171c-.513-.077-1.035-.205-1.574-.334a11.7,11.7,0,0,1-1.574-.522,12.827,12.827,0,0,1-1.506-.719,10.033,10.033,0,0,1-1.369-.855c-.214-.154-.428-.3-.624-.462s-.368-.342-.539-.5a6.24,6.24,0,0,1-.932-.984c-.257-.325-.488-.624-.684-.9a5.485,5.485,0,0,1-.419-.77c-.222-.428-.325-.676-.325-.676s.222.163.59.462c.18.154.4.325.642.539s.565.394.855.633.676.445,1.035.693.778.462,1.189.693a12.615,12.615,0,0,0,1.317.659c.436.231.924.4,1.386.607s.958.351,1.429.53a12.863,12.863,0,0,0,1.411.453c.47.12.915.265,1.352.376l1.232.308Z" transform="translate(-212.924 -103.746)" fill="#6b3e21"/>
        <path id="Path_62" data-name="Path 62" d="M223.08,144.34l2.25-.624,1.069-.3,1.163-.351c.4-.1.8-.274,1.223-.394a11.208,11.208,0,0,0,1.24-.453c.385-.163.855-.308,1.215-.5s.787-.334,1.146-.539.727-.359,1.044-.565.659-.359.924-.565.539-.359.778-.513l.573-.445c.325-.24.539-.376.539-.376l-.274.6c-.1.18-.214.419-.368.676a7.877,7.877,0,0,1-.59.8,6.938,6.938,0,0,1-.855.855,7.084,7.084,0,0,1-1.027.855,8.145,8.145,0,0,1-1.206.744,13.2,13.2,0,0,1-1.317.607,14.011,14.011,0,0,1-2.746.719,13.259,13.259,0,0,1-2.447.154,8.717,8.717,0,0,1-2.335-.385Z" transform="translate(-208.327 -103.766)" fill="#6b3e21"/>
        <g id="Group_4" data-name="Group 4" transform="translate(14.362 41.353)">
          <path id="Path_63" data-name="Path 63" d="M229.578,157.978a53.093,53.093,0,0,0,6.946-.445c.171-4.782-2.635-10.265-6.416-10.454s-7.117,5-7.408,9.778A52.935,52.935,0,0,0,229.578,157.978Z" transform="translate(-222.635 -146.326)" fill="#fff"/>
          <path id="Path_64" data-name="Path 64" d="M231.155,151.56a1.762,1.762,0,0,0-1.506,1.138l.855,1.429-1.155-.59a5.269,5.269,0,0,0-.171,1.069c-.086,1.711.676,3.174,1.711,3.225s1.916-1.317,2-3.045S232.173,151.611,231.155,151.56Z" transform="translate(-223.57 -146.975)" fill="#6b3e21"/>
          <path id="Path_65" data-name="Path 65" d="M236.513,157.406l-.043-.3a5.342,5.342,0,0,0-.145-.855c-.077-.368-.163-.778-.3-1.266a14.663,14.663,0,0,0-.522-1.574,13.918,13.918,0,0,0-.855-1.762,11.4,11.4,0,0,0-1.172-1.754,6.467,6.467,0,0,0-1.574-1.446,3.653,3.653,0,0,0-1.891-.659h-.556a2.934,2.934,0,0,0-.445.086,3.626,3.626,0,0,0-.95.368,6.7,6.7,0,0,0-1.711,1.283,11.34,11.34,0,0,0-1.343,1.634,16.447,16.447,0,0,0-.975,1.711c-.274.539-.5,1.061-.676,1.523a12.419,12.419,0,0,0-.419,1.232c-.1.376-.171.624-.222.855l-.077.291v-.3a6.482,6.482,0,0,1,0-.855,9.338,9.338,0,0,1,.12-1.343,9.957,9.957,0,0,1,.394-1.711,10.478,10.478,0,0,1,.8-1.959,9.41,9.41,0,0,1,1.326-2,7.16,7.16,0,0,1,2.027-1.711,5.817,5.817,0,0,1,1.352-.556,6.976,6.976,0,0,1,.77-.137h.7a5.406,5.406,0,0,1,2.729,1,7.254,7.254,0,0,1,1.856,1.908,9.966,9.966,0,0,1,1.121,2.122,12.464,12.464,0,0,1,.855,3.773,11.735,11.735,0,0,1,0,1.36,6.075,6.075,0,0,1-.111.855A.769.769,0,0,0,236.513,157.406Z" transform="translate(-222.623 -146.2)" fill="#402b28"/>
        </g>
        <g id="Group_5" data-name="Group 5" transform="translate(38.843 41.464)">
          <path id="Path_66" data-name="Path 66" d="M259.7,160.411a56.871,56.871,0,0,0,8.555-.676c.214-5.877-3.259-12.276-7.9-12.507s-8.717,5.809-9.076,11.677a57.172,57.172,0,0,0,8.426,1.506Z" transform="translate(-251.245 -146.459)" fill="#fff"/>
          <path id="Path_67" data-name="Path 67" d="M260.827,153a2.006,2.006,0,0,0-1.668,1.317l1.215,1.916-1.591-.744a4.511,4.511,0,0,0-.094.778c-.094,1.856.719,3.422,1.814,3.422s2.053-1.411,2.147-3.268S261.922,153.06,260.827,153Z" transform="translate(-252.316 -147.294)" fill="#6b3e21"/>
          <path id="Path_68" data-name="Path 68" d="M268.238,159.607l-.051-.359a5.955,5.955,0,0,0-.145-1.018c-.086-.428-.18-.95-.325-1.54-.068-.291-.171-.6-.265-.915s-.214-.659-.342-1a17.45,17.45,0,0,0-.984-2.147,12.94,12.94,0,0,0-1.446-2.122,7.7,7.7,0,0,0-1.976-1.711,2.633,2.633,0,0,0-.565-.317,3.047,3.047,0,0,0-.6-.248,4.09,4.09,0,0,1-.616-.163h-1.317a4.94,4.94,0,0,0-.59.1,2.8,2.8,0,0,0-.6.18,2.874,2.874,0,0,0-.6.257,7.948,7.948,0,0,0-2.139,1.548,13.008,13.008,0,0,0-1.643,1.968,15.912,15.912,0,0,0-1.181,2.036c-.171.334-.317.65-.445.967a9.089,9.089,0,0,0-.351.855c-.214.565-.359,1.078-.479,1.5s-.188.77-.248,1l-.077.351v-.359a8.316,8.316,0,0,1,0-1.044,11.646,11.646,0,0,1,.18-1.608,12.267,12.267,0,0,1,.513-2.062,13.336,13.336,0,0,1,1-2.327,11.3,11.3,0,0,1,1.651-2.352,8.486,8.486,0,0,1,2.472-1.976,4.415,4.415,0,0,1,.761-.351,5.552,5.552,0,0,1,.855-.265c.3-.051.633-.137.856-.154H260.8l.436.068a7.7,7.7,0,0,1,.855.24,4.85,4.85,0,0,1,.778.334,4.03,4.03,0,0,1,.727.419,8.453,8.453,0,0,1,2.267,2.207,11.361,11.361,0,0,1,1.411,2.506,14.637,14.637,0,0,1,1.086,4.508,11.921,11.921,0,0,1,0,1.634,9.284,9.284,0,0,1-.1,1.027C268.255,159.478,268.238,159.607,268.238,159.607Z" transform="translate(-251.241 -146.33)" fill="#402b28"/>
        </g>
        <path id="Path_69" data-name="Path 69" d="M230.14,185.881a47.305,47.305,0,0,1,4.773-2.07c1.454-.556,3.174-1.146,5.039-1.711s3.875-1.086,5.92-1.514a45.153,45.153,0,0,1,6.117-.855,18.946,18.946,0,0,1,2.96,0A7.89,7.89,0,0,1,256.4,180a5.543,5.543,0,0,1,.736.274,3.741,3.741,0,0,1,.411.231l.231.18a6.844,6.844,0,0,1,.941.855,4.544,4.544,0,0,1,.642,1.027,2.951,2.951,0,0,1,.163,1.933,2.567,2.567,0,0,1-.53,1.035,1.573,1.573,0,0,1-.274.274,2.327,2.327,0,0,0,.077-.368,2.994,2.994,0,0,0,0-.984,2.3,2.3,0,0,0-.6-1.172,3.424,3.424,0,0,0-.625-.5,6.247,6.247,0,0,0-.855-.453l-.265-.128h-.12a2.053,2.053,0,0,0-.436-.094,6.844,6.844,0,0,0-1.095-.094,23.957,23.957,0,0,0-2.609.154c-1.848.205-3.841.539-5.843.907l-5.894,1.1c-1.891.342-3.661.676-5.184.932C232.219,185.633,230.14,185.881,230.14,185.881Z" transform="translate(-209.348 -109.686)" fill="#d9aa7c"/>
      </g>
      <path id="Path_70" data-name="Path 70" d="M186.77,183.519l10.257-9.829,2.986,2.4-7.9,11.129Z" transform="translate(-87.899 -80.608)" fill="#fff"/>
      <path id="Path_71" data-name="Path 71" d="M185.439,183.519l-4.1-9.829-3.781,2.4,3.388,10.873Z" transform="translate(-86.568 -80.608)" fill="#fff"/>
      <path id="Path_72" data-name="Path 72" d="M268.194,288.3l12.96,2.241-.462-5.432-11.6-2.01a2.643,2.643,0,1,0-.9,5.2Z" transform="translate(-147.877 -124.625)" fill="#4d463b"/>
      <path id="Path_73" data-name="Path 73" d="M224.1,289.288a2.643,2.643,0,1,0-.676-5.235l-4.423.565-.24,5.355Z" transform="translate(-141.071 -124.767)" fill="#4d463b"/>
    </g>
    <g id="shopping1" transform="translate(912.623 -41.635)">
      <g id="Layer_1" data-name="Layer 1" transform="translate(67.66 259.84)">
        <g id="Group_46" data-name="Group 46" transform="translate(0 0)">
          <g id="Group_38" data-name="Group 38">
            <g id="Group_28" data-name="Group 28" transform="translate(56.266)">
              <path id="Path_159" data-name="Path 159" d="M526.51,365.807l26.477-13.123-2.254-10.866-5.779-79.086-9.134-.577-7.575-2.314Z" transform="translate(-462.515 -259.84)" fill="#662d91"/>
              <path id="Path_160" data-name="Path 160" d="M348.07,259.84l.346,89.146-2.081,16.821-64-14.913,2.776-12.14L288.41,264.7Z" transform="translate(-282.34 -259.84)" fill="#662d91"/>
              <path id="Path_161" data-name="Path 161" d="M526.51,365.807l12.428-16.245L536.4,262.1l-8.151-2.257.346,89.146Z" transform="translate(-462.515 -259.84)" fill="#54277c"/>
              <path id="Path_162" data-name="Path 162" d="M365.469,349.016s-4.1-53.417-60.019-84.289l59.66-4.857Z" transform="translate(-299.393 -259.862)" fill="#6c339e"/>
              <g id="Group_26" data-name="Group 26" transform="translate(12.284 8.594)">
                <path id="Path_163" data-name="Path 163" d="M332.89,295.276c.029,1.481-.771,2.7-1.79,2.715s-1.863-1.164-1.892-2.645.771-2.7,1.79-2.718S332.862,293.793,332.89,295.276Z" transform="translate(-329.207 -292.629)" fill="#e6e6e6"/>
                <path id="Path_164" data-name="Path 164" d="M334.518,298.975c.013.76-.4,1.384-.917,1.394s-.957-.6-.972-1.358.4-1.381.917-1.392S334.5,298.215,334.518,298.975Z" transform="translate(-331.732 -296.312)" fill="#3c155e"/>
              </g>
              <g id="Group_27" data-name="Group 27" transform="translate(49.293 4.555)">
                <path id="Path_165" data-name="Path 165" d="M475.737,281.045c.042,2.139-1.114,3.9-2.584,3.931s-2.694-1.685-2.736-3.827,1.114-3.9,2.584-3.931S475.7,278.9,475.737,281.045Z" transform="translate(-470.416 -277.218)" fill="#e6e6e6"/>
                <path id="Path_166" data-name="Path 166" d="M478.124,286.39c.024,1.1-.571,2-1.31,2.015s-1.384-.865-1.4-1.96.571-2,1.326-2.016S478.1,285.294,478.124,286.39Z" transform="translate(-474.1 -282.539)" fill="#3c155e"/>
              </g>
              <path id="Path_167" data-name="Path 167" d="M352.5,356.764a6.783,6.783,0,0,1-2.783-.626c-15.322-6.872-15.463-55.1-15.463-57.154a.868.868,0,0,1,.868-.867h0a.87.87,0,0,1,.868.87c0,.49.131,49.153,14.439,55.564a4.949,4.949,0,0,0,5.273-.7c10.769-7.816,17.2-50.041,16.386-57.613a.868.868,0,1,1,1.725-.186c.419,3.876-1.075,16.816-3.887,29.179-2.54,11.17-6.893,25.444-13.2,30.031A7.166,7.166,0,0,1,352.5,356.764Z" transform="translate(-320.645 -285.975)" fill="#662d91" opacity="0.5"/>
              <path id="Path_168" data-name="Path 168" d="M351.177,350.235a6.7,6.7,0,0,1-2.783-.626c-15.325-6.872-15.464-55.1-15.464-57.152a.867.867,0,0,1,.868-.867h0a.867.867,0,0,1,.865.867c0,.49.134,49.153,14.439,55.564a4.948,4.948,0,0,0,5.273-.7c10.772-7.826,17.206-50.06,16.389-57.621a.868.868,0,0,1,1.725-.186c.417,3.876-1.075,16.816-3.887,29.181-2.542,11.168-6.9,25.441-13.207,30.031A7.1,7.1,0,0,1,351.177,350.235Z" transform="translate(-319.671 -281.182)" fill="#f2f2f2"/>
            </g>
            <g id="Group_31" data-name="Group 31" transform="translate(25.025 18.238)">
              <path id="Path_169" data-name="Path 169" d="M353.91,457.815,374.6,446.387l-1.761-9.459-4.516-68.853-7.137-.5-5.918-2.012Z" transform="translate(-303.911 -365.552)" fill="#d87819"/>
              <path id="Path_170" data-name="Path 170" d="M214.494,365.56l.273,77.606-1.628,14.649-50-12.987,2.168-10.569,2.576-64.473Z" transform="translate(-163.14 -365.552)" fill="#f7931e"/>
              <path id="Path_171" data-name="Path 171" d="M353.91,457.815l9.711-14.144-1.987-76.149-6.369-1.963.273,77.606Z" transform="translate(-303.911 -365.552)" fill="#bf6616"/>
              <path id="Path_172" data-name="Path 172" d="M228.123,435.184s-3.208-41.733-46.883-65.861l46.613-3.792Z" transform="translate(-176.496 -365.53)" fill="#ff9c39"/>
              <g id="Group_29" data-name="Group 29" transform="translate(9.597 6.72)">
                <path id="Path_173" data-name="Path 173" d="M202.636,393.236c.021,1.158-.6,2.1-1.4,2.123s-1.455-.909-1.478-2.068.6-2.1,1.4-2.123S202.612,392.081,202.636,393.236Z" transform="translate(-199.758 -391.168)" fill="#e6e6e6"/>
                <path id="Path_174" data-name="Path 174" d="M203.9,396.158c.013.595-.309,1.082-.715,1.088s-.747-.466-.76-1.048.309-1.08.718-1.088S203.889,395.566,203.9,396.158Z" transform="translate(-201.729 -394.077)" fill="#96520f"/>
              </g>
              <g id="Group_30" data-name="Group 30" transform="translate(38.526 3.567)">
                <path id="Path_175" data-name="Path 175" d="M314.293,382.127c.031,1.672-.873,3.046-2.021,3.069s-2.1-1.31-2.136-2.988.87-3.048,2.018-3.069S314.246,380.455,314.293,382.127Z" transform="translate(-310.135 -379.139)" fill="#e6e6e6"/>
                <path id="Path_176" data-name="Path 176" d="M316.118,386.3c.018.857-.446,1.573-1.035,1.573S314,387.189,314,386.343s.446-1.573,1.035-1.573S316.1,385.444,316.118,386.3Z" transform="translate(-312.987 -383.294)" fill="#96520f"/>
              </g>
              <path id="Path_177" data-name="Path 177" d="M217.955,441.429a5.257,5.257,0,0,1-2.173-.49c-11.975-5.37-12.085-43.054-12.082-44.655a.679.679,0,0,1,.676-.676h0a.679.679,0,0,1,.679.676c0,.385.1,38.407,11.27,43.418a3.864,3.864,0,0,0,4.12-.545c8.416-6.115,13.443-39.1,12.8-45.02a.679.679,0,0,1,1.347-.147c.328,3.03-.839,13.139-3.038,22.8-1.984,8.725-5.386,19.88-10.316,23.463a5.567,5.567,0,0,1-3.287,1.174Z" transform="translate(-193.069 -386.115)" fill="#ce6f11" opacity="0.5"/>
              <path id="Path_178" data-name="Path 178" d="M216.918,436.144a5.271,5.271,0,0,1-2.175-.49C202.77,430.283,202.66,392.6,202.66,391a.676.676,0,0,1,.679-.676h0a.676.676,0,0,1,.676.679c0,.383.1,38.4,11.27,43.416a3.86,3.86,0,0,0,4.117-.545c8.416-6.115,13.445-39.1,12.8-45.02a.679.679,0,0,1,1.35-.147c.325,3.03-.839,13.139-3.038,22.8-1.984,8.725-5.386,19.88-10.319,23.462A5.554,5.554,0,0,1,216.918,436.144Z" transform="translate(-192.302 -382.184)" fill="#f2f2f2"/>
            </g>
            <g id="Group_34" data-name="Group 34" transform="translate(104.504 13.079)">
              <path id="Path_179" data-name="Path 179" d="M554.308,342.047a.524.524,0,0,1-.524-.5c-.286-14.939-3.931-25.973-9.718-29.533-2.587-1.588-5.5-1.609-8.683-.073-8.736,4.233-10.093,27.182-10.106,27.415a.525.525,0,0,1-1.048-.058c.055-.97,1.41-23.8,10.7-28.306,3.517-1.7,6.775-1.662,9.7.126,6.107,3.748,9.925,15.1,10.222,30.4a.524.524,0,0,1-.524.524Z" transform="translate(-509.068 -309.742)" fill="#fff"/>
              <path id="Path_180" data-name="Path 180" d="M490.214,478.875l-23.824-8.856,1.761-8.492,4.518-61.788,7.137-.453,5.915-1.806Z" transform="translate(-466.39 -374.485)" fill="#22b573"/>
              <path id="Path_181" data-name="Path 181" d="M539.39,397.48l-.27,69.648,4.762,11.747,46.865-10.258-2.17-9.485L586,401.273Z" transform="translate(-520.058 -374.485)" fill="#22b573"/>
              <path id="Path_182" data-name="Path 182" d="M521.118,478.875l-12.848-11.3,1.987-68.338,6.369-1.761-.27,69.648Z" transform="translate(-497.294 -374.485)" fill="#22a867"/>
              <path id="Path_183" data-name="Path 183" d="M539.12,467.128S542.325,425.4,586,401.286L539.39,397.48Z" transform="translate(-520.058 -374.485)" fill="#2ac47a"/>
              <g id="Group_32" data-name="Group 32" transform="translate(58.213 29.713)">
                <path id="Path_184" data-name="Path 184" d="M688.5,425.177c-.024,1.158.6,2.1,1.4,2.123s1.457-.909,1.478-2.065-.6-2.11-1.4-2.126S688.522,424.016,688.5,425.177Z" transform="translate(-688.498 -423.109)" fill="#e6e6e6"/>
                <path id="Path_185" data-name="Path 185" d="M691.17,428.019c0,.595.309,1.082.718,1.09s.747-.467.758-1.061-.309-1.08-.716-1.088S691.183,427.434,691.17,428.019Z" transform="translate(-690.47 -425.951)" fill="#198953"/>
              </g>
              <g id="Group_33" data-name="Group 33" transform="translate(28.017 26.554)">
                <path id="Path_186" data-name="Path 186" d="M573.287,414.047c-.034,1.672.87,3.046,2.018,3.069s2.1-1.31,2.139-2.988-.873-3.048-2.021-3.069S573.319,412.375,573.287,414.047Z" transform="translate(-573.286 -411.059)" fill="#e6e6e6"/>
                <path id="Path_187" data-name="Path 187" d="M577.149,418.213c-.016.86.448,1.573,1.048,1.573s1.08-.676,1.1-1.533-.448-1.573-1.048-1.573S577.167,417.356,577.149,418.213Z" transform="translate(-576.136 -415.207)" fill="#198953"/>
              </g>
              <path id="Path_188" data-name="Path 188" d="M609.308,342.047a.524.524,0,0,1-.524-.5c-.286-14.939-3.931-25.973-9.718-29.533-2.587-1.588-5.5-1.609-8.683-.073-8.736,4.233-10.093,27.182-10.106,27.415a.525.525,0,0,1-1.048-.058c.055-.97,1.41-23.8,10.7-28.306,3.517-1.7,6.775-1.662,9.7.126,6.107,3.748,9.926,15.1,10.222,30.4a.524.524,0,0,1-.524.524Z" transform="translate(-549.653 -309.742)" fill="#fff"/>
            </g>
            <g id="Group_37" data-name="Group 37" transform="translate(0 37.759)">
              <path id="Path_189" data-name="Path 189" d="M222.28,514.935l16.769-9.438-1.428-7.818-3.661-56.891-5.784-.414-4.8-1.664Z" transform="translate(-181.755 -438.71)" fill="#c30008"/>
              <path id="Path_190" data-name="Path 190" d="M109.283,438.71l.22,64.126-1.318,12.1L67.66,504.208l1.756-8.732L71.5,442.2Z" transform="translate(-67.66 -438.71)" fill="#ef0017"/>
              <path id="Path_191" data-name="Path 191" d="M222.28,514.935l7.871-11.682-1.609-62.92-5.163-1.623.22,64.126Z" transform="translate(-181.755 -438.71)" fill="#b20411"/>
              <path id="Path_192" data-name="Path 192" d="M120.321,495.162s-2.6-33.836-38-53.378L120.1,438.71Z" transform="translate(-78.478 -438.71)" fill="#f70f31"/>
              <g id="Group_35" data-name="Group 35" transform="translate(7.778 5.441)">
                <path id="Path_193" data-name="Path 193" d="M99.669,461.147c.018.936-.487,1.706-1.132,1.719s-1.179-.736-1.2-1.675.487-1.709,1.132-1.722S99.65,460.209,99.669,461.147Z" transform="translate(-97.338 -459.469)" fill="#e6e6e6"/>
                <path id="Path_194" data-name="Path 194" d="M100.694,463.49c0,.48-.262.875-.579.881s-.605-.377-.616-.857.262-.878.582-.883S100.679,463.007,100.694,463.49Z" transform="translate(-98.933 -461.801)" fill="#b20411"/>
              </g>
              <g id="Group_36" data-name="Group 36" transform="translate(31.215 2.896)">
                <path id="Path_195" data-name="Path 195" d="M190.129,452.181c.026,1.355-.708,2.469-1.638,2.487s-1.706-1.067-1.732-2.422.705-2.469,1.635-2.487S190.1,450.813,190.129,452.181Z" transform="translate(-186.757 -449.759)" fill="#e6e6e6"/>
                <path id="Path_196" data-name="Path 196" d="M191.616,455.5c.016.695-.362,1.266-.839,1.274s-.875-.545-.889-1.24.362-1.266.839-1.276S191.6,454.813,191.616,455.5Z" transform="translate(-189.068 -453.08)" fill="#b20411"/>
              </g>
              <path id="Path_197" data-name="Path 197" d="M112.086,500.035a4.3,4.3,0,0,1-1.764-.4c-9.7-4.351-9.792-34.9-9.792-36.192a.55.55,0,0,1,.55-.55h0a.55.55,0,0,1,.548.55c0,.312.084,31.129,9.144,35.191a3.135,3.135,0,0,0,3.339-.443c6.814-4.956,10.9-31.692,10.376-36.489a.55.55,0,1,1,1.093-.118c.262,2.456-.681,10.649-2.461,18.478-1.609,7.076-4.366,16.113-8.363,19.017A4.514,4.514,0,0,1,112.086,500.035Z" transform="translate(-91.915 -455.206)" fill="#b20411" opacity="0.6"/>
              <path id="Path_198" data-name="Path 198" d="M111.246,495.929a4.3,4.3,0,0,1-1.764-.4c-9.7-4.351-9.792-35.005-9.792-36.305a.657.657,0,0,1,.55-.66h0c.3,0,.548.359.548.66s.084,31.189,9.144,35.246a3.1,3.1,0,0,0,3.339-.411c6.814-4.959,10.9-31.679,10.376-36.478a.545.545,0,0,1,.5-.59.553.553,0,0,1,.605.493c.262,2.453-.679,10.649-2.461,18.48-1.609,7.076-4.366,16.113-8.363,19.017A4.514,4.514,0,0,1,111.246,495.929Z" transform="translate(-91.295 -452.198)" fill="#f2f2f2"/>
            </g>
            <path id="Path_199" data-name="Path 199" d="M477.367,664.94l-10.976,2.44,23.824,8.856Z" transform="translate(-361.886 -558.766)" fill="#1f9b5a"/>
          </g>
        </g>
      </g>
    </g>
  </g>
</svg>
